<svg width="300" height="331" viewBox="0 0 300 331" fill="none" xmlns="http://www.w3.org/2000/svg">
<path d="M178.461 56.5293H121.539L121.538 144.222H178.461V56.5293Z" fill="#202020"/>
<path d="M142 83.0107L145.028 92.5376H146.707L143.704 83.0107H142ZM156.321 83.0107L153.142 92.5376H154.845L158 83.0107H156.322H156.321ZM147.42 88.0328H149.881L147.205 91.4021V92.5376H152.555V90.9098H149.946L152.644 87.5406V86.405H147.42V88.0328Z" fill="white"/>
<path d="M121.539 79.9908V56.5293H17.6924V67.0032L121.539 79.9908Z" fill="#202020"/>
<path d="M108 56.7607V64.7607H67L56 56.7607" stroke="#363636" stroke-width="2"/>
<path d="M178.461 79.9908V56.5293H282.308V67.0032L178.461 79.9908Z" fill="#202020"/>
<path d="M121.538 155.376H147.5L133.053 318.645H121.538V155.376Z" fill="#202020"/>
<path d="M137 269.761L130 276.761V318.532" stroke="#363636" stroke-width="2"/>
<path d="M178.462 155.376H152.5L166.947 318.645H178.462V155.376Z" fill="#202020"/>
<path d="M163 269.761L170 276.761V318.532" stroke="#363636" stroke-width="2"/>
<path d="M121.538 155.46L146.442 172.107H153.557L178.461 155.46V144.223H121.538V155.46Z" fill="#202020"/>
<path d="M126.538 13.8457H132.884V26.1534H128.846L126.538 13.8457Z" fill="#E24713"/>
<path d="M173.462 13.8457H167.116V26.1534H171.154L173.462 13.8457Z" fill="#E24713"/>
<rect x="140.577" y="46.1543" width="18.8462" height="10.3846" fill="#E24713"/>
<rect x="132.692" width="34.6154" height="46.1538" fill="#F15824"/>
<ellipse cx="1.92308" cy="1.92308" rx="1.92308" ry="1.92308" transform="matrix(1 0 0 -1 141.538 20.7695)" fill="#202020"/>
<ellipse cx="1.92308" cy="1.92308" rx="1.92308" ry="1.92308" transform="matrix(1 0 0 -1 154.615 20.7695)" fill="#202020"/>
<path d="M140.385 17.5H146.539" stroke="#202020" stroke-width="1.15385"/>
<path d="M153.462 17.5H159.616" stroke="#202020" stroke-width="1.15385"/>
<path d="M150 21.5391L151.923 29.2314H148.077" stroke="#202020" stroke-width="1.15385"/>
<path d="M145.137 37.6924H154.615" stroke="#202020" stroke-width="1.15385"/>
<path d="M145.137 37.6924H154.615" stroke="#202020" stroke-width="1.15385"/>
<path d="M170.138 46.7239L167.36 50.4099L155.407 41.4027L153.543 37.6881L158.185 37.7167L170.138 46.7239Z" fill="#77492D"/>
<path d="M170.138 46.7239L170.598 47.0711L170.946 46.6103L170.485 46.2631L170.138 46.7239ZM167.36 50.4099L167.013 50.8706L167.474 51.2178L167.821 50.7571L167.36 50.4099ZM155.407 41.4027L154.892 41.6615L154.952 41.7822L155.06 41.8635L155.407 41.4027ZM158.185 37.7167L158.532 37.256L158.379 37.141L158.188 37.1398L158.185 37.7167ZM153.543 37.6881L153.547 37.1112C153.346 37.11 153.159 37.2132 153.053 37.3837C152.947 37.5542 152.937 37.7675 153.027 37.9469L153.543 37.6881ZM170.138 46.7239L169.677 46.3767L166.899 50.0627L167.36 50.4099L167.821 50.7571L170.598 47.0711L170.138 46.7239ZM167.36 50.4099L167.707 49.9491L155.754 40.942L155.407 41.4027L155.06 41.8635L167.013 50.8706L167.36 50.4099ZM158.185 37.7167L157.838 38.1775L169.79 47.1846L170.138 46.7239L170.485 46.2631L158.532 37.256L158.185 37.7167ZM155.407 41.4027L155.923 41.144L154.059 37.4294L153.543 37.6881L153.027 37.9469L154.892 41.6615L155.407 41.4027ZM153.543 37.6881L153.539 38.265L158.181 38.2936L158.185 37.7167L158.188 37.1398L153.547 37.1112L153.543 37.6881Z" fill="#202020"/>
<rect x="170.229" y="46.7925" width="4.61538" height="2.33246" transform="rotate(127 170.229 46.7925)" fill="white" stroke="#202020" stroke-width="1.15385"/>
<rect x="164.02" y="42.113" width="4.61538" height="4.66493" transform="rotate(127 164.02 42.113)" fill="#FF9900" stroke="#202020" stroke-width="1.15385"/>
<path d="M133.077 318.646H121.599L100 326.858V330.184H133.077V318.646Z" fill="#F15824"/>
<path d="M166.923 318.646H178.401L200 326.858V330.184H166.923V318.646Z" fill="#F15824"/>
<path d="M284.401 50.1836L282.308 51.0193V67.1067H296.545L300 63.0326V57.0782H287.751L284.401 50.1836Z" fill="#F15824"/>
<path d="M15.5069 50.1836L17.6924 51.0193V67.1067H3.43448L7.62939e-05 63.0326V57.0782H12.1766L15.5069 50.1836Z" fill="#F15824"/>
<path d="M132 56.7607V121.261L141 137.261H150M168 56.7607V121.261L159 137.261H150M150 137.261V157.761M150 157.761L132 166.761V219.261L122 226.761M150 157.761L168 166.761V219.261L178 226.761" stroke="#363636" stroke-width="2"/>
<path d="M192 56.7607V64.7607H233L244 56.7607" stroke="#363636" stroke-width="2"/>
</svg>
