<svg preserveAspectRatio="none" width="100%" height="100%" overflow="visible" style="display: block;" viewBox="0 0 40 31" fill="none" xmlns="http://www.w3.org/2000/svg">
<g id="Group" filter="url(#filter0_d_0_56)">
<path id="Vector" d="M31.9473 10.3437C31.8951 9.92391 31.8057 9.49731 31.6824 9.0761C31.5585 8.65489 31.3999 8.24053 31.2101 7.84479C31.0111 7.42945 30.7769 7.05085 30.5107 6.71633C30.2452 6.38524 29.9314 6.08549 29.5778 5.82542C29.2262 5.5673 28.8367 5.34445 28.4198 5.16176C28.0029 4.97956 27.5515 4.83508 27.0778 4.73222C26.6153 4.63182 26.1279 4.56913 25.6308 4.5466C25.4899 4.54023 25.3483 4.5368 25.21 4.5368C24.3984 4.5368 23.6267 4.64896 22.9162 4.86985C22.1125 5.12013 21.4105 5.52322 20.824 6.07178C20.8038 5.97088 20.7757 5.87195 20.7392 5.77448C20.6178 5.45269 20.3875 5.16274 20.0548 4.91197C19.8115 4.72635 19.4853 4.58676 19.0573 4.48439C18.7846 4.41925 18.4721 4.36244 18.1276 4.31591C17.8099 4.27281 17.4681 4.23558 17.1099 4.20473C16.7654 4.17534 16.4282 4.15036 16.1085 4.13077C15.7927 4.11118 15.4952 4.09502 15.2251 4.08277L14.6067 4.05437C14.3301 4.04163 14.0489 4.02988 13.7625 4.01812C13.4604 4.00588 13.1538 4 12.8439 4C12.5314 4 12.2163 4.00833 11.9071 4.02498C11.575 4.04261 11.2436 4.07592 10.92 4.12391C10.4933 4.18808 10.1097 4.31542 9.77897 4.50252C9.48213 4.67051 9.22965 4.87573 9.02872 5.11181C8.84409 5.32878 8.70056 5.5673 8.6027 5.82003C8.51267 6.05268 8.45722 6.2912 8.43765 6.52874C8.38937 7.1253 8.5616 7.62047 8.94978 7.99907C9.38101 8.41979 10.0464 8.65342 10.9278 8.69407C11.0694 8.70044 11.2129 8.70387 11.3545 8.70387C11.3773 8.70387 11.4002 8.70387 11.4223 8.70387C11.4126 8.71268 11.4021 8.72101 11.3923 8.72982C11.1281 8.95512 10.8528 9.19561 10.5736 9.44392C10.2872 9.69812 10.0034 9.9626 9.73004 10.229C9.44233 10.5097 9.17877 10.7938 8.94651 11.0739C8.70056 11.3712 8.49375 11.6685 8.33327 11.957C8.14211 12.2998 8.03186 12.6363 8.00576 12.9571C7.96205 13.4905 8.16756 13.996 8.60009 14.4181C8.6027 14.4211 8.60597 14.424 8.60923 14.427C8.86953 14.6763 9.2551 14.8619 9.78745 14.9956C10.1221 15.0794 10.5123 15.1528 10.9481 15.2145C11.3558 15.2718 11.7981 15.3213 12.2626 15.362C12.7108 15.4011 13.1525 15.434 13.5759 15.4604C13.9941 15.4864 14.3809 15.5074 14.7261 15.5231L15.5142 15.5593C15.7138 15.5686 15.9206 15.577 16.1339 15.5853C18.2474 15.6677 18.6502 19 20.3026 19C21.9551 19 23.0061 15.982 25.4723 15.982C26.156 15.982 26.811 15.9311 27.419 15.8307C28.2861 15.6872 29.0565 15.4295 29.7102 15.0652C30.3815 14.6905 30.9224 14.1973 31.3164 13.5983C31.6955 13.0223 31.9205 12.3331 31.9838 11.5505C32.0138 11.1792 32.0021 10.7732 31.9486 10.3437H31.9473Z" fill="var(--fill-0, #CFFF50)"/>
<path id="Vector_2" d="M17.9163 11.6626C18.1942 11.6753 18.4226 11.7302 18.6026 11.8266C18.782 11.9231 18.9236 12.0461 19.0267 12.1945C19.1298 12.3434 19.1983 12.5065 19.2322 12.6847C19.2655 12.863 19.2752 13.0398 19.2609 13.2162C19.2485 13.3695 19.2178 13.5169 19.1695 13.6584C19.1213 13.8 19.0495 13.9283 18.9549 14.0434C18.8603 14.1585 18.7383 14.2574 18.5876 14.3407C18.4369 14.424 18.2536 14.4832 18.037 14.519C17.8471 14.5528 17.6488 14.5763 17.4427 14.59C17.2365 14.6032 17.0304 14.6111 16.8229 14.613C16.6154 14.615 16.408 14.612 16.1992 14.6042C15.9904 14.5964 15.7888 14.588 15.5931 14.5787C15.4065 14.5704 15.1436 14.5582 14.805 14.5425C14.4664 14.5268 14.092 14.5067 13.6823 14.4813C13.2726 14.4558 12.8492 14.4244 12.4121 14.3862C11.975 14.348 11.5672 14.3025 11.1882 14.2491C10.8091 14.1957 10.4797 14.134 10.1998 14.064C9.91992 13.9939 9.73203 13.9126 9.63482 13.8196C9.39278 13.5825 9.28383 13.3146 9.30797 13.0144C9.32493 12.8023 9.40126 12.5755 9.53631 12.3331C9.67135 12.0906 9.84424 11.8428 10.0543 11.5891C10.2644 11.3354 10.5012 11.0807 10.7635 10.8241C11.0264 10.5679 11.2952 10.3176 11.5698 10.0732C11.8445 9.82883 12.112 9.59618 12.3716 9.37382C12.6313 9.15195 12.8635 8.9482 13.0684 8.76306C13.2732 8.57793 13.4389 8.41532 13.5655 8.27573C13.6921 8.13614 13.7593 8.02692 13.7651 7.94856C13.7697 7.89321 13.7514 7.84815 13.711 7.81338C13.6699 7.7786 13.6203 7.75264 13.5603 7.7355C13.5009 7.71787 13.4363 7.70611 13.3672 7.69975C13.298 7.69338 13.2373 7.68897 13.1851 7.68652C13.0031 7.6782 12.8211 7.67624 12.6397 7.68113C12.4584 7.68603 12.277 7.6924 12.0956 7.70024C11.9143 7.70856 11.7329 7.71493 11.5516 7.71934C11.3702 7.72424 11.1888 7.72228 11.0062 7.71395C10.5156 7.69142 10.1744 7.58661 9.98255 7.39951C9.79074 7.21241 9.70919 6.94108 9.73855 6.58598C9.75225 6.41995 9.79074 6.25489 9.85403 6.09082C9.91731 5.92674 10.008 5.77589 10.1261 5.63728C10.2442 5.49867 10.3896 5.38014 10.5632 5.2817C10.7367 5.18325 10.9403 5.11664 11.1745 5.08137C11.4433 5.04121 11.7179 5.01379 11.9984 4.99909C12.2783 4.9844 12.5602 4.97656 12.8433 4.97656C13.1264 4.97656 13.4089 4.98195 13.6914 4.99321C13.9739 5.00448 14.2518 5.01672 14.5252 5.02897C14.6772 5.03582 14.8833 5.04562 15.1436 5.05738C15.4039 5.06913 15.689 5.0848 15.9996 5.1039C16.3095 5.12301 16.6298 5.14652 16.9612 5.17492C17.292 5.20333 17.6032 5.23712 17.8941 5.2768C18.1851 5.31647 18.4402 5.36251 18.6607 5.41492C18.8805 5.46732 19.0358 5.52854 19.1265 5.59809C19.3033 5.73033 19.422 5.87727 19.4827 6.0389C19.5434 6.20052 19.5669 6.37244 19.5519 6.55464C19.5382 6.72067 19.499 6.88279 19.4338 7.04001C19.3685 7.19723 19.2805 7.3471 19.1682 7.48914C19.09 7.59053 18.9764 7.71738 18.8264 7.87117C18.6763 8.02447 18.508 8.19247 18.3214 8.37565C18.1342 8.55833 17.9333 8.75229 17.7186 8.95653C17.504 9.16076 17.2907 9.36696 17.0799 9.57512C16.8692 9.78328 16.665 9.98654 16.468 10.1849C16.271 10.3837 16.0968 10.5694 15.9454 10.7423C15.7941 10.9152 15.6714 11.0709 15.5775 11.2085C15.4835 11.3467 15.4333 11.4564 15.4268 11.5377C15.4222 11.593 15.4359 11.6371 15.4685 11.6694C15.5005 11.7022 15.5422 11.7277 15.5931 11.7463C15.644 11.7649 15.6995 11.7772 15.7601 11.7835C15.8208 11.7894 15.8769 11.7938 15.9291 11.7963C16.0981 11.8041 16.2651 11.8002 16.4302 11.785C16.5946 11.7698 16.7583 11.7512 16.9214 11.7292C17.0845 11.7071 17.2483 11.6885 17.4127 11.6733C17.5771 11.6582 17.7441 11.6542 17.9137 11.6621L17.9163 11.6626Z" fill="var(--fill-0, #121212)"/>
<path id="Vector_3" d="M25.551 5.52316C25.9549 5.54177 26.343 5.59124 26.7155 5.67205C27.0881 5.75287 27.4371 5.86454 27.7633 6.00707C28.0895 6.14959 28.3902 6.32199 28.6656 6.52427C28.9409 6.72655 29.1836 6.95871 29.3936 7.22025C29.6148 7.49845 29.8112 7.81681 29.9827 8.17484C30.1543 8.53287 30.2959 8.90314 30.4087 9.28615C30.5216 9.66916 30.6012 10.0517 30.6488 10.4332C30.6965 10.8148 30.7069 11.1669 30.6808 11.4897C30.6273 12.145 30.4492 12.7024 30.1458 13.1628C29.8425 13.6232 29.4373 13.9949 28.9311 14.2775C28.4242 14.5601 27.8266 14.7585 27.1376 14.8726C26.4487 14.9867 25.6939 15.0249 24.8732 14.9872C24.0655 14.95 23.3322 14.8471 22.6727 14.6777C22.0131 14.5082 21.4533 14.2653 20.9934 13.9479C20.5335 13.6305 20.189 13.2338 19.9594 12.7572C19.7304 12.2807 19.6416 11.7179 19.6945 11.0694C19.7128 10.8481 19.7512 10.6135 19.8106 10.3656C19.87 10.1183 19.945 9.86459 20.0357 9.60549C20.1264 9.3464 20.2334 9.08779 20.3567 8.83017C20.48 8.57254 20.6137 8.32177 20.7579 8.07835C20.9021 7.83493 21.0567 7.60326 21.223 7.38335C21.3888 7.16344 21.5597 6.96459 21.7358 6.78631C22.2056 6.31416 22.766 5.9767 23.4164 5.77393C24.0668 5.57165 24.7786 5.4879 25.551 5.52365V5.52316ZM25.0226 12.8199C25.1746 12.8268 25.3057 12.7905 25.4173 12.7102C25.5282 12.6304 25.6241 12.5251 25.7043 12.3948C25.7846 12.2645 25.8511 12.1186 25.9033 11.9574C25.9555 11.7963 25.9992 11.6361 26.0338 11.4774C26.0684 11.3187 26.0932 11.1718 26.1088 11.0366C26.1238 10.9015 26.1349 10.7952 26.1414 10.7168C26.148 10.6384 26.1519 10.5062 26.1538 10.3201C26.1558 10.134 26.1525 9.92238 26.1434 9.6868C26.1343 9.45072 26.116 9.2073 26.0886 8.95555C26.0612 8.7038 26.0201 8.47214 25.9653 8.26055C25.9105 8.04897 25.842 7.87362 25.7598 7.73599C25.6769 7.59788 25.5732 7.52637 25.4473 7.52049C25.356 7.51608 25.2692 7.55233 25.187 7.62873C25.1048 7.70514 25.0265 7.80799 24.9528 7.9368C24.8791 8.06611 24.8106 8.215 24.7466 8.38349C24.6827 8.55246 24.6246 8.72878 24.5731 8.91294C24.5209 9.0971 24.4733 9.28224 24.4296 9.46835C24.3859 9.65447 24.35 9.82785 24.3219 9.9885C24.2932 10.1491 24.2697 10.2912 24.2515 10.4146C24.2325 10.538 24.2208 10.6291 24.2162 10.6879C24.2097 10.7692 24.2032 10.877 24.1967 11.0107C24.1901 11.1444 24.1914 11.2894 24.2006 11.4451C24.2097 11.6009 24.2286 11.7591 24.2567 11.9187C24.2847 12.0789 24.3297 12.2239 24.3911 12.3541C24.4524 12.4844 24.5339 12.5932 24.6357 12.6794C24.7375 12.7656 24.8667 12.8126 25.0232 12.8199H25.0226Z" fill="var(--fill-0, #121212)"/>
</g>
<defs>
<filter id="filter0_d_0_56" x="1.68887e-10" y="0" width="40" height="31" filterUnits="userSpaceOnUse" color-interpolation-filters="sRGB">
<feFlood flood-opacity="0" result="BackgroundImageFix"/>
<feColorMatrix in="SourceAlpha" type="matrix" values="0 0 0 0 0 0 0 0 0 0 0 0 0 0 0 0 0 0 127 0" result="hardAlpha"/>
<feOffset dy="4"/>
<feGaussianBlur stdDeviation="4"/>
<feComposite in2="hardAlpha" operator="out"/>
<feColorMatrix type="matrix" values="0 0 0 0 0.0705882 0 0 0 0 0.0705882 0 0 0 0 0.0705882 0 0 0 0.6 0"/>
<feBlend mode="normal" in2="BackgroundImageFix" result="effect1_dropShadow_0_56"/>
<feBlend mode="normal" in="SourceGraphic" in2="effect1_dropShadow_0_56" result="shape"/>
</filter>
</defs>
</svg>
