<svg preserveAspectRatio="none" width="100%" height="100%" overflow="visible" style="display: block;" viewBox="0 0 16 22" fill="none" xmlns="http://www.w3.org/2000/svg">
<path id="Ellipse 13 (Stroke)" fill-rule="evenodd" clip-rule="evenodd" d="M8 4C5.79086 4 4 5.79086 4 8C4 10.2091 5.79086 12 8 12C10.2091 12 12 10.2091 12 8C12 5.79086 10.2091 4 8 4ZM0 8C0 3.58172 3.58172 0 8 0C12.4183 0 16 3.58172 16 8C16 11.7277 13.4505 14.8599 10 15.748V20C10 21.1046 9.10457 22 8 22C6.89543 22 6 21.1046 6 20V15.748C2.54955 14.8599 0 11.7277 0 8Z" fill="var(--fill-0, white)"/>
</svg>
