<svg preserveAspectRatio="none" width="100%" height="100%" overflow="visible" style="display: block;" viewBox="0 0 20 20" fill="none" xmlns="http://www.w3.org/2000/svg">
<g id="Social Media" clip-path="url(#clip0_0_100)">
<path id="Vector" fill-rule="evenodd" clip-rule="evenodd" d="M0.374896 8.1353C5.74359 5.79623 9.32357 4.25417 11.1148 3.50912C16.2292 1.38186 17.2919 1.01233 17.9846 1.00013C18.1369 0.997446 18.4776 1.0352 18.6982 1.21424C18.8845 1.36542 18.9358 1.56965 18.9603 1.71298C18.9848 1.85632 19.0154 2.18284 18.9911 2.43797C18.714 5.35003 17.5147 12.4168 16.9046 15.6784C16.6465 17.0585 16.1382 17.5212 15.6461 17.5665C14.5766 17.6649 13.7645 16.8597 12.7287 16.1807C11.1078 15.1182 10.1921 14.4568 8.61879 13.42C6.80053 12.2218 7.97923 11.5632 9.01545 10.4869C9.28663 10.2053 13.9987 5.91924 14.0899 5.53043C14.1013 5.48181 14.1119 5.30055 14.0042 5.20484C13.8965 5.10912 13.7376 5.14185 13.6229 5.16788C13.4604 5.20478 10.871 6.91626 5.85486 10.3023C5.11988 10.807 4.45416 11.0529 3.8577 11.04C3.20015 11.0258 1.93528 10.6682 0.994976 10.3626C-0.15834 9.98769 -1.07497 9.78948 -0.995155 9.15278C-0.953581 8.82115 -0.496897 8.48199 0.374896 8.1353Z" fill="var(--fill-0, white)"/>
</g>
<defs>
<clipPath id="clip0_0_100">
<rect width="20" height="20" fill="white"/>
</clipPath>
</defs>
</svg>
