<svg preserveAspectRatio="none" width="100%" height="100%" overflow="visible" style="display: block;" viewBox="0 0 20 20" fill="none" xmlns="http://www.w3.org/2000/svg">
<g id="Social Media">
<path id="Vector" fill-rule="evenodd" clip-rule="evenodd" d="M2.30615 8.8879C7.40641 6.62993 10.8074 5.14133 12.5091 4.42212C17.3677 2.36862 18.3773 2.0119 19.0354 2.00013C19.1801 1.99753 19.5037 2.03398 19.7133 2.20682C19.8903 2.35275 19.939 2.5499 19.9623 2.68826C19.9856 2.82663 20.0146 3.14183 19.9916 3.38811C19.7283 6.1992 18.589 13.021 18.0094 16.1694C17.7642 17.5017 17.2813 17.9484 16.8138 17.9921C15.7978 18.0871 15.0263 17.3098 14.0422 16.6543C12.5024 15.6287 11.6325 14.9902 10.1378 13.9893C8.4105 12.8327 9.53027 12.1969 10.5147 11.158C10.7723 10.8861 15.2488 6.74868 15.3354 6.37335C15.3463 6.32641 15.3563 6.15143 15.254 6.05904C15.1517 5.96664 15.0007 5.99824 14.8918 6.02337C14.7373 6.05898 12.2775 7.71112 7.51212 10.9798C6.81389 11.467 6.18145 11.7044 5.61481 11.6919C4.99014 11.6782 3.78851 11.333 2.89523 11.038C1.79958 10.676 0.928776 10.4847 1.0046 9.87009C1.0441 9.54996 1.47795 9.22256 2.30615 8.8879Z" fill="var(--fill-0, white)"/>
</g>
</svg>
