<svg preserveAspectRatio="none" width="100%" height="100%" overflow="visible" style="display: block;" viewBox="0 0 16 16" fill="none" xmlns="http://www.w3.org/2000/svg">
<g id="Wallet" clip-path="url(#clip0_0_82)">
<path id="Vector" d="M13.984 8.10057C13.8324 8.10057 13.6871 8.04037 13.5799 7.9332C13.4728 7.82604 13.4126 7.6807 13.4126 7.52914V5.88343C13.434 5.55961 13.3271 5.24037 13.1149 4.99482C12.9027 4.74927 12.6024 4.59716 12.2789 4.57143H2.39086C2.2393 4.57143 2.09396 4.51122 1.9868 4.40406C1.87963 4.2969 1.81943 4.15155 1.81943 4C1.81943 3.84845 1.87963 3.7031 1.9868 3.59594C2.09396 3.48878 2.2393 3.42857 2.39086 3.42857H12.2789C12.9066 3.45122 13.4998 3.72188 13.9282 4.18121C14.3567 4.64055 14.5856 5.25105 14.5646 5.87886V7.52457C14.5652 7.60077 14.5506 7.67633 14.5215 7.74679C14.4925 7.81725 14.4497 7.8812 14.3956 7.93487C14.3415 7.98854 14.2772 8.03085 14.2066 8.05931C14.1359 8.08776 14.0602 8.10179 13.984 8.10057Z" fill="var(--fill-0, white)"/>
<path id="Vector_2" d="M12.2789 15.3966H2.39086C1.76311 15.3739 1.16996 15.1033 0.741479 14.6439C0.312998 14.1846 0.0841591 13.5741 0.105143 12.9463V2.63314C0.105143 2.48159 0.165347 2.33625 0.27251 2.22908C0.379674 2.12192 0.525019 2.06171 0.676571 2.06171C0.828124 2.06171 0.973469 2.12192 1.08063 2.22908C1.1878 2.33625 1.248 2.48159 1.248 2.63314V12.9463C1.22659 13.2696 1.33367 13.5883 1.54596 13.8332C1.75825 14.078 2.0586 14.2291 2.38171 14.2537H12.2789C12.602 14.2291 12.9023 14.078 13.1146 13.8332C13.3269 13.5883 13.434 13.2696 13.4126 12.9463V11.7851C13.4126 11.6336 13.4728 11.4882 13.5799 11.3811C13.6871 11.2739 13.8324 11.2137 13.984 11.2137C14.1356 11.2137 14.2809 11.2739 14.3881 11.3811C14.4952 11.4882 14.5554 11.6336 14.5554 11.7851V12.9463C14.5765 13.5726 14.3489 14.1817 13.9223 14.6408C13.4958 15.0999 12.905 15.3716 12.2789 15.3966Z" fill="var(--fill-0, white)"/>
<path id="Vector_3" d="M12.0457 4.57143C11.8957 4.57145 11.7518 4.5125 11.6449 4.40731C11.5379 4.30211 11.4767 4.15911 11.4743 4.00914V2.74286C11.4636 2.47163 11.3461 2.21564 11.1474 2.03067C10.9487 1.84571 10.685 1.74677 10.4137 1.75543H2.18514C1.95187 1.74677 1.72467 1.83091 1.5533 1.98942C1.38193 2.14793 1.28037 2.3679 1.27086 2.60114C1.28037 2.83439 1.38193 3.05435 1.5533 3.21286C1.72467 3.37138 1.95187 3.45552 2.18514 3.44686H7.21371C7.36527 3.44686 7.51061 3.50706 7.61778 3.61422C7.72494 3.72139 7.78514 3.86673 7.78514 4.01829C7.78514 4.16984 7.72494 4.31518 7.61778 4.42235C7.51061 4.52951 7.36527 4.58971 7.21371 4.58971H2.17143C1.9051 4.59395 1.64054 4.5456 1.39292 4.44743C1.1453 4.34927 0.919483 4.20322 0.728393 4.01765C0.537303 3.83208 0.384699 3.61064 0.27932 3.366C0.173942 3.12137 0.11786 2.85834 0.114286 2.592C0.123904 2.05568 0.345911 1.54508 0.731584 1.17226C1.11726 0.799442 1.63509 0.594866 2.17143 0.603429H10.4C10.6863 0.59737 10.971 0.648003 11.2376 0.752413C11.5043 0.856823 11.7477 1.01295 11.9537 1.2118C12.1598 1.41065 12.3245 1.6483 12.4384 1.91106C12.5522 2.17383 12.613 2.45652 12.6171 2.74286V4.00914C12.6147 4.15911 12.5535 4.30211 12.4466 4.40731C12.3397 4.5125 12.1957 4.57145 12.0457 4.57143ZM14.3543 12.3429H11.1863C10.5675 12.3551 9.96911 12.1213 9.52256 11.6927C9.076 11.2642 8.81777 10.6759 8.80457 10.0571V9.22971C8.81777 8.61093 9.076 8.02268 9.52256 7.59412C9.96911 7.16557 10.5675 6.93175 11.1863 6.944H14.3863C14.5862 6.9446 14.784 6.98457 14.9685 7.06163C15.153 7.13868 15.3204 7.25132 15.4614 7.3931C15.6023 7.53488 15.7139 7.70303 15.7899 7.88795C15.8658 8.07288 15.9046 8.27095 15.904 8.47086V10.8434C15.8968 11.2476 15.7296 11.6324 15.4391 11.9135C15.1486 12.1946 14.7585 12.349 14.3543 12.3429ZM11.1863 8.09143C10.8713 8.07903 10.5642 8.19178 10.3321 8.40506C10.1 8.61834 9.96168 8.91481 9.94743 9.22971V10.08C9.96168 10.3949 10.1 10.6914 10.3321 10.9047C10.5642 11.1179 10.8713 11.2307 11.1863 11.2183H14.3543C14.4541 11.2183 14.55 11.1789 14.621 11.1088C14.692 11.0386 14.7325 10.9433 14.7337 10.8434V8.47086C14.731 8.37961 14.6933 8.2929 14.6286 8.22857C14.5943 8.19274 14.5531 8.16415 14.5076 8.14452C14.4621 8.12489 14.413 8.11461 14.3634 8.11429L11.1863 8.09143Z" fill="var(--fill-0, white)"/>
<path id="Vector_4" d="M11.5017 10.2263C11.8173 10.2263 12.0731 9.97045 12.0731 9.65486C12.0731 9.33927 11.8173 9.08343 11.5017 9.08343C11.1861 9.08343 10.9303 9.33927 10.9303 9.65486C10.9303 9.97045 11.1861 10.2263 11.5017 10.2263Z" fill="var(--fill-0, white)"/>
</g>
<defs>
<clipPath id="clip0_0_82">
<rect width="16" height="16" fill="white"/>
</clipPath>
</defs>
</svg>
