<svg width="24" height="24" viewBox="0 0 24 24" fill="none" xmlns="http://www.w3.org/2000/svg">
<path d="M22.3943 9.84498C22.2611 10.0395 22.2143 10.2737 22.1741 10.5169C22.1342 10.8106 22.0641 11.0995 21.9651 11.3788C21.8198 11.7726 21.5686 12.1187 21.2393 12.379C20.8464 11.3474 20.2776 10.3917 19.5582 9.55449C19.9593 9.4048 20.3932 9.3654 20.8147 9.44041C21.1113 9.49645 21.4017 9.58163 21.6816 9.69471C21.9188 9.78266 22.148 9.85906 22.3892 9.84549L22.3943 9.84498Z" fill="#F8B517"/>
<path d="M18.0013 5.56399C17.9867 5.79618 18.0681 6.02234 18.1561 6.25302C18.2716 6.52605 18.359 6.81013 18.4169 7.10087C18.4938 7.5126 18.4529 7.93768 18.2988 8.32715C17.4305 7.62254 16.4492 7.0701 15.3964 6.69328C15.6688 6.36594 16.0251 6.11889 16.4272 5.97862C16.7146 5.88303 17.0107 5.81571 17.3112 5.77759C17.5625 5.73839 17.8017 5.69165 18.0013 5.56299V5.56399Z" fill="#F8B517"/>
<path d="M21.7017 14.0585C22.1212 14.1238 22.5154 14.3007 22.8431 14.5707C23.0719 14.764 23.2807 14.9798 23.4663 15.215C23.6266 15.4064 23.7879 15.5859 24 15.6899H21.8465C21.8455 15.1429 21.7971 14.5971 21.7017 14.0585Z" fill="#F8B517"/>
<path d="M6.00025 5.56403C6.20128 5.69369 6.44 5.73942 6.69028 5.77812C6.99083 5.81601 7.28693 5.88335 7.57431 5.97915C7.97652 6.11892 8.33293 6.36586 8.6051 6.69331C7.55229 7.07042 6.57083 7.62283 5.70222 8.32719C5.54782 7.93777 5.50721 7.5125 5.58512 7.1009C5.64257 6.81004 5.72998 6.52591 5.84595 6.25306C5.93391 6.02489 6.01532 5.79873 6.00025 5.56403Z" fill="#F8B517"/>
<path d="M1.60825 9.84547C1.84697 9.86005 2.07916 9.78064 2.31638 9.6947C2.59723 9.58122 2.88864 9.49586 3.18633 9.43989C3.60783 9.36521 4.04162 9.4046 4.44277 9.55398C3.724 10.3916 3.15604 11.3476 2.76417 12.3795C2.43466 12.1195 2.18364 11.7733 2.03895 11.3793C1.93949 11.1002 1.86926 10.8115 1.82938 10.5179C1.78968 10.2742 1.74143 10.0405 1.60925 9.84598L1.60825 9.84547Z" fill="#F8B517"/>
<path d="M0 15.6899C0.214097 15.5859 0.375424 15.4064 0.533233 15.215C0.718706 14.98 0.927318 14.7644 1.15592 14.5712C1.48294 14.3007 1.87692 14.1236 2.29627 14.0585C2.20122 14.5971 2.15312 15.143 2.15253 15.6899H0Z" fill="#F8B517"/>
<path d="M12.001 4C12.1076 4.20857 12.2915 4.36638 12.4885 4.51966C12.7288 4.69896 12.9502 4.90221 13.1494 5.12627C13.4267 5.4429 13.6096 5.83105 13.6771 6.24651C12.5671 6.06106 11.4339 6.06106 10.3239 6.24651C10.3918 5.83108 10.5748 5.443 10.8521 5.12627C11.052 4.90376 11.2736 4.70173 11.5135 4.52318C11.71 4.36939 11.8945 4.21158 12.001 4.00503V4Z" fill="#F8B517"/>
<path d="M10.0012 15.6949H10.742C10.839 15.0858 10.6486 14.6164 10.0158 14.7285C9.48258 14.823 8.91015 15.3391 8.56387 15.6949L9.54038 15.6909C9.64944 15.6215 9.86203 15.5401 9.94998 15.6009C9.9655 15.6113 9.97827 15.6252 9.9872 15.6416C9.99613 15.658 10.0009 15.6763 10.0012 15.6949Z" fill="#D42837"/>
<path d="M13.3298 15.6899H14.2545C14.2983 14.6274 14.1209 13.5288 13.6148 12.5794C13.1534 11.715 12.391 11.128 11.4034 10.9858C9.96205 10.7787 8.50709 11.3758 7.27779 12.2236C5.93842 13.1499 4.83276 14.4073 3.86731 15.6914H5.08807C6.1867 14.1736 8.71516 11.8718 10.5747 11.8552C11.1672 11.8507 11.7698 11.9849 12.2156 12.3744C12.5382 12.6553 12.9293 13.2001 12.9102 13.6424C12.8986 13.9022 12.6589 13.9851 12.4307 13.9022C12.2528 13.8369 12.1292 13.6806 12.0025 13.5122C11.8074 13.2462 11.5432 13.0387 11.2385 12.9123C10.9338 12.7859 10.6003 12.7453 10.2741 12.795C9.44841 12.9061 8.42517 13.5308 7.76529 14.1017C7.20045 14.5926 6.67125 15.123 6.18167 15.6889H7.4944C7.97587 15.1235 8.48397 14.6415 9.13682 14.2445C9.3665 14.1028 9.61083 13.9864 9.86555 13.8972C10.54 13.671 11.2114 13.7283 11.5095 14.5465C11.6271 14.8682 11.6427 15.1496 11.61 15.6678V15.6884H12.5021V15.6622C12.4957 15.4108 12.5024 15.1591 12.5222 14.9084C12.5448 14.6666 12.6227 14.4159 12.8554 14.3887C13.3459 14.2882 13.3223 15.3511 13.3318 15.6919L13.3298 15.6899Z" fill="#D42837"/>
<path d="M15.228 15.6899H16.1613C16.206 14.7039 16.1191 13.5354 15.7919 12.5146C15.7285 12.3159 15.6541 12.1208 15.5693 11.9301C15.3677 11.4924 15.1038 11.0861 14.7858 10.724C14.4267 10.3062 14.0053 9.94648 13.5364 9.6575C13.3954 9.57139 13.2501 9.49255 13.1011 9.42129C12.9507 9.34971 12.7963 9.28662 12.6388 9.23232C10.824 8.60511 8.98855 9.05139 7.44916 9.86707C7.14762 10.0259 6.86065 10.1993 6.58272 10.3807C6.3048 10.5621 6.04899 10.7531 5.79971 10.9476C5.44025 11.2314 5.09946 11.5381 4.77948 11.8658C4.70912 11.9392 4.63826 12.0141 4.56991 12.09C4.38697 12.291 4.10301 12.5755 4.18845 12.869C4.25479 13.1016 4.56237 13.0333 4.66992 12.9529C4.84756 12.8523 5.01489 12.7344 5.16948 12.6011C5.37956 12.4282 5.57757 12.2422 5.78513 12.0668C6.55908 11.4024 7.42661 10.8554 8.35983 10.4435C8.54779 10.3631 8.73559 10.2907 8.92322 10.2264C9.11018 10.1616 9.29512 10.1073 9.47957 10.0611C11.0793 9.65549 12.8242 9.91834 13.9399 11.1919C15.0139 12.4186 15.2099 14.0601 15.2265 15.6914L15.228 15.6899ZM3.66879 14.3028C3.7798 14.1968 3.88277 14.0828 3.97687 13.9616C4.12764 13.7781 4.14121 13.6002 4.08241 13.4715C4.06057 13.4245 4.02846 13.3829 3.98843 13.3499C3.9494 13.3184 3.90367 13.2962 3.85474 13.2851C3.73362 13.258 3.58838 13.3002 3.46575 13.4459C3.32603 13.6113 3.13204 13.8927 3.09485 14.143C3.08734 14.1873 3.08582 14.2324 3.09032 14.2772C3.09441 14.3181 3.10635 14.3579 3.1255 14.3943C3.14026 14.4224 3.16256 14.4459 3.1899 14.462C3.21724 14.4782 3.24854 14.4864 3.2803 14.4857C3.29601 14.4873 3.31183 14.4873 3.32754 14.4857C3.34552 14.4842 3.36334 14.4812 3.38081 14.4767C3.48992 14.4439 3.58898 14.3841 3.66879 14.3028Z" fill="#D42837"/>
<path d="M17.5565 15.6904H17.5665C17.6396 15.6918 17.7118 15.6739 17.7758 15.6386C17.8398 15.6034 17.8935 15.5519 17.9314 15.4894C17.9526 15.4551 17.9695 15.4183 17.9817 15.3798C17.9953 15.3326 18.0037 15.2841 18.0068 15.2351V15.224C18.0807 12.7036 17.2881 10.6164 15.9402 9.19864C15.4232 8.6506 14.813 8.19879 14.138 7.8643H14.1324C12.9938 7.30913 11.7255 7.07457 10.4636 7.18582C9.97296 7.22629 9.48747 7.31501 9.0142 7.45068C7.71705 7.8256 6.51238 8.5659 5.52833 9.53838C5.33886 9.72936 5.15643 9.93039 4.98304 10.1314C4.89693 10.2319 4.81317 10.336 4.73175 10.4435C5.40894 9.86845 6.14671 9.3688 6.93203 8.95338C7.10592 8.86225 7.28081 8.77715 7.45672 8.69807C7.63262 8.619 7.8107 8.54496 7.99095 8.47593C8.64339 8.22474 9.32518 8.05771 10.0199 7.97889C10.6961 7.90611 11.379 7.923 12.0508 8.02915C12.5269 8.09987 12.9933 8.22499 13.4409 8.40206C13.5243 8.43556 13.6059 8.47141 13.6856 8.50961C13.7655 8.5478 13.8419 8.5865 13.9183 8.62872C15.4261 9.43284 16.4724 11.0813 16.9338 12.9438C17.1151 13.6755 17.2047 14.427 17.2007 15.1808V15.2019C17.2082 15.4029 17.2791 15.5728 17.4017 15.6487C17.4241 15.6632 17.4487 15.674 17.4746 15.6809C17.5022 15.6886 17.5308 15.6922 17.5595 15.6914L17.5565 15.6904Z" fill="#D42837"/>
<path d="M14.8617 7.28888C18.5842 8.48853 21.1037 11.8709 21.1197 15.6904H19.3265C19.4457 12.2694 17.9128 9.18108 14.8596 7.28888H14.8617Z" fill="#F8B517"/>
<path d="M4.34075 18.437H3.61554L3.43612 19.0526H2.85815L3.62307 16.695H4.35633L5.14286 19.0526H4.53977L4.34075 18.437ZM3.69846 18.0379H4.25431C4.10923 17.5776 4.01458 17.2618 3.97035 17.0906H3.96332L3.84823 17.5379L3.69746 18.0379H3.69846ZM7.0044 18.437H6.2822L6.10228 19.0526H5.52432L6.28874 16.695H7.0225L7.80853 19.0526H7.20594L7.0044 18.437ZM6.36161 18.0379H6.91846C6.77272 17.5776 6.67823 17.2618 6.63501 17.0906H6.62798L6.51339 17.5379L6.36261 18.0379H6.36161ZM8.35784 19.0431V16.7267C8.61258 16.6911 8.86958 16.6743 9.12678 16.6765C9.64309 16.6765 10.0133 16.7817 10.2375 16.9921C10.4616 17.2025 10.5727 17.4774 10.5707 17.8168C10.5707 18.2189 10.4432 18.5295 10.1882 18.7486C9.93325 18.9677 9.53889 19.0773 9.00516 19.0773C8.78887 19.0786 8.57271 19.0668 8.35784 19.0421V19.0431ZM8.91469 17.1122V18.6476C8.9813 18.6567 9.04854 18.6602 9.11573 18.6581C9.39164 18.6581 9.60624 18.5872 9.75751 18.4455C9.90879 18.3038 9.98418 18.1008 9.98418 17.8364C9.98418 17.5942 9.91784 17.4092 9.77711 17.2836C9.63639 17.1579 9.43989 17.0936 9.17704 17.0936C9.08764 17.0921 8.99829 17.099 8.91017 17.1142L8.91469 17.1122ZM11.1692 16.6961H11.7261V17.6052H12.6775V16.695H13.2338V19.0526H12.6775V18.0721H11.7261V19.0546H11.1692V16.6961ZM15.2517 18.438H14.5244L14.345 19.0536H13.7706L14.5345 16.695H15.2678L16.0543 19.0526H15.4547L15.2537 18.437L15.2517 18.438ZM14.6089 18.0389H15.1652C15.0195 17.5786 14.925 17.2628 14.8818 17.0916H14.8762L14.7617 17.5389L14.6109 18.0389H14.6089ZM17.9153 18.438H17.1881L17.0087 19.0536H16.4342L17.1986 16.6961H17.9324L18.7184 19.0536H18.1169L17.9158 18.438H17.9153ZM17.2725 18.0389H17.8294C17.6833 17.5786 17.5888 17.2628 17.5459 17.0916H17.5399L17.4253 17.5389L17.2745 18.0389H17.2725ZM19.2683 19.0536V16.7267C19.5165 16.6891 19.7675 16.6723 20.0186 16.6765C20.3851 16.6765 20.6485 16.7353 20.8087 16.8529C20.8874 16.9105 20.9506 16.9869 20.9925 17.0751C21.0345 17.1632 21.0538 17.2604 21.0489 17.3579C21.0498 17.4863 21.0073 17.6112 20.9283 17.7123C20.8485 17.8164 20.7392 17.8942 20.6147 17.9354V17.949C20.7654 18.0043 20.8743 18.1488 20.9413 18.3827C21.0646 18.8049 21.1316 19.0288 21.1424 19.0546H20.575C20.4984 18.8774 20.4413 18.6924 20.4046 18.5028C20.3876 18.3947 20.3416 18.2933 20.2714 18.2093C20.1938 18.1467 20.0948 18.1168 19.9955 18.1259H19.8226V19.0526L19.2683 19.0536ZM19.8176 17.0936V17.7429H20.0472C20.164 17.7495 20.2796 17.7172 20.3759 17.6509C20.4145 17.6227 20.4456 17.5854 20.4665 17.5424C20.4874 17.4994 20.4976 17.452 20.496 17.4042C20.4986 17.3583 20.4901 17.3124 20.4713 17.2704C20.4525 17.2285 20.424 17.1916 20.388 17.1629C20.2974 17.1012 20.1888 17.0715 20.0794 17.0785C19.9918 17.0751 19.904 17.081 19.8176 17.0961V17.0936Z" fill="#D42837"/>
</svg>
