<svg viewBox="0 0 12 12" width="12" height="12" fill="none" xmlns="http://www.w3.org/2000/svg">
  <g clip-path="url(#clip0_0_1)">
    <path
      fill="#FF4545"
      fill-rule="evenodd"
      clip-rule="evenodd"
      d="M2.587 2.499c.591-.591 1.1-1.1 1.563-1.459C4.643.658 5.19.36 5.87.331a3 3 0 0 1 .26 0c.679.03 1.227.327 1.72.71.504.39.956.844 1.404 1.297l.247.248c.591.592 1.1 1.1 1.459 1.563.382.494.68 1.042.709 1.72.004.087.004.174 0 .261-.03.678-.327 1.227-.71 1.72-.357.462-.867.972-1.458 1.563l-.247.249c-.448.452-.9.907-1.403 1.297-.494.382-1.042.68-1.72.71a2.994 2.994 0 0 1-.261 0c-.679-.03-1.227-.328-1.72-.71-.463-.358-.972-.867-1.563-1.458l-.25-.248c-.452-.449-.907-.9-1.296-1.403C.659 7.357.36 6.808.33 6.13a3 3 0 0 1 0-.26c.03-.679.328-1.227.71-1.721.39-.503.845-.954 1.297-1.403l.249-.247ZM7 7.999a1 1 0 1 1-2 0 1 1 0 0 1 2 0Zm0-4a1 1 0 1 0-2 0v1.5a1 1 0 0 0 2 0V4Z"
    />
  </g>
  <defs>
    <clipPath id="clip0_0_1">
      <rect width="12" height="12" fill="white"/>
    </clipPath>
  </defs>
</svg>
