<svg
  width="24"
  height="24"
  viewBox="0 0 24 24"
  fill="none"
  xmlns="http://www.w3.org/2000/svg"
>
  <g clip-path="url(#clip0)">
    <path
      fill="#63290D"
      fill-rule="evenodd"
      clip-rule="evenodd"
      d="M9 2a2 2 0 1 0-4 0v2.085c-.058.009-.114.02-.17.03A6 6 0 0 0 .114 8.83C0 9.415 0 10.071 0 10.832V14.132c0 1.773 0 3.3.164 4.524.177 1.31.574 2.567 1.593 3.587 1.02 1.019 2.276 1.417 3.587 1.593C6.568 24 8.095 24 9.868 24h4.264c1.773 0 3.3 0 4.524-.164 1.31-.176 2.567-.574 3.587-1.593 1.019-1.02 1.416-2.276 1.593-3.587.164-1.224.164-2.751.164-4.524V10.832c0-.761.001-1.417-.115-2.003A6 6 0 0 0 19 4.085V2a2 2 0 1 0-4 0v2H9V2Zm9.39 6.038C18.246 8.01 18.025 8 17 8H7c-1.025 0-1.246.01-1.39.038A2 2 0 0 0 4.038 9.61C4.01 9.754 4 9.975 4 11v3c0 1.942.004 3.198.129 4.123.116.867.305 1.139.457 1.291.152.152.424.34 1.291.457.925.125 2.18.129 4.123.129h4c1.942 0 3.198-.004 4.123-.129.867-.116 1.139-.304 1.291-.457.152-.152.34-.424.457-1.291.125-.925.129-2.18.129-4.123v-3c0-1.025-.01-1.246-.038-1.39a2 2 0 0 0-1.572-1.572ZM9 15a2 2 0 1 0 0-4 2 2 0 0 0 0 4Z"
    />
  </g>
  <defs>
    <clipPath id="clip0">
      <rect width="24" height="24" fill="#fff" />
    </clipPath>
  </defs>
</svg>
