<svg width="24" height="24" viewBox="0 0 24 24" fill="none" xmlns="http://www.w3.org/2000/svg">
<path fill-rule="evenodd" clip-rule="evenodd" d="M6.5 8C8.26324 8 9.72194 6.69615 9.96456 5H14.0354C14.2781 6.69615 15.7368 8 17.5 8H19C19.5523 8 20 8.44772 20 9V17C20 18.1046 19.1046 19 18 19H6C4.89543 19 4 18.1046 4 17V9C4 8.44772 4.44771 8 5 8H6.5ZM9.5 1C7.73676 1 6.27806 2.30385 6.03544 4H5C2.23858 4 0 6.23858 0 9V17C0 20.3137 2.68629 23 6 23H18C21.3137 23 24 20.3137 24 17V9C24 6.23858 21.7614 4 19 4H17.9646C17.7219 2.30385 16.2632 1 14.5 1H9.5ZM12 17C14.2091 17 16 15.2091 16 13C16 10.7909 14.2091 9 12 9C9.79086 9 8 10.7909 8 13C8 15.2091 9.79086 17 12 17Z" fill="#111111"/>
</svg>
