<svg width="24" height="24" viewBox="0 0 24 24" fill="none" xmlns="http://www.w3.org/2000/svg">
<g clip-path="url(#clip0_2102_1004)">
<path fill-rule="evenodd" clip-rule="evenodd" d="M12 24C18.6274 24 24 18.6274 24 12C24 5.37258 18.6274 0 12 0C5.37258 0 0 5.37258 0 12C0 18.6274 5.37258 24 12 24ZM9.41421 10.6464C8.63316 9.86539 7.36683 9.86539 6.58578 10.6464C5.80473 11.4275 5.80473 12.6938 6.58578 13.4749L9.41421 16.3033C10.1953 17.0843 11.4616 17.0843 12.2426 16.3033L17.1924 11.3535C17.9734 10.5725 17.9734 9.30617 17.1924 8.52512C16.4113 7.74407 15.145 7.74407 14.364 8.52512L10.8284 12.0607L9.41421 10.6464Z" fill="white"/>
</g>
<defs>
<clipPath id="clip0_2102_1004">
<rect width="24" height="24" fill="white"/>
</clipPath>
</defs>
</svg>
