<svg width="24" height="24" viewBox="0 0 24 24" fill="none" xmlns="http://www.w3.org/2000/svg">
<g clip-path="url(#clip0_2102_873)">
<path fill-rule="evenodd" clip-rule="evenodd" d="M16.064 1.08858e-06H15.936H15.9359C15.0587 -2.2298e-05 14.3017 -4.2475e-05 13.6752 0.042703C13.0156 0.0877111 12.3558 0.186719 11.7039 0.456727C10.2337 1.06569 9.06569 2.23373 8.45673 3.7039C8.41532 3.80387 8.37793 3.90402 8.34415 4.00433C7.20834 4.01459 6.20167 4.04904 5.34443 4.16429C4.03339 4.34056 2.77669 4.73805 1.75737 5.75737C0.738045 6.77669 0.340554 8.03339 0.164291 9.34443C-0.000180379 10.5677 -9.47791e-05 12.0954 4.87984e-06 13.8684L9.64821e-06 14L8.2177e-06 16.064L8.21683e-06 16.064C-1.63399e-05 16.9413 -3.75286e-05 17.6983 0.042709 18.3248C0.087717 18.9844 0.186725 19.6443 0.456733 20.2961C1.0657 21.7663 2.23374 22.9343 3.70391 23.5433C4.35577 23.8133 5.01559 23.9123 5.67524 23.9573C6.30174 24.0001 7.05868 24 7.93594 24H7.93603H10C12.6125 24 14.835 22.3304 15.6586 20C15.7497 20 15.8421 20 15.9359 20H15.936H16.064H16.0641C16.9413 20 17.6983 20 18.3248 19.9573C18.9844 19.9123 19.6442 19.8133 20.2961 19.5433C21.7663 18.9343 22.9343 17.7663 23.5433 16.2961C23.8133 15.6442 23.9123 14.9844 23.9573 14.3248C24 13.6983 24 12.9413 24 12.064V7.93602C24 7.05873 24 6.30175 23.9573 5.67524C23.9123 5.01558 23.8133 4.35576 23.5433 3.7039C22.9343 2.23373 21.7663 1.06569 20.2961 0.456727C19.6442 0.186719 18.9844 0.0877111 18.3248 0.042703C17.6983 -4.24749e-05 16.9413 -2.2298e-05 16.0641 1.08858e-06H16.064ZM11.4142 19.4142C10.0806 18.7774 9.02513 17.6683 8.45673 16.2961C8.18672 15.6442 8.08771 14.9844 8.0427 14.3248C7.99996 13.6983 7.99998 12.9413 8 12.064V12.064V8.00911C7.11863 8.02206 6.43747 8.05333 5.87742 8.12862C5.00994 8.24525 4.73804 8.43355 4.5858 8.5858C4.43355 8.73805 4.24525 9.00994 4.12862 9.87742C4.00426 10.8024 4.00001 12.0579 4.00001 14V16C4.00001 16.9593 4.00109 17.5785 4.03343 18.0525C4.06454 18.5085 4.11778 18.6821 4.15225 18.7654C4.35524 19.2554 4.74459 19.6448 5.23464 19.8478C5.31787 19.8822 5.49153 19.9355 5.94753 19.9666C6.42149 19.9989 7.04076 20 8.00001 20H10C10.5523 20 11.0523 19.7762 11.4142 19.4142ZM13.2346 4.15224C13.3179 4.11777 13.4915 4.06454 13.9475 4.03342C14.4215 4.00109 15.0408 4 16 4C16.9593 4 17.5785 4.00109 18.0525 4.03342C18.5085 4.06454 18.6821 4.11777 18.7654 4.15224C19.2554 4.35523 19.6448 4.74458 19.8478 5.23464C19.8822 5.31786 19.9355 5.49153 19.9666 5.94752C19.9989 6.42148 20 7.04076 20 8V12C20 12.9593 19.9989 13.5785 19.9666 14.0525C19.9355 14.5085 19.8822 14.6821 19.8478 14.7654C19.6448 15.2554 19.2554 15.6448 18.7654 15.8478C18.6821 15.8822 18.5085 15.9355 18.0525 15.9666C17.5785 15.9989 16.9593 16 16 16C15.0408 16 14.4215 15.9989 13.9475 15.9666C13.4915 15.9355 13.3179 15.8822 13.2346 15.8478C12.7446 15.6448 12.3552 15.2554 12.1522 14.7654C12.1178 14.6821 12.0645 14.5085 12.0334 14.0525C12.0011 13.5785 12 12.9593 12 12V8C12 7.04076 12.0011 6.42148 12.0334 5.94752C12.0645 5.49153 12.1178 5.31786 12.1522 5.23464C12.3552 4.74458 12.7446 4.35523 13.2346 4.15224Z" fill="#111111"/>
</g>
<defs>
<clipPath id="clip0_2102_873">
<rect width="24" height="24" fill="white"/>
</clipPath>
</defs>
</svg>
