<svg width="24" height="24" viewBox="0 0 24 24" fill="none" xmlns="http://www.w3.org/2000/svg">
<path fill-rule="evenodd" clip-rule="evenodd" d="M24 12C24 18.6274 18.6274 24 12 24C5.37258 24 0 18.6274 0 12C0 5.37258 5.37258 0 12 0C18.6274 0 24 5.37258 24 12ZM7.05025 7.05025C7.8313 6.2692 9.09763 6.2692 9.87868 7.05025L12 9.17159L14.1213 7.05026C14.9024 6.26922 16.1687 6.26922 16.9498 7.05026C17.7308 7.83131 17.7308 9.09764 16.9498 9.87869L14.8284 12L16.9497 14.1213C17.7308 14.9024 17.7308 16.1687 16.9497 16.9497C16.1687 17.7308 14.9024 17.7308 14.1213 16.9497L12 14.8284L9.87869 16.9498C9.09764 17.7308 7.83131 17.7308 7.05026 16.9498C6.26922 16.1687 6.26922 14.9024 7.05026 14.1213L9.17158 12L7.05025 9.87868C6.2692 9.09763 6.2692 7.8313 7.05025 7.05025Z" fill="#111111"/>
</svg>
