<svg width="24" height="24" viewBox="0 0 24 24" fill="none" xmlns="http://www.w3.org/2000/svg">
<g clip-path="url(#clip0_2102_826)">
<path fill-rule="evenodd" clip-rule="evenodd" d="M12.7279 2.41421C15.0711 0.0710678 18.8701 0.071068 21.2132 2.41421C23.5564 4.75736 23.5564 8.55635 21.2132 10.8995L13.0265 19.0862C12.9783 19.1344 12.9305 19.1823 12.8831 19.2298C12.1756 19.939 11.549 20.567 10.7586 20.99C9.96824 21.413 9.09808 21.586 8.11556 21.7813C8.04974 21.7944 7.98342 21.8076 7.91658 21.821L6.16242 22.1718C6.12867 22.1786 6.09469 22.1854 6.06052 22.1922C5.48669 22.3073 4.85825 22.4333 4.32718 22.4601C3.72511 22.4906 2.76215 22.4258 1.98188 21.6456C1.20162 20.8653 1.13685 19.9023 1.16731 19.3003C1.19417 18.7692 1.32017 18.1407 1.43522 17.5669C1.44207 17.5327 1.44889 17.4988 1.45564 17.465L1.80647 15.7109C1.81984 15.644 1.83302 15.5777 1.84611 15.5119C2.04143 14.5294 2.21443 13.6592 2.63742 12.8688C3.06042 12.0785 3.68847 11.4518 4.39763 10.7443C4.44514 10.6969 4.49301 10.6491 4.54121 10.601L12.7279 2.41421ZM18.3848 5.24264C17.6037 4.46159 16.3374 4.46159 15.5564 5.24264L18.3848 8.07107C19.1658 7.29002 19.1658 6.02369 18.3848 5.24264ZM15.5564 10.8995L12.7279 8.07107L7.36963 13.4294C6.43706 14.362 6.27173 14.5552 6.16412 14.7563C6.05651 14.9573 5.98744 15.2021 5.72879 16.4953L5.37796 18.2495L7.13212 17.8986C8.42537 17.64 8.67012 17.5709 8.87118 17.4633C9.07225 17.3557 9.26548 17.1904 10.1981 16.2578L15.5564 10.8995Z" fill="#111111"/>
</g>
<defs>
<clipPath id="clip0_2102_826">
<rect width="24" height="24" fill="white"/>
</clipPath>
</defs>
</svg>
