<svg width="24" height="24" viewBox="0 0 24 24" fill="none" xmlns="http://www.w3.org/2000/svg">
<path fill-rule="evenodd" clip-rule="evenodd" d="M6.00001 8C6.00001 6.89543 6.89544 6 8.00001 6H9.00001C10.1046 6 11 5.10457 11 4C11 2.89543 10.1046 2 9.00001 2H8.00001C4.6863 2 2.00001 4.68629 2.00001 8V12L2 12.1317C1.99991 13.9046 1.99982 15.4323 2.16429 16.6556C2.34055 17.9666 2.73804 19.2233 3.75737 20.2426C4.77669 21.262 6.03339 21.6595 7.34443 21.8357C8.56775 22.0002 10.0954 22.0001 11.8683 22L16 22C19.3137 22 22 19.3137 22 16V15C22 13.8954 21.1046 13 20 13C18.8954 13 18 13.8954 18 15V16C18 17.1046 17.1046 18 16 18H12C10.0579 18 8.80243 17.9958 7.87742 17.8714C7.00994 17.7548 6.73804 17.5665 6.5858 17.4142C6.43355 17.262 6.24525 16.9901 6.12862 16.1226C6.00426 15.1976 6.00001 13.9422 6.00001 12V8ZM15 2C13.8954 2 13 2.89543 13 4C13 5.10457 13.8954 6 15 6H15.1716L10.5858 10.5858C9.80474 11.3668 9.80474 12.6332 10.5858 13.4142C11.3668 14.1953 12.6332 14.1953 13.4142 13.4142L18 8.82843V9C18 10.1046 18.8954 11 20 11C21.1046 11 22 10.1046 22 9V4C22 2.89543 21.1046 2 20 2H15Z" fill="#111111"/>
</svg>
