<svg width="16" height="16" viewBox="0 0 16 16" fill="none" xmlns="http://www.w3.org/2000/svg">
<path d="M6.66602 8C7.40214 8.00018 7.99885 8.59689 7.99902 9.33301V10H13.999C14.7353 10 15.3319 10.5968 15.332 11.333C15.332 12.0694 14.7354 12.667 13.999 12.667H7.99902V13.333C7.99902 14.0693 7.40225 14.6668 6.66602 14.667C5.92964 14.667 5.33203 14.0694 5.33203 13.333V9.33301C5.33221 8.59678 5.92974 8 6.66602 8ZM2.66602 10C3.40214 10.0002 3.99885 10.5969 3.99902 11.333C3.99902 12.0693 3.40225 12.6668 2.66602 12.667H1.99902C1.26264 12.667 0.666016 12.0694 0.666016 11.333C0.666192 10.5968 1.26275 10 1.99902 10H2.66602ZM9.33203 1.33301C10.0684 1.33301 10.666 1.93061 10.666 2.66699V6.66699C10.6658 7.40322 10.0683 8 9.33203 8C8.59591 7.99982 7.9992 7.40311 7.99902 6.66699V6H1.99902C1.26275 6 0.666192 5.40322 0.666016 4.66699C0.666016 3.93061 1.26264 3.33301 1.99902 3.33301H7.99902V2.66699C7.99902 1.93072 8.5958 1.33318 9.33203 1.33301ZM13.999 3.33301C14.7354 3.33301 15.332 3.93061 15.332 4.66699C15.3319 5.40322 14.7353 6 13.999 6H13.332C12.5959 5.99982 11.9992 5.40311 11.999 4.66699C11.999 3.93072 12.5958 3.33318 13.332 3.33301H13.999Z" fill="#121212"/>
</svg>
