<svg width="16" height="16" viewBox="0 0 16 16" fill="none" xmlns="http://www.w3.org/2000/svg">
<g clip-path="url(#clip0_13679_4737)">
<path fill-rule="evenodd" clip-rule="evenodd" d="M8 16C12.4183 16 16 12.4183 16 8C16 3.58172 12.4183 0 8 0C3.58172 0 0 3.58172 0 8C0 12.4183 3.58172 16 8 16ZM8 7.33333C8.73638 7.33333 9.33333 7.93029 9.33333 8.66667V10.6667C9.33333 11.403 8.73638 12 8 12C7.26362 12 6.66667 11.403 6.66667 10.6667V8.66667C6.66667 7.93029 7.26362 7.33333 8 7.33333ZM8 6.66667C8.73638 6.66667 9.33333 6.06971 9.33333 5.33333C9.33333 4.59695 8.73638 4 8 4C7.26362 4 6.66667 4.59695 6.66667 5.33333C6.66667 6.06971 7.26362 6.66667 8 6.66667Z" fill="white" />
</g>
<defs>
<clipPath id="clip0_13679_4737">
<rect width="16" height="16" fill="white"/>
</clipPath>
</defs>
</svg>
