<svg width="24" height="24" fill="none" viewBox="0 0 24 24" xmlns="http://www.w3.org/2000/svg"> <g clip-path="url(#clip0)"> <path fill="#111" fill-rule="evenodd" d="M14 2a2 2 0 1 0-4 0v1.018A9.213 9.213 0 0 0 3.018 10H2a2 2 0 1 0 0 4h1.018A9.213 9.213 0 0 0 10 20.982V22a2 2 0 1 0 4 0v-1.018A9.212 9.212 0 0 0 20.982 14H22a2 2 0 1 0 0-4h-1.018A9.213 9.213 0 0 0 14 3.018V2ZM6.8 12a5.2 5.2 0 1 1 10.4 0 5.2 5.2 0 0 1-10.4 0Zm5.2 3a3 3 0 1 0 0-6 3 3 0 0 0 0 6Z" clip-rule="evenodd" /> </g> <defs> <clipPath id="clip0"> <rect width="24" height="24" fill="#fff"/> </clipPath> </defs> </svg>