<svg width="24" height="24" viewBox="0 0 24 24" fill="none" xmlns="http://www.w3.org/2000/svg">
<path fill-rule="evenodd" clip-rule="evenodd" d="M10.9854 3.2596C11.6124 3.61461 12 4.27946 12 5V19C12 19.7205 11.6124 20.3854 10.9854 20.7404C10.3584 21.0954 9.58887 21.0857 8.97101 20.715L4.44603 18H2C0.89543 18 0 17.1046 0 16V8C0 6.89543 0.89543 6 2 6H4.44603L8.97101 3.28501C9.58887 2.9143 10.3584 2.90459 10.9854 3.2596ZM8 8.53238L6.02899 9.71499C5.71816 9.90148 5.36249 10 5 10H4V14H5C5.36249 14 5.71816 14.0985 6.02899 14.285L8 15.4676V8.53238ZM14.5858 7.75736C15.3668 6.97631 16.6332 6.97631 17.4142 7.75736L18.8284 9.17157L20.2426 7.75736C21.0237 6.97631 22.29 6.97631 23.0711 7.75736C23.8521 8.5384 23.8521 9.80473 23.0711 10.5858L21.6569 12L23.0711 13.4142C23.8521 14.1953 23.8521 15.4616 23.0711 16.2426C22.29 17.0237 21.0237 17.0237 20.2426 16.2426L18.8284 14.8284L17.4142 16.2426C16.6332 17.0237 15.3668 17.0237 14.5858 16.2426C13.8047 15.4616 13.8047 14.1953 14.5858 13.4142L16 12L14.5858 10.5858C13.8047 9.80473 13.8047 8.5384 14.5858 7.75736Z" fill="#111111"/>
</svg>
