<svg width="24" height="24" viewBox="0 0 24 24" fill="none" xmlns="http://www.w3.org/2000/svg">
<path d="M22 11.436V8.71802V6H12.0868C4.12188 6 2.15623 6.04475 2.08634 6.22793C2.03838 6.3531 2.02102 7.55633 2.04797 8.90209L2.09685 11.3488L5.0291 11.3967L7.96136 11.4447L8.40035 10.6074C8.94395 9.57179 9.266 9.15654 9.52501 9.15654C9.6351 9.15654 9.7251 9.08757 9.7251 9.0026C9.7251 8.73628 11.4258 8.10452 12.1439 8.10452C13.6349 8.10452 15.8623 9.74582 15.8623 10.8444C15.8623 11.3912 16.1158 11.436 19.2084 11.436H22Z" fill="#63290D"/>
<path d="M13.7583 10.6097C13.7583 10.5073 13.4897 10.2967 13.1617 10.141C10.4596 8.85871 8.38939 12.6114 10.8895 14.26C12.7684 15.4984 15.5302 12.753 14.0506 11.1176C13.8898 10.9404 13.7583 10.7115 13.7583 10.6097Z" fill="#63290D"/>
<path d="M12.0809 16.3426C10.5094 16.3353 8.77174 15.1654 8.32589 13.8151L8.11942 13.1897H5.0597H2L2.04842 15.7762L2.09685 18.3631L12.0484 18.4083L22 18.4535V15.8218V13.1897H18.9312H15.8623V13.716C15.8623 14.842 13.692 16.3495 12.0809 16.3426Z" fill="#63290D"/>
</svg>
