<svg width="24" height="24" viewBox="0 0 24 24" fill="none" xmlns="http://www.w3.org/2000/svg">
<path d="M10.1218 12.5407C11.1222 12.3788 12.1027 12.9978 12.3708 13.9977C12.6566 15.0646 12.0235 16.162 10.9568 16.4479L10.7038 16.5153C10.7972 16.5557 10.8918 16.5947 10.988 16.6296C11.6496 16.8696 12.3573 16.9726 13.0632 16.9313C13.769 16.89 14.4553 16.7048 15.0769 16.3913C15.6982 16.0778 16.2408 15.6439 16.6706 15.1198L16.8083 14.9675C17.527 14.2531 18.6845 14.185 19.4851 14.8415C20.3387 15.5419 20.4635 16.802 19.7634 17.6559L19.4587 18.0075C18.7273 18.8091 17.852 19.4721 16.8776 19.9635C15.7644 20.5249 14.5441 20.8514 13.2966 20.9245C12.049 20.9975 10.7977 20.8153 9.62375 20.3893C9.41095 20.3121 9.20259 20.224 8.9968 20.1315L9.00071 20.1442L9.04368 20.3444C9.2055 21.3448 8.58661 22.3253 7.58665 22.5934C6.58641 22.8613 5.5598 22.3214 5.19993 21.3737L5.13743 21.1794L3.82689 16.2878C3.54101 15.2209 4.17406 14.1245 5.24095 13.8386L9.9216 12.5837L10.1218 12.5407ZM16.4138 1.40696C17.4806 1.12128 18.5771 1.75419 18.863 2.82101L20.1735 7.7126C20.4593 8.77939 19.8262 9.87585 18.7595 10.1618L14.0788 11.4157C13.0119 11.7016 11.9155 11.0685 11.6296 10.0017C11.3438 8.93477 11.9768 7.83832 13.0437 7.55245L13.2966 7.48409C13.2033 7.44379 13.1085 7.40567 13.0124 7.37081C12.3508 7.13074 11.6431 7.02778 10.9372 7.06905C10.2314 7.11037 9.54517 7.29465 8.92356 7.60811C8.30205 7.92155 7.75971 8.35635 7.32981 8.88057L5.78392 7.61202L4.23705 6.34444C5.02496 5.38363 6.00923 4.59841 7.12278 4.03683C8.23613 3.47542 9.45619 3.1489 10.7038 3.0759C11.9515 3.00294 13.2027 3.18508 14.3767 3.61105C14.5889 3.68809 14.7974 3.77471 15.0026 3.86691L14.9997 3.85617L14.9567 3.65597C14.7947 2.65533 15.4135 1.67497 16.4138 1.40696ZM7.32981 8.88057C6.62943 9.73444 5.36941 9.85907 4.51537 9.15889C3.66145 8.45853 3.53689 7.19851 4.23705 6.34444L7.32981 8.88057Z" fill="#111111"/>
</svg>
