<svg width="24" height="24" viewBox="0 0 24 24" fill="none" xmlns="http://www.w3.org/2000/svg">
<g clip-path="url(#clip0_8585_7172)">
<path fill-rule="evenodd" clip-rule="evenodd" d="M7.65691 7.17157C6.09482 8.73367 6.09482 11.2663 7.65691 12.8284C9.21901 14.3905 11.7517 14.3905 13.3138 12.8284C14.8759 11.2663 14.8759 8.73367 13.3138 7.17157C11.7517 5.60948 9.21901 5.60948 7.65691 7.17157ZM4.82849 15.6569C1.70429 12.5327 1.70429 7.46734 4.82849 4.34315C7.95268 1.21895 13.018 1.21895 16.1422 4.34315C18.7781 6.97901 19.1901 10.9966 17.3782 14.0644L20.3848 17.0711C21.1659 17.8521 21.1659 19.1184 20.3848 19.8995C19.6038 20.6805 18.3375 20.6805 17.5564 19.8995L14.5498 16.8929C11.482 18.7047 7.46435 18.2927 4.82849 15.6569Z" fill="#121212" fill-opacity="0.44"/>
</g>
<defs>
<clipPath id="clip0_8585_7172">
<rect width="24" height="24" fill="white"/>
</clipPath>
</defs>
</svg>
