<svg width="24" height="24" viewBox="0 0 24 24" fill="none" xmlns="http://www.w3.org/2000/svg">
<g clip-path="url(#clip0_5277_7718)">
<path fill-rule="evenodd" clip-rule="evenodd" d="M17.0527 2.82888C14.6719 -0.942959 9.12063 -0.942961 6.73981 2.82888C2.35302 3.09048 -0.373504 7.8303 1.71636 11.7851L1.82992 12L1.71636 12.2149C-0.373507 16.1697 2.35302 20.9095 6.73981 21.1711C9.12064 24.943 14.6719 24.943 17.0527 21.1711C21.4395 20.9095 24.166 16.1697 22.0762 12.2149L21.9626 12L22.0762 11.7851C24.166 7.83029 21.4395 3.09048 17.0527 2.82888ZM17.354 12L18.4736 9.88136C19.1888 8.52798 18.2118 6.8988 16.6811 6.8922L14.6252 6.88333L13.6902 5.14635C12.9211 3.7174 10.8714 3.71739 10.1023 5.14635L9.16738 6.88333L7.11141 6.8922C5.5807 6.8988 4.60374 8.52798 5.31892 9.88136L6.43849 12L5.31892 14.1186C4.60374 15.472 5.5807 17.1012 7.11141 17.1078L9.16738 17.1167L10.1023 18.8536C10.8714 20.2826 12.9211 20.2826 13.6902 18.8536L14.6252 17.1167L16.6811 17.1078C18.2118 17.1012 19.1888 15.472 18.4736 14.1186L17.354 12Z" fill="#111111"/>
<path d="M14.9523 12C14.9523 13.6878 13.5841 15.056 11.8963 15.056C10.2085 15.056 8.84033 13.6878 8.84033 12C8.84033 10.3122 10.2085 8.94403 11.8963 8.94403C13.5841 8.94403 14.9523 10.3122 14.9523 12Z" fill="#111111"/>
</g>
<defs>
<clipPath id="clip0_5277_7718">
<rect width="24" height="24" fill="white"/>
</clipPath>
</defs>
</svg>
