<svg width="24" height="24" viewBox="0 0 24 24" fill="none" xmlns="http://www.w3.org/2000/svg">
<path d="M16 2C18.2091 2 20 3.79086 20 6C20 8.20914 18.2091 10 16 10C15.3669 10 14.7684 9.85264 14.2363 9.59082L11.9951 11.832C11.9974 11.8878 12 11.9437 12 12C12 12.056 11.9974 12.1116 11.9951 12.167L14.2363 14.4082C14.7683 14.1465 15.3671 14 16 14C18.2091 14 20 15.7909 20 18C20 20.2091 18.2091 22 16 22C13.7909 22 12 20.2091 12 18C12 17.9437 12.0016 17.8877 12.0039 17.832L9.7627 15.5908C9.23083 15.8524 8.63274 16 8 16C5.79086 16 4 14.2091 4 12C4 9.79086 5.79086 8 8 8C8.63228 8 9.23015 8.14698 9.76172 8.4082L12.0039 6.16699C12.0016 6.1116 12 6.05595 12 6C12 3.79086 13.7909 2 16 2Z" fill="#111111"/>
</svg>
