<svg width="40" height="40" viewBox="0 0 40 40" fill="none" xmlns="http://www.w3.org/2000/svg">
<path d="M18.6572 4.42501C19.6547 2.9695 21.8028 2.9695 22.8003 4.42501L27.3094 11.0043C27.6359 11.4807 28.1167 11.8301 28.6708 11.9934L36.3214 14.2487C38.014 14.7476 38.6777 16.7905 37.6017 18.189L32.7378 24.5105C32.3856 24.9683 32.2019 25.5335 32.2178 26.1109L32.4371 34.084C32.4856 35.8479 30.7478 37.1105 29.0853 36.5193L21.5702 33.8469C21.0259 33.6534 20.4316 33.6534 19.8873 33.8469L12.3722 36.5193C10.7097 37.1105 8.97191 35.8479 9.02042 34.084L9.23971 26.1109C9.25559 25.5335 9.07193 24.9683 8.71968 24.5105L3.85581 18.189C2.77979 16.7905 3.44357 14.7476 5.13609 14.2487L12.7867 11.9934C13.3408 11.8301 13.8216 11.4807 14.1482 11.0043L18.6572 4.42501Z" fill="#111111"/>
</svg>
