<svg width="24" height="24" viewBox="0 0 24 24" fill="none" xmlns="http://www.w3.org/2000/svg">
<path d="M13.9126 16.9111C13.8269 17.2952 13.5829 17.6202 13.2522 17.8153L7.35277 20.972C7.31156 20.99 7.266 21 7.21809 21C7.0335 21 6.88383 20.8514 6.88383 20.6681C6.88383 20.6461 6.88598 20.6246 6.89011 20.6038L6.89058 20.6014L6.89072 20.6008L6.89081 20.6003L6.89119 20.5985L6.89166 20.5964L6.89208 20.5945L7.79395 16.3552C7.79419 16.3545 7.79428 16.3538 7.79442 16.3531L7.79452 16.3527C7.79461 16.3522 7.7947 16.3516 7.79484 16.351C7.79944 16.3339 7.80319 16.3163 7.80605 16.2985C7.8105 16.2708 7.8128 16.2424 7.8128 16.2134C7.8128 15.9175 7.57186 15.6776 7.27425 15.6764H7.27195H7.2697H4.34392C3.86058 15.6764 3.46875 15.2873 3.46875 14.8073C3.46875 14.4883 3.64183 14.2095 3.89983 14.0583L12.6248 9.39136H9.94242C9.64373 9.39136 9.40158 9.15094 9.40158 8.85436C9.40158 8.82122 9.40463 8.78883 9.41039 8.75738L9.77025 7.06584C9.85889 6.69989 10.0917 6.38967 10.4056 6.19772L16.3203 3.03211C16.3639 3.01152 16.4125 3 16.464 3C16.6485 3 16.7982 3.1486 16.7982 3.33192C16.7982 3.33562 16.7982 3.3393 16.798 3.34298C16.7979 3.34525 16.7978 3.34753 16.7977 3.34979L15.9298 7.42973C15.9119 7.47773 15.9007 7.52892 15.8973 7.58222C15.8966 7.59347 15.8962 7.60481 15.8962 7.61625C15.8962 7.62436 15.8964 7.63247 15.8968 7.64048C15.9096 7.92586 16.1466 8.1533 16.437 8.1533H19.659C20.141 8.15484 20.5312 8.54334 20.5312 9.02231C20.5312 9.34852 20.3503 9.63272 20.0826 9.78136L11.7896 14.2172H13.819C14.1177 14.2172 14.3598 14.4577 14.3598 14.7542C14.3598 14.7858 14.3571 14.8167 14.3518 14.8467L13.9126 16.9111Z" fill="black"/>
<path d="M4.32794 7.71411L5.59139 8.13233L6.85481 7.71411L6.43369 8.96867L6.85481 10.2233L5.59139 9.80511L4.32794 10.2233L4.7491 8.96867L4.32794 7.71411Z" fill="black"/>
<path d="M16.2361 13.2474L18.0523 13.9688L19.8685 13.2474L19.142 15.0509L19.8685 16.8544L18.0523 16.133L16.2361 16.8544L16.9626 15.0509L16.2361 13.2474Z" fill="black"/>
</svg>
