<svg width="24" height="24" viewBox="0 0 24 24" fill="none" xmlns="http://www.w3.org/2000/svg">
<path fill-rule="evenodd" clip-rule="evenodd" d="M10.9854 3.2596C11.6124 3.61461 12 4.27946 12 5V19C12 19.7205 11.6124 20.3854 10.9854 20.7404C10.3584 21.0954 9.58887 21.0857 8.97101 20.715L4.44603 18H2C0.89543 18 0 17.1046 0 16V8C0 6.89543 0.89543 6 2 6H4.44603L8.97101 3.28501C9.58887 2.9143 10.3584 2.90459 10.9854 3.2596ZM8 8.53238L6.02899 9.71499C5.71816 9.90148 5.36249 10 5 10H4V14H5C5.36249 14 5.71816 14.0985 6.02899 14.285L8 15.4676V8.53238ZM16 8C17.1046 8 18 8.89543 18 10V14C18 15.1046 17.1046 16 16 16C14.8954 16 14 15.1046 14 14V10C14 8.89543 14.8954 8 16 8ZM24 8C24 6.89543 23.1046 6 22 6C20.8954 6 20 6.89543 20 8V16C20 17.1046 20.8954 18 22 18C23.1046 18 24 17.1046 24 16V8Z" fill="#111111"/>
</svg>
