<svg width="704" height="26" fill="none" xmlns="http://www.w3.org/2000/svg">
  <path
    fill="#fff"
    d="M0 7.822S8.352 0 18.089 0C27.826 0 34.263 7.822 44 7.822 53.737 7.822 56.263 0 66 0s12.263 7.822 22 7.822S100.263 0 110 0s12.263 7.822 22 7.822S144.263 0 154 0s12.263 7.822 22 7.822S188.263 0 198 0s12.263 7.822 22 7.822S232.263 0 242 0s12.263 7.822 22 7.822S276.263 0 286 0s12.263 7.822 22 7.822S320.263 0 330 0s12.263 7.822 22 7.822S364.263 0 374 0s12.263 7.822 22 7.822S408.263 0 418 0s12.263 7.822 22 7.822S452.263 0 462 0s12.263 7.822 22 7.822S496.263 0 506 0s12.263 7.822 22 7.822S540.263 0 550 0s12.263 7.822 22 7.822S584.263 0 594 0s12.263 7.822 22 7.822S628.263 0 638 0s12.263 7.822 22 7.822S676.174 0 685.911 0C695.648 0 704 7.822 704 7.822v17.6H0v-17.6Z"
  />
</svg>
