<svg width="24" height="24" viewBox="0 0 24 24" fill="none" xmlns="http://www.w3.org/2000/svg">
<g filter="url(#filter0_i_5030_2908)">
<path d="M16.9378 4H19.64L13.7378 10.7911L20.7067 20H15.2311L10.9644 14.4178L6.05778 20H3.35556L9.68444 12.7467L3 4H8.61778L12.4933 9.12L16.9378 4ZM15.9778 18.3644H17.4711L7.8 5.52889H6.16444L15.9778 18.3644Z" fill="url(#paint0_linear_5030_2908)"/>
<path d="M16.9378 4H19.64L13.7378 10.7911L20.7067 20H15.2311L10.9644 14.4178L6.05778 20H3.35556L9.68444 12.7467L3 4H8.61778L12.4933 9.12L16.9378 4ZM15.9778 18.3644H17.4711L7.8 5.52889H6.16444L15.9778 18.3644Z" fill="url(#paint1_radial_5030_2908)"/>
<path d="M16.9378 4H19.64L13.7378 10.7911L20.7067 20H15.2311L10.9644 14.4178L6.05778 20H3.35556L9.68444 12.7467L3 4H8.61778L12.4933 9.12L16.9378 4ZM15.9778 18.3644H17.4711L7.8 5.52889H6.16444L15.9778 18.3644Z" fill="url(#paint2_radial_5030_2908)"/>
<path d="M16.9378 4H19.64L13.7378 10.7911L20.7067 20H15.2311L10.9644 14.4178L6.05778 20H3.35556L9.68444 12.7467L3 4H8.61778L12.4933 9.12L16.9378 4ZM15.9778 18.3644H17.4711L7.8 5.52889H6.16444L15.9778 18.3644Z" fill="url(#paint3_radial_5030_2908)"/>
<path d="M16.9378 4H19.64L13.7378 10.7911L20.7067 20H15.2311L10.9644 14.4178L6.05778 20H3.35556L9.68444 12.7467L3 4H8.61778L12.4933 9.12L16.9378 4ZM15.9778 18.3644H17.4711L7.8 5.52889H6.16444L15.9778 18.3644Z" fill="url(#paint4_radial_5030_2908)"/>
<path d="M16.9378 4H19.64L13.7378 10.7911L20.7067 20H15.2311L10.9644 14.4178L6.05778 20H3.35556L9.68444 12.7467L3 4H8.61778L12.4933 9.12L16.9378 4ZM15.9778 18.3644H17.4711L7.8 5.52889H6.16444L15.9778 18.3644Z" fill="url(#paint5_radial_5030_2908)"/>
<path d="M16.9378 4H19.64L13.7378 10.7911L20.7067 20H15.2311L10.9644 14.4178L6.05778 20H3.35556L9.68444 12.7467L3 4H8.61778L12.4933 9.12L16.9378 4ZM15.9778 18.3644H17.4711L7.8 5.52889H6.16444L15.9778 18.3644Z" fill="url(#paint6_radial_5030_2908)"/>
<path d="M16.9378 4H19.64L13.7378 10.7911L20.7067 20H15.2311L10.9644 14.4178L6.05778 20H3.35556L9.68444 12.7467L3 4H8.61778L12.4933 9.12L16.9378 4ZM15.9778 18.3644H17.4711L7.8 5.52889H6.16444L15.9778 18.3644Z" fill="url(#paint7_radial_5030_2908)"/>
<path d="M16.9378 4H19.64L13.7378 10.7911L20.7067 20H15.2311L10.9644 14.4178L6.05778 20H3.35556L9.68444 12.7467L3 4H8.61778L12.4933 9.12L16.9378 4ZM15.9778 18.3644H17.4711L7.8 5.52889H6.16444L15.9778 18.3644Z" fill="url(#paint8_radial_5030_2908)"/>
<path d="M16.9378 4H19.64L13.7378 10.7911L20.7067 20H15.2311L10.9644 14.4178L6.05778 20H3.35556L9.68444 12.7467L3 4H8.61778L12.4933 9.12L16.9378 4ZM15.9778 18.3644H17.4711L7.8 5.52889H6.16444L15.9778 18.3644Z" fill="url(#paint9_radial_5030_2908)"/>
<path d="M16.9378 4H19.64L13.7378 10.7911L20.7067 20H15.2311L10.9644 14.4178L6.05778 20H3.35556L9.68444 12.7467L3 4H8.61778L12.4933 9.12L16.9378 4ZM15.9778 18.3644H17.4711L7.8 5.52889H6.16444L15.9778 18.3644Z" fill="url(#paint10_radial_5030_2908)"/>
</g>
<defs>
<filter id="filter0_i_5030_2908" x="3" y="3.25" width="17.9567" height="16.75" filterUnits="userSpaceOnUse" color-interpolation-filters="sRGB">
<feFlood flood-opacity="0" result="BackgroundImageFix"/>
<feBlend mode="normal" in="SourceGraphic" in2="BackgroundImageFix" result="shape"/>
<feColorMatrix in="SourceAlpha" type="matrix" values="0 0 0 0 0 0 0 0 0 0 0 0 0 0 0 0 0 0 127 0" result="hardAlpha"/>
<feOffset dx="0.25" dy="-0.75"/>
<feGaussianBlur stdDeviation="0.75"/>
<feComposite in2="hardAlpha" operator="arithmetic" k2="-1" k3="1"/>
<feColorMatrix type="matrix" values="0 0 0 0 0.121569 0 0 0 0 0.0705882 0 0 0 0 0.164706 0 0 0 1 0"/>
<feBlend mode="normal" in2="shape" result="effect1_innerShadow_5030_2908"/>
</filter>
<linearGradient id="paint0_linear_5030_2908" x1="17.3868" y1="5.67859" x2="10.5525" y2="19.6873" gradientUnits="userSpaceOnUse">
<stop stop-color="#393134"/>
<stop offset="1" stop-color="#1A1718"/>
</linearGradient>
<radialGradient id="paint1_radial_5030_2908" cx="0" cy="0" r="1" gradientUnits="userSpaceOnUse" gradientTransform="translate(11.4977 15.75) rotate(98.3329) scale(4.90897 6.76026)">
<stop offset="0.590551" stop-color="#171418"/>
<stop offset="1" stop-color="#171418" stop-opacity="0"/>
</radialGradient>
<radialGradient id="paint2_radial_5030_2908" cx="0" cy="0" r="1" gradientUnits="userSpaceOnUse" gradientTransform="translate(8.17771 16.0357) rotate(148.642) scale(3.98058 5.01364)">
<stop offset="0.258378" stop-color="#181518"/>
<stop offset="1" stop-color="#181518" stop-opacity="0"/>
</radialGradient>
<radialGradient id="paint3_radial_5030_2908" cx="0" cy="0" r="1" gradientUnits="userSpaceOnUse" gradientTransform="translate(6.14224 13.3214) rotate(130.24) scale(2.38613 1.8724)">
<stop offset="0.333546" stop-color="#040101"/>
<stop offset="1" stop-color="#040101" stop-opacity="0"/>
</radialGradient>
<radialGradient id="paint4_radial_5030_2908" cx="0" cy="0" r="1" gradientUnits="userSpaceOnUse" gradientTransform="translate(6.67571 11.1607) rotate(124.07) scale(2.71624 1.99552)">
<stop offset="0.320588" stop-color="#040002"/>
<stop offset="1" stop-color="#040002" stop-opacity="0"/>
</radialGradient>
<radialGradient id="paint5_radial_5030_2908" cx="0" cy="0" r="1" gradientUnits="userSpaceOnUse" gradientTransform="translate(7.70333 4.50002) rotate(59.813) scale(3.22275 4.7212)">
<stop stop-color="#474445"/>
<stop offset="1" stop-color="#474445" stop-opacity="0"/>
</radialGradient>
<radialGradient id="paint6_radial_5030_2908" cx="0" cy="0" r="1" gradientUnits="userSpaceOnUse" gradientTransform="translate(18.7305 6.7143) rotate(137.897) scale(2.29052 3.18461)">
<stop stop-color="#4A4446"/>
<stop offset="1" stop-color="#4A4446" stop-opacity="0"/>
</radialGradient>
<radialGradient id="paint7_radial_5030_2908" cx="0" cy="0" r="1" gradientUnits="userSpaceOnUse" gradientTransform="translate(20.7067 12.1786) rotate(165.271) scale(2.24757 4.29688)">
<stop stop-color="#3B3638"/>
<stop offset="1" stop-color="#3B3638" stop-opacity="0"/>
</radialGradient>
<radialGradient id="paint8_radial_5030_2908" cx="0" cy="0" r="1" gradientUnits="userSpaceOnUse" gradientTransform="translate(19.9952 15.8214) rotate(167.27) scale(3.40357 3.96049)">
<stop stop-color="#464444"/>
<stop offset="1" stop-color="#464444" stop-opacity="0"/>
</radialGradient>
<radialGradient id="paint9_radial_5030_2908" cx="0" cy="0" r="1" gradientUnits="userSpaceOnUse" gradientTransform="translate(17.4332 9.58545) rotate(-110.69) scale(3.01819 2.58134)">
<stop stop-color="#575455"/>
<stop offset="1" stop-color="#575455" stop-opacity="0"/>
</radialGradient>
<radialGradient id="paint10_radial_5030_2908" cx="0" cy="0" r="1" gradientUnits="userSpaceOnUse" gradientTransform="translate(4.61195 12.1401) rotate(5.41458) scale(1.78109 2.61295)">
<stop stop-color="#413733"/>
<stop offset="1" stop-color="#413733" stop-opacity="0"/>
</radialGradient>
</defs>
</svg>
