<svg width="200" height="200" viewBox="0 0 200 200" fill="none" xmlns="http://www.w3.org/2000/svg">
<path fill-rule="evenodd" clip-rule="evenodd" d="M157.577 141.377C180.814 128.657 191.274 102.834 181.32 78.5787C171.68 55.0887 143.401 44.2864 123.048 49.74C102.695 55.1936 84.2209 88.2069 94.2578 113.69C104.148 138.8 134.341 154.097 157.577 141.377ZM135.386 84.7276C141.238 82.9365 148.814 87.8173 149.413 96.166C149.927 103.325 141.486 105.721 135.386 104.744C132.211 98.3856 132.816 90.4503 135.386 84.7276Z" fill="#EEEEEE"/>
<path fill-rule="evenodd" clip-rule="evenodd" d="M155.012 55.9031C144.707 51.1832 133.231 49.9693 123.787 52.4998C114.69 54.9375 105.52 63.7717 99.8249 75.4558C94.1613 87.0746 92.2697 100.846 96.9161 112.643C101.579 124.48 111.055 134.044 122.106 139.124C133.139 144.195 145.527 144.716 156.205 138.87C178.293 126.779 188.025 102.442 178.677 79.6634C174.178 68.7016 165.292 60.6115 155.012 55.9031ZM157.391 50.7078C168.749 55.9097 178.822 64.9656 183.963 77.4939C194.523 103.226 183.334 130.534 158.949 143.883C146.391 150.757 132.064 149.99 119.719 144.316C107.392 138.649 96.8272 128.01 91.5994 114.737C86.2089 101.051 88.5358 85.5739 94.6883 72.952C100.809 60.3953 111.053 49.9961 122.308 46.9802C133.218 44.057 146.059 45.5175 157.391 50.7078ZM143.012 75.4916C144.019 76.7063 143.851 78.5075 142.636 79.5147C141.967 80.07 141.223 80.8223 140.485 81.7588C146.429 83.0074 151.728 88.5184 152.263 95.9614C152.624 100.999 149.696 104.333 146.133 106.074C142.703 107.749 138.454 108.129 134.934 107.566C134.025 107.42 133.241 106.845 132.83 106.021C129.196 98.7432 129.935 89.8923 132.78 83.5572C134.471 79.7898 136.829 76.9072 138.989 75.1158C140.204 74.1086 142.005 74.2768 143.012 75.4916ZM137.448 87.2391C135.805 91.7385 135.503 97.3538 137.329 102.077C139.522 102.187 141.849 101.807 143.626 100.939C145.68 99.9356 146.715 98.4927 146.563 96.3706C146.124 90.2579 141.219 86.9883 137.448 87.2391Z" fill="white"/>
<path d="M99.4201 56.8872C79.8717 32.2162 9.11066 49.7813 10.4498 81.1155C11.5641 107.189 54.2358 92.8479 54.2358 92.8479C54.2358 92.8479 20.6054 134.609 41.0771 158.947C66.6667 189.369 152.747 157.937 135.878 121.954C125.554 99.9338 93.3164 116.538 93.3164 116.538C93.3164 116.538 112.177 72.9868 99.4201 56.8872Z" fill="#EEEEEE"/>
<path fill-rule="evenodd" clip-rule="evenodd" d="M22.8746 62.8295C16.5275 68.158 13.0205 74.3524 13.3044 80.9934C13.542 86.5543 15.8922 89.6314 19.1548 91.4538C22.6452 93.4035 27.4675 94.0603 32.6745 93.9032C37.8173 93.7481 42.9832 92.8126 46.902 91.8987C48.852 91.4439 50.472 90.9995 51.5995 90.6704C52.1628 90.506 52.6021 90.3707 52.8968 90.2777C53.0441 90.2313 53.1552 90.1954 53.2276 90.1718L53.3067 90.1458L53.3256 90.1396C53.35 90.1314 53.3755 90.1232 53.4002 90.1156L53.421 90.1092L53.5036 90.0833C53.5787 90.0597 53.693 90.0233 53.843 89.9746C54.1431 89.8771 54.5853 89.7302 55.1407 89.5369C56.2527 89.1498 57.8117 88.5789 59.5873 87.8477C63.1789 86.3686 67.4917 84.2998 70.8011 81.8537C72.07 80.9158 73.859 81.1841 74.797 82.4531C75.7349 83.722 75.4666 85.511 74.1976 86.449C70.3277 89.3094 65.5087 91.589 61.7633 93.1314C59.8704 93.911 58.2097 94.5192 57.019 94.9336C56.6019 95.0788 56.2416 95.2005 55.9484 95.2977C55.7338 95.5778 55.457 95.9436 55.1279 96.3886C54.2744 97.5429 53.0705 99.2271 51.686 101.326C48.911 105.534 45.4388 111.365 42.6007 117.908C36.8122 131.251 34.1711 146.298 43.2636 157.107C48.9778 163.901 58.2796 167.47 69.2498 168.21C80.1847 168.948 92.4057 166.834 103.389 162.68C114.401 158.514 123.884 152.405 129.56 145.394C135.155 138.483 136.93 130.929 133.291 123.167C131.052 118.391 127.716 115.819 123.942 114.52C120.065 113.185 115.577 113.152 111.148 113.814C106.744 114.473 102.6 115.789 99.5318 116.958C98.005 117.54 96.7619 118.078 95.9069 118.468C95.7576 118.536 95.6204 118.599 95.4956 118.658C95.3155 119.044 95.0827 119.531 94.7987 120.099C94.0619 121.572 92.9754 123.602 91.5683 125.847C90.7301 127.184 88.9668 127.588 87.6299 126.75C86.293 125.912 85.8886 124.148 86.7268 122.811C88.0166 120.754 89.0144 118.889 89.6879 117.543C90.024 116.87 90.2779 116.33 90.4455 115.964C90.5292 115.78 90.5913 115.64 90.6312 115.549C90.6512 115.504 90.6656 115.471 90.6744 115.45L90.6834 115.429L90.6841 115.427L90.6847 115.426L90.6943 115.404L90.6963 115.399L90.7047 115.379L90.7413 115.294C90.7743 115.216 90.824 115.099 90.8891 114.943C91.0192 114.632 91.2104 114.169 91.4505 113.571C91.9307 112.375 92.6056 110.642 93.3774 108.51C94.9232 104.239 96.8467 98.3963 98.375 92.0784C99.908 85.7408 101.015 79.0366 100.991 73.0113C100.966 66.9231 99.787 61.9508 97.1807 58.6616C92.9208 53.2853 85.6497 49.9641 76.6804 48.687C67.7555 47.4162 57.5061 48.2305 47.8253 50.7635C38.1336 53.2993 29.2196 57.5027 22.8746 62.8295ZM98.4565 111.261C98.5529 110.998 98.651 110.73 98.7506 110.454C100.342 106.056 102.337 100.004 103.929 93.4219C105.517 86.8592 106.732 79.6569 106.705 72.9881C106.678 66.3824 105.432 59.8734 101.659 55.1128C96.1453 48.1536 87.2405 44.4187 77.486 43.0298C67.6871 41.6345 56.6646 42.544 46.3789 45.2353C36.1042 47.9236 26.3573 52.4446 19.2004 58.4531C12.0455 64.4598 7.20953 72.2114 7.59528 81.2374C7.91478 88.7131 11.3164 93.6208 16.3682 96.4426C21.1921 99.1371 27.2466 99.7838 32.8468 99.6149C38.0852 99.4569 43.2442 98.5725 47.2468 97.6809C47.1376 97.8448 47.0272 98.0112 46.9158 98.1802C44.0248 102.564 40.3689 108.694 37.3584 115.634C31.4496 129.255 27.5114 147.258 38.8906 160.786C45.9711 169.203 57.0256 173.113 68.8653 173.911C80.7404 174.712 93.7833 172.423 105.41 168.024C117.008 163.637 127.482 157.042 134.001 148.99C140.601 140.838 143.26 130.97 138.465 120.741C135.542 114.507 130.976 110.897 125.802 109.116C120.731 107.371 115.224 107.427 110.303 108.163C105.82 108.833 101.654 110.095 98.4565 111.261Z" fill="white"/>
</svg>
