<svg width="17" height="16" viewBox="0 0 17 16" fill="none" xmlns="http://www.w3.org/2000/svg">
<path d="M11.8818 7.08048H13.6577C13.6991 7.08048 13.7414 7.08048 13.7827 7.07632C13.8528 7.06966 13.8768 7.02847 13.8441 6.96397C13.8071 6.8924 13.7657 6.82292 13.7235 6.75592C13.622 6.58948 13.5179 6.42513 13.4186 6.2591C13.3729 6.18462 13.3795 6.13927 13.4622 6.09267C13.6123 5.99674 13.7698 5.91189 13.9334 5.83885C13.9948 5.81388 14.0166 5.82012 14.0523 5.87796C14.1684 6.06603 14.2846 6.25494 14.4007 6.44468C14.5392 6.67479 14.6742 6.90655 14.8127 7.13665C15.0409 7.51613 15.27 7.89534 15.4999 8.27426C15.6184 8.46983 15.7365 8.66539 15.8544 8.86096C15.8712 8.88969 15.8847 8.92011 15.8945 8.95167C15.8957 8.95654 15.896 8.9616 15.8951 8.96656C15.8943 8.97152 15.8924 8.97626 15.8896 8.9805C15.8868 8.98475 15.8831 8.9884 15.8788 8.99124C15.8745 8.99408 15.8696 8.99604 15.8644 8.99702C15.8372 9.0049 15.8088 9.00828 15.7804 9.00701C15.3558 8.98953 14.9324 9.03655 14.5083 9.03572H13.8811C13.7838 9.03131 13.6864 9.03985 13.5915 9.0611C13.53 9.0726 13.4672 9.07638 13.4047 9.07234C12.6385 9.07705 11.8725 9.08107 11.1066 9.0844C10.7442 9.08648 10.3823 9.09064 10.02 9.09397C9.98525 9.09383 9.95051 9.09536 9.91592 9.09855C9.90553 9.09887 9.89542 9.10176 9.88655 9.10693C9.87768 9.1121 9.87037 9.11938 9.86533 9.12805C9.86028 9.13673 9.85768 9.14651 9.85777 9.15643C9.85786 9.16636 9.86064 9.17609 9.86584 9.18468C9.92506 9.28246 9.98777 9.37817 10.047 9.47595C10.3623 9.99829 10.678 10.5216 10.9942 11.0459C11.2263 11.4308 11.4563 11.8169 11.688 12.2022C11.7189 12.2538 11.7529 12.3046 11.7886 12.3533C11.7948 12.3613 11.8029 12.3678 11.8123 12.3722C11.8216 12.3767 11.8319 12.3791 11.8424 12.3791C11.8528 12.3791 11.8631 12.3767 11.8724 12.3722C11.8818 12.3678 11.8899 12.3613 11.8961 12.3533C11.9358 12.2987 11.9702 12.2409 12.0068 12.1843C12.1344 11.9867 12.2611 11.7886 12.3909 11.5918C12.4292 11.5335 12.4396 11.5344 12.5063 11.5727C12.6609 11.6621 12.8159 11.7495 12.9683 11.8419C13.0506 11.8918 13.0554 11.9147 13.0088 11.9858C12.7409 12.4053 12.4732 12.8246 12.2058 13.2437C11.9645 13.6232 11.7241 14.0035 11.4846 14.3846C11.3657 14.5723 11.2477 14.7591 11.1275 14.9468C11.0839 15.0171 11.0108 15.0184 10.9637 14.9468C10.8949 14.8399 10.8331 14.7288 10.7673 14.6197C10.4738 14.1304 10.1804 13.6411 9.88717 13.1517C9.49784 12.4997 9.11155 11.8465 8.72265 11.1961C8.51579 10.8499 8.30631 10.5058 8.0977 10.1604C8.08761 10.143 8.07626 10.1264 8.06374 10.1105C8.05717 10.1006 8.0481 10.0925 8.03737 10.0868C8.02663 10.0812 8.01458 10.0782 8.00233 10.0782C7.99008 10.0782 7.97803 10.0812 7.96729 10.0868C7.95656 10.0925 7.94749 10.1006 7.94093 10.1105C7.88649 10.1875 7.8351 10.2669 7.78458 10.3464C7.44866 10.8735 7.11304 11.4005 6.7777 11.9276C6.49027 12.3816 6.20589 12.8376 5.9202 13.2928C5.90583 13.3153 5.88972 13.3373 5.87665 13.3606C5.87424 13.3685 5.87355 13.3768 5.87462 13.3849C5.87569 13.393 5.87849 13.4009 5.88286 13.4079C5.88723 13.415 5.89307 13.4211 5.90002 13.4259C5.90696 13.4308 5.91487 13.4342 5.92325 13.4359C5.93689 13.4386 5.95072 13.4403 5.96463 13.4409C6.08948 13.4507 6.21477 13.4544 6.34003 13.4522C6.51423 13.4422 6.68581 13.4796 6.85827 13.4938C6.87069 13.4933 6.88307 13.4954 6.89452 13.5C6.90598 13.5046 6.91623 13.5116 6.92455 13.5204C6.93287 13.5292 6.93905 13.5397 6.94265 13.5511C6.94625 13.5624 6.94718 13.5744 6.94537 13.5862C6.94537 13.7459 6.94537 13.9057 6.93884 14.0651C6.93943 14.082 6.93642 14.0989 6.92998 14.1146C6.92354 14.1304 6.91382 14.1447 6.90139 14.1568C6.88897 14.1689 6.87411 14.1784 6.85771 14.1848C6.84131 14.1912 6.82372 14.1944 6.80601 14.1941C6.73006 14.2047 6.65289 14.2047 6.57694 14.1941C6.35004 14.1466 6.11923 14.1674 5.89103 14.1525C5.58618 14.1321 5.27915 14.1279 4.97299 14.1179C4.89634 14.1154 4.8197 14.1179 4.74305 14.1179C4.65952 14.1235 4.5756 14.1156 4.49481 14.0946C4.47528 14.0873 4.4544 14.0837 4.43341 14.0842C4.21566 14.0975 4.00357 14.0568 3.788 14.0555C3.58592 14.0555 3.38429 14.0505 3.18222 14.0455C3.07813 14.043 3.06289 14.0164 3.1047 13.9207C3.1181 13.8904 3.13382 13.861 3.15173 13.8329C3.44729 13.3752 3.74314 12.9175 4.03928 12.4598C4.43123 11.8548 4.81578 11.2481 5.20555 10.6427C5.48949 10.2016 5.77649 9.76222 6.06174 9.32199C6.096 9.27184 6.12754 9.22003 6.15625 9.16679C6.19021 9.0998 6.15625 9.05278 6.07611 9.0457C6.03256 9.04238 5.9925 9.04321 5.95069 9.04321H2.41922C2.21758 9.04321 2.20582 9.06276 2.29859 9.2292C2.40964 9.4281 2.52156 9.62658 2.63131 9.8263C2.67486 9.90952 2.66833 9.94198 2.58297 9.98899C2.43316 10.0722 2.28029 10.1496 2.12743 10.227C2.10628 10.2396 2.08085 10.2438 2.05649 10.2389C2.03212 10.2339 2.01072 10.2201 1.99678 10.2004C1.97821 10.1808 1.96213 10.1591 1.94888 10.1359C1.63387 9.56777 1.31929 8.9991 1.00515 8.42988C0.767948 8.00213 0.529729 7.57466 0.290495 7.14747C0.280478 7.12999 0.270462 7.11252 0.261752 7.09421C0.235186 7.04137 0.254784 7.00766 0.318802 6.99892C0.353284 6.99435 0.388077 6.99226 0.422887 6.99268C0.610587 6.99643 0.798723 6.98103 0.985988 7.00808C1.02763 7.01245 1.06957 7.01371 1.11141 7.01182L3.40911 7.02555C3.50666 7.02555 3.60422 7.02098 3.69872 7.05343C3.72583 7.05948 3.75364 7.06213 3.78146 7.06134C3.79496 7.06134 3.80934 7.06134 3.82501 7.06134L6.03779 7.08672C6.09353 7.08672 6.14928 7.08672 6.20502 7.08422C6.27731 7.07965 6.29735 7.04261 6.26077 6.97479C6.07611 6.64191 5.89103 6.30904 5.7055 5.97616C5.47687 5.56672 5.24605 5.15894 5.01785 4.7495C4.84365 4.43327 4.66945 4.11621 4.49176 3.79956C4.45692 3.73589 4.43863 3.63686 4.36111 3.63312C4.27401 3.63062 4.2444 3.73256 4.20041 3.79956C4.08762 3.96599 3.97613 4.13535 3.86421 4.30303C3.8505 4.32611 3.83507 4.34822 3.81805 4.36919C3.80877 4.38149 3.79697 4.39186 3.78338 4.39967C3.76978 4.40749 3.75466 4.41258 3.73894 4.41464C3.72322 4.4167 3.70723 4.41569 3.69193 4.41167C3.67663 4.40765 3.66235 4.4007 3.64994 4.39125C3.517 4.29544 3.37747 4.20828 3.2323 4.13035C3.21825 4.12322 3.20599 4.11325 3.19639 4.10112C3.18679 4.089 3.18008 4.07502 3.17672 4.06016C3.17336 4.04531 3.17344 4.02993 3.17695 4.0151C3.18045 4.00027 3.1873 3.98635 3.19702 3.97432C3.26452 3.86613 3.33595 3.76003 3.4078 3.65434C3.64254 3.30898 3.87858 2.96445 4.11288 2.61867C4.43341 2.14557 4.75176 1.6708 5.07316 1.19812C5.11453 1.13737 5.13587 1.06372 5.20076 1.01753C5.20827 1.01063 5.21739 1.00554 5.22737 1.00267C5.23734 0.999798 5.24789 0.999234 5.25814 1.00102C5.26839 1.00281 5.27805 1.0069 5.28632 1.01295C5.29459 1.01901 5.30124 1.02685 5.30571 1.03584C5.46249 1.31671 5.61797 1.59757 5.77475 1.87802C5.99076 2.26444 6.20691 2.65057 6.42321 3.03643C6.60568 3.3639 6.78511 3.69345 6.96889 4.0205C7.10999 4.27016 7.25675 4.51982 7.39873 4.76948C7.61386 5.14854 7.82682 5.52844 8.04109 5.90792C8.05395 5.93172 8.0685 5.95466 8.08464 5.97657C8.09062 5.98676 8.09947 5.99514 8.11018 6.00076C8.1209 6.00638 8.13305 6.00901 8.14525 6.00836C8.15746 6.00771 8.16922 6.0038 8.17922 5.99708C8.18921 5.99036 8.19703 5.98109 8.20179 5.97033C8.26145 5.86548 8.32068 5.7602 8.3786 5.65493C8.65645 5.15035 8.93401 4.64576 9.21128 4.14117C9.40072 3.79456 9.58581 3.44587 9.77438 3.09885C9.80922 3.03394 9.85277 2.97402 9.89022 2.90994C9.90786 2.88175 9.92134 2.85136 9.93029 2.81965C9.93452 2.80315 9.93177 2.78573 9.92263 2.77117C9.9135 2.7566 9.89873 2.74606 9.88151 2.74184C9.84106 2.73246 9.79941 2.72868 9.75783 2.7306C9.52789 2.73435 9.29794 2.71937 9.06843 2.74101C9.02684 2.74433 8.98504 2.74433 8.94345 2.74101C8.88378 2.73726 8.85112 2.71105 8.85025 2.65404C8.84676 2.47429 8.84676 2.29467 8.85025 2.1152C8.85025 2.05112 8.88552 2.02449 8.96043 2.02241C9.05058 2.01949 9.14116 2.02241 9.23175 2.02241H10.1097C10.221 2.02759 10.3325 2.0192 10.4416 1.99744C10.5032 1.98714 10.5659 1.98392 10.6284 1.98787C10.8862 1.98787 11.144 1.99078 11.4018 1.98787C11.6936 1.98371 11.9863 2.00743 12.2772 1.96332C12.3605 1.95589 12.4442 1.95492 12.5276 1.96041C12.6857 1.96041 12.7079 1.99162 12.6382 2.11977C12.5294 2.32033 12.4153 2.51798 12.3059 2.71854C12.1226 3.05141 11.9249 3.38055 11.7485 3.71925C11.6004 4.00386 11.4297 4.27765 11.2695 4.55768C11.0582 4.93217 10.8496 5.30666 10.6388 5.67823C10.4185 6.06895 10.1959 6.45925 9.97558 6.85038C9.94345 6.90909 9.91523 6.96968 9.89109 7.0318C9.88876 7.03812 9.88783 7.04485 9.88837 7.05154C9.88891 7.05823 9.89091 7.06473 9.89423 7.07065C9.89755 7.07656 9.90212 7.08174 9.90765 7.08587C9.91319 7.09 9.91956 7.09298 9.92637 7.09463C9.97338 7.10481 10.0214 7.10984 10.0696 7.10961C10.3549 7.10628 10.6406 7.10961 10.9263 7.10128C11.2459 7.08963 11.5669 7.09837 11.8874 7.09837L11.8818 7.08048ZM14.149 8.31504C14.2661 8.31504 14.4103 8.31712 14.5588 8.31504C14.6398 8.31504 14.6603 8.27842 14.6224 8.21559C14.5527 8.10075 14.4765 7.98882 14.4129 7.87106C14.3967 7.83413 14.3685 7.80321 14.3324 7.78295C14.2962 7.76268 14.2542 7.75418 14.2126 7.75872C14.169 7.75872 14.1289 7.75872 14.0871 7.75872C13.7117 7.76121 13.3359 7.77203 12.9605 7.77869C11.9506 7.79658 10.9406 7.79076 9.93029 7.79409C9.86758 7.79409 9.80487 7.79409 9.74215 7.79409C9.70055 7.79254 9.65888 7.79435 9.6176 7.79949C9.30622 7.85525 8.99266 7.81406 8.67997 7.82446C8.67308 7.82457 8.66621 7.82387 8.6595 7.82238C8.65126 7.82005 8.64359 7.81618 8.63693 7.81099C8.63027 7.80581 8.62476 7.79941 8.62071 7.79217C8.61665 7.78493 8.61415 7.777 8.61333 7.76883C8.61252 7.76065 8.61341 7.75241 8.61595 7.74457C8.63032 7.71419 8.64905 7.68632 8.66516 7.65677C8.89917 7.24068 9.13289 6.82541 9.36632 6.41098C9.60584 5.98365 9.84188 5.55465 10.0823 5.12774C10.3802 4.59638 10.685 4.06627 10.9829 3.53492C11.1249 3.28526 11.2658 3.03366 11.4058 2.78012C11.4432 2.7123 11.4223 2.67568 11.347 2.6736C11.2163 2.67069 11.0822 2.6736 10.9498 2.6711C10.9147 2.6695 10.8798 2.67765 10.8495 2.69455C10.8191 2.71146 10.7945 2.73641 10.7786 2.76639C10.7351 2.8417 10.6946 2.91951 10.651 2.99483C10.2576 3.67473 9.86409 4.35435 9.4704 5.0337C9.16497 5.5627 8.86012 6.09225 8.55585 6.62236C8.41867 6.8612 8.28366 7.10128 8.14561 7.33971C8.09727 7.42293 8.05459 7.42293 7.99362 7.34428C7.9804 7.32883 7.96846 7.31241 7.95791 7.29518C7.7689 6.95537 7.58019 6.61542 7.39176 6.27533C7.19666 5.92373 7.00286 5.5713 6.80558 5.22053C6.61134 4.876 6.41363 4.53397 6.21809 4.18944C5.90888 3.63977 5.60273 3.08886 5.29439 2.53878C5.27501 2.50336 5.25349 2.46904 5.22994 2.43601C5.18639 2.37567 5.14284 2.37276 5.09929 2.43185C5.03222 2.52505 4.97604 2.62575 4.90375 2.71479C4.81926 2.81882 4.82231 2.91202 4.88807 3.02603C5.12847 3.44463 5.36059 3.86738 5.59576 4.2893C5.83093 4.71122 6.05782 5.1215 6.29038 5.53759C6.49985 5.91208 6.71151 6.28657 6.92098 6.66105C7.10346 6.98894 7.28288 7.31849 7.46623 7.64596C7.53939 7.77619 7.49367 7.79741 7.36606 7.7945C7.32251 7.7945 7.28245 7.7945 7.24064 7.7945C6.40535 7.78576 5.57006 7.79242 4.73477 7.76288C4.05322 7.73916 3.36992 7.74831 2.68792 7.74332C2.61824 7.74332 2.54856 7.74332 2.47888 7.74332C2.4372 7.74424 2.39552 7.74159 2.35433 7.73542C2.09303 7.6859 1.82694 7.72127 1.56303 7.71253C1.55605 7.71242 1.5491 7.71354 1.54256 7.71586C1.52616 7.72112 1.51235 7.73195 1.50376 7.74629C1.49517 7.76064 1.49239 7.7775 1.49596 7.79367C1.50076 7.81977 1.51003 7.84493 1.5234 7.86815C1.58045 7.97426 1.64403 8.0762 1.6976 8.18605C1.75813 8.31088 1.85176 8.35249 1.99635 8.35249C2.3883 8.34416 2.77633 8.34916 3.16654 8.34957C3.22901 8.34576 3.29173 8.34912 3.35337 8.35956C3.44173 8.37784 3.53218 8.38525 3.62251 8.38161C4.22175 8.38494 4.82057 8.38453 5.41982 8.39243C6.0391 8.40117 6.65925 8.36455 7.27809 8.41573C7.33776 8.42073 7.41136 8.37412 7.45491 8.43321C7.50717 8.50353 7.4266 8.55305 7.40047 8.61088C7.39465 8.62297 7.38796 8.63465 7.38044 8.64584C6.90951 9.37539 6.43859 10.1047 5.96767 10.8337C5.45436 11.6245 4.94236 12.4155 4.43167 13.2067C4.41372 13.2346 4.39911 13.2643 4.38812 13.2953C4.38517 13.3049 4.3845 13.315 4.38615 13.3249C4.3878 13.3347 4.39172 13.3441 4.39764 13.3524C4.40356 13.3606 4.41133 13.3675 4.42037 13.3725C4.42942 13.3776 4.43953 13.3806 4.44996 13.3814C4.56711 13.3947 4.68426 13.4056 4.8014 13.4181C4.91855 13.4305 5.00609 13.3972 5.05835 13.2932C5.0792 13.2586 5.10188 13.225 5.12629 13.1925L6.06566 11.7096C6.57026 10.914 7.0753 10.1185 7.58077 9.32324C7.70663 9.12435 7.82987 8.92379 7.95834 8.72614C8.00669 8.65166 8.07288 8.65707 8.11817 8.73446C8.21703 8.9009 8.31241 9.07233 8.41257 9.23961C8.86491 9.99441 9.31798 10.7488 9.77177 11.5028C10.1446 12.1252 10.5157 12.7494 10.8853 13.3752C10.9187 13.4312 10.9536 13.487 10.9899 13.5425C11.053 13.6382 11.0931 13.6402 11.1562 13.5504C11.2337 13.4401 11.2869 13.3161 11.3761 13.2117C11.3905 13.1923 11.3982 13.1692 11.3982 13.1455C11.3982 13.1218 11.3905 13.0987 11.3761 13.0793C11.3243 12.9932 11.2695 12.9079 11.2176 12.8218C10.8643 12.2345 10.5111 11.6474 10.1581 11.0604C9.72256 10.3409 9.28793 9.62186 8.85417 8.9034C8.77752 8.77649 8.70218 8.64916 8.62989 8.52059C8.59417 8.45693 8.619 8.4174 8.69521 8.41657C9.0153 8.41241 9.33496 8.40242 9.65331 8.39493C10.4329 8.37787 11.2133 8.38369 11.9937 8.37995C12.0492 8.38522 12.1052 8.38312 12.1601 8.37371C12.2768 8.34125 12.3943 8.34916 12.5124 8.34833C12.7075 8.34833 12.9043 8.34833 13.0977 8.34833C13.237 8.34833 13.379 8.36414 13.5149 8.34333C13.7178 8.31171 13.9186 8.32086 14.149 8.31504Z" fill="#F1563F"/>
</svg>
