<svg width="126" height="18" viewBox="0 0 126 18" fill="none" xmlns="http://www.w3.org/2000/svg">
<path d="M35.8042 11.6064H39.8028V13.7069H31.6412L36.1585 6.26644H32.4004V4.16589H40.2964L35.8042 11.6064Z" fill="white"/>
<path d="M47.3175 8.93651C47.3175 9.31609 47.3892 9.66621 47.5326 9.98676C47.6761 10.3073 47.8701 10.5857 48.1148 10.8219C48.3595 11.0581 48.6421 11.2437 48.9624 11.3787C49.2915 11.5052 49.6374 11.5685 50.0002 11.5685C50.363 11.5685 50.7044 11.5052 51.025 11.3787C51.3541 11.2437 51.641 11.0581 51.8857 10.8219C52.1388 10.5857 52.3371 10.3073 52.4805 9.98676C52.6236 9.66621 52.6953 9.31609 52.6953 8.93651C52.6953 8.55689 52.6236 8.20677 52.4805 7.88621C52.3371 7.56566 52.1388 7.28726 51.8857 7.05108C51.641 6.81486 51.3541 6.63349 51.025 6.50696C50.7044 6.37196 50.363 6.3045 50.0002 6.3045C49.6374 6.3045 49.2915 6.37196 48.9624 6.50696C48.6421 6.63349 48.3595 6.81486 48.1148 7.05108C47.8701 7.28726 47.6761 7.56566 47.5326 7.88621C47.3892 8.20677 47.3175 8.55689 47.3175 8.93651ZM44.7236 8.93651C44.7236 8.22786 44.8544 7.56988 45.116 6.96248C45.3772 6.34665 45.74 5.81098 46.2041 5.35546C46.6681 4.8999 47.2204 4.5456 47.8617 4.29254C48.5114 4.03101 49.224 3.90027 50.0002 3.90027C50.7677 3.90027 51.4764 4.03101 52.1261 4.29254C52.7755 4.5456 53.3323 4.8999 53.7964 5.35546C54.2689 5.81098 54.6356 6.34665 54.8971 6.96248C55.1587 7.56988 55.2895 8.22786 55.2895 8.93651C55.2895 9.64512 55.1587 10.3073 54.8971 10.9232C54.6356 11.5305 54.2689 12.062 53.7964 12.5175C53.3323 12.9731 52.7755 13.3316 52.1261 13.5931C51.4764 13.8462 50.7677 13.9727 50.0002 13.9727C49.224 13.9727 48.5114 13.8462 47.8617 13.5931C47.2204 13.3316 46.6681 12.9731 46.2041 12.5175C45.74 12.062 45.3772 11.5305 45.116 10.9232C44.8544 10.3073 44.7236 9.64512 44.7236 8.93651Z" fill="white"/>
<path d="M72.1146 6.26644V13.7069H69.6347V6.26644H67.5974V4.16589H74.1519V6.26644H72.1146Z" fill="white"/>
<path d="M81.4051 8.43024H81.873C82.3624 8.43024 82.7379 8.32903 82.9994 8.12656C83.261 7.9241 83.3918 7.63307 83.3918 7.25346C83.3918 6.87384 83.261 6.58278 82.9994 6.38032C82.7379 6.17785 82.3624 6.07664 81.873 6.07664H81.4051V8.43024ZM86.8589 13.7069H83.7711L81.4051 10.0373V13.7069H78.9248V4.16589H82.7843C83.3158 4.16589 83.7795 4.24605 84.1761 4.40633C84.5727 4.55817 84.8975 4.76907 85.1506 5.03903C85.4122 5.30896 85.6059 5.62108 85.7325 5.97539C85.8675 6.32973 85.935 6.70934 85.935 7.11424C85.935 7.83972 85.7578 8.43024 85.4038 8.8858C85.0578 9.33288 84.5431 9.63659 83.8597 9.79687L86.8589 13.7069Z" fill="white"/>
<path d="M94.0458 4.16589V13.7069H91.5659V4.16589H94.0458Z" fill="white"/>
<path d="M102.189 8.54415H103.011C103.923 8.54415 104.378 8.14766 104.378 7.35467C104.378 6.56169 103.923 6.16519 103.011 6.16519H102.189V8.54415ZM102.189 13.7069H99.7087V4.16589H103.657C104.728 4.16589 105.546 4.4443 106.111 5.00107C106.685 5.55783 106.972 6.34238 106.972 7.35467C106.972 8.367 106.685 9.15151 106.111 9.70828C105.546 10.265 104.728 10.5434 103.657 10.5434H102.189V13.7069Z" fill="white"/>
<path d="M117.193 6.60818C116.923 6.38884 116.653 6.22856 116.383 6.12735C116.113 6.01766 115.852 5.96285 115.599 5.96285C115.278 5.96285 115.016 6.03875 114.814 6.19059C114.611 6.34243 114.51 6.54068 114.51 6.78533C114.51 6.95405 114.561 7.09323 114.662 7.20292C114.763 7.31257 114.894 7.4096 115.054 7.49394C115.223 7.56988 115.409 7.63738 115.611 7.69641C115.822 7.75547 116.029 7.81875 116.231 7.88621C117.041 8.15618 117.632 8.51892 118.003 8.97444C118.382 9.42156 118.572 10.0079 118.572 10.7333C118.572 11.2226 118.488 11.6655 118.319 12.062C118.159 12.4585 117.918 12.8001 117.598 13.0869C117.286 13.3654 116.898 13.5804 116.434 13.7323C115.978 13.8926 115.459 13.9727 114.877 13.9727C113.671 13.9727 112.553 13.6142 111.524 12.8971L112.587 10.8978C112.958 11.2268 113.325 11.4715 113.688 11.6318C114.05 11.792 114.409 11.8722 114.763 11.8722C115.168 11.8722 115.468 11.7794 115.662 11.5938C115.864 11.4082 115.965 11.1973 115.965 10.9611C115.965 10.8177 115.94 10.6954 115.89 10.5942C115.839 10.4845 115.755 10.3875 115.637 10.3031C115.518 10.2103 115.362 10.1259 115.168 10.05C114.983 9.97411 114.755 9.88973 114.485 9.79696C114.164 9.69571 113.848 9.58605 113.536 9.46796C113.232 9.3414 112.958 9.17691 112.713 8.97444C112.477 8.77198 112.283 8.51892 112.132 8.21521C111.988 7.90309 111.916 7.51082 111.916 7.03842C111.916 6.56599 111.992 6.14 112.144 5.76039C112.304 5.37233 112.524 5.04334 112.802 4.77337C113.089 4.49497 113.435 4.27989 113.84 4.12801C114.253 3.97617 114.713 3.90027 115.219 3.90027C115.691 3.90027 116.185 3.96773 116.699 4.10273C117.214 4.22926 117.708 4.41907 118.18 4.67216L117.193 6.60818Z" fill="white"/>
<path d="M10.922 13.0852C10.8508 13.4047 10.6482 13.675 10.3736 13.8373L5.47506 16.463C5.44085 16.478 5.40302 16.4864 5.36323 16.4864C5.20995 16.4864 5.0857 16.3628 5.0857 16.2102C5.0857 16.192 5.0875 16.1741 5.09091 16.1568L5.09129 16.1548L5.0914 16.1542L5.09147 16.1539L5.09178 16.1524L5.09221 16.1506L5.09252 16.1491L5.84142 12.6228C5.84156 12.6222 5.84167 12.6216 5.84181 12.621L5.84184 12.6207C5.84195 12.6202 5.84202 12.6197 5.84216 12.6193C5.84596 12.605 5.84905 12.5904 5.85141 12.5756C5.85513 12.5526 5.85703 12.5289 5.85703 12.5048C5.85703 12.2587 5.65699 12.0591 5.40984 12.058H5.40798H5.40608H2.97669C2.57535 12.058 2.25 11.7344 2.25 11.3352C2.25 11.0698 2.39372 10.8379 2.60794 10.7122L9.85264 6.8301H7.62536C7.37733 6.8301 7.17627 6.63013 7.17627 6.3834C7.17627 6.35588 7.1788 6.32891 7.18358 6.30276L7.48241 4.8957C7.55599 4.59131 7.74928 4.33327 8.00997 4.17359L12.9212 1.54038C12.9573 1.52326 12.9978 1.51367 13.0405 1.51367C13.1938 1.51367 13.318 1.63728 13.318 1.78976C13.318 1.79284 13.318 1.79591 13.3179 1.79896C13.3178 1.80086 13.3177 1.80275 13.3176 1.80463L12.5969 5.19839C12.582 5.23829 12.5727 5.2809 12.5699 5.32524C12.5693 5.33459 12.5691 5.34404 12.5691 5.35354C12.5691 5.36029 12.5692 5.367 12.5695 5.37368C12.5801 5.61106 12.7769 5.80027 13.0181 5.80027H15.6934C16.0937 5.80153 16.4177 6.12469 16.4177 6.52315C16.4177 6.79445 16.2674 7.03088 16.0452 7.15449L9.15915 10.8443H10.8442C11.0922 10.8443 11.2933 11.0443 11.2933 11.291C11.2933 11.3173 11.291 11.3429 11.2867 11.3679L10.922 13.0852Z" fill="white"/>
<path d="M2.96344 5.43494L4.01254 5.78281L5.06161 5.43494L4.71194 6.47851L5.06161 7.52209L4.01254 7.17426L2.96344 7.52209L3.31314 6.47851L2.96344 5.43494Z" fill="white"/>
<path d="M12.8512 10.0377L14.3593 10.6378L15.8674 10.0377L15.2641 11.5379L15.8674 13.038L14.3593 12.4379L12.8512 13.038L13.4544 11.5379L12.8512 10.0377Z" fill="white"/>
</svg>
