<svg width="116" height="90" viewBox="0 0 116 90" fill="none" xmlns="http://www.w3.org/2000/svg">
<path fill-rule="evenodd" clip-rule="evenodd" d="M13.4014 48.5286C13.4703 49.521 13.5349 50.4504 13.5873 51.3008C13.6823 52.8415 12.5104 54.1674 10.9697 54.2624C9.42909 54.3574 8.10314 53.1855 8.00813 51.6449C7.95995 50.8635 7.89832 49.9856 7.83116 49.0289C7.51642 44.5452 7.08026 38.3318 7.33799 32.2256L4.22683 32.9921C2.72808 33.3613 1.21376 32.4457 0.8445 30.9469C0.475242 29.4482 1.39088 27.9339 2.88963 27.5646L7.84042 26.3448C7.84165 26.3358 7.84289 26.3268 7.84413 26.3178C8.45973 21.8277 9.68672 17.3547 12.16 14.0614C14.7847 10.5665 18.6809 8.59404 23.8769 9.09661C25.4133 9.24521 26.5383 10.6112 26.3897 12.1476C26.2411 13.684 24.8752 14.809 23.3388 14.6604C20.1076 14.3479 18.0991 15.4615 16.6297 17.4182C15.3037 19.1837 14.3553 21.7426 13.742 24.8908L18.9602 23.6052C20.459 23.2359 21.9733 24.1516 22.3425 25.6503C22.7118 27.1491 21.7962 28.6634 20.2974 29.0327L13.0084 30.8285C12.5996 36.9829 13.0556 43.5493 13.4014 48.5286Z" fill="#111111"/>
<path fill-rule="evenodd" clip-rule="evenodd" d="M25.4741 27.7545C27.6179 26.0357 30.4678 25.2456 33.563 26.2865C36.6116 27.3118 38.4866 29.6245 39.3839 32.1992C40.2599 34.7126 40.2454 37.5357 39.6147 40.0481C38.9871 42.548 37.6712 45.0414 35.6067 46.7167C33.4315 48.4818 30.5486 49.2135 27.3926 48.1758C24.2562 47.1446 22.317 44.8492 21.4176 42.2153C20.5472 39.6662 20.6427 36.83 21.3426 34.3342C22.0403 31.846 23.4231 29.3988 25.4741 27.7545ZM26.7075 40.4091C27.1126 41.5953 27.869 42.4483 29.1385 42.8657C30.3884 43.2767 31.3028 43.0105 32.0845 42.3763C32.9767 41.6523 33.777 40.3447 34.1932 38.6871C34.6062 37.042 34.5629 35.351 34.1055 34.0388C33.6696 32.7878 32.9067 31.9633 31.7811 31.5847C30.702 31.2218 29.8125 31.4407 28.9706 32.1157C28.0358 32.8651 27.1866 34.1965 26.7248 35.8434C26.2651 37.4827 26.2736 39.1382 26.7075 40.4091Z" fill="#111111"/>
<path fill-rule="evenodd" clip-rule="evenodd" d="M36.8933 51.5117C39.1536 49.949 42.0523 49.3628 45.0659 50.6204C48.0343 51.859 49.7408 54.2987 50.4534 56.9305C51.1492 59.4996 50.9348 62.3146 50.1277 64.776C49.3246 67.2252 47.8355 69.6191 45.6574 71.144C43.3627 72.7506 40.4352 73.2763 37.3606 72.0176C34.3052 70.7668 32.5333 68.3398 31.8228 65.6489C31.1352 63.0445 31.4313 60.2222 32.3062 57.7822C33.1784 55.3497 34.7311 53.0066 36.8933 51.5117ZM37.2274 64.2219C37.5474 65.4338 38.2415 66.3382 39.4783 66.8445C40.6959 67.343 41.6269 67.1423 42.4515 66.565C43.3927 65.906 44.2837 64.6584 44.8162 63.0344C45.3447 61.4227 45.4213 59.7329 45.058 58.3916C44.7117 57.1129 44.0092 56.2363 42.9133 55.779C41.8625 55.3405 40.9597 55.4959 40.0722 56.1096C39.0867 56.7909 38.1452 58.0588 37.568 59.6689C36.9933 61.2715 36.8845 62.9234 37.2274 64.2219Z" fill="#111111"/>
<path fill-rule="evenodd" clip-rule="evenodd" d="M68.8307 14.2462C71.0713 12.6556 73.9625 12.0334 76.9916 13.2534C79.9751 14.4552 81.7117 16.8735 82.457 19.4962C83.1846 22.0565 83.0052 24.8739 82.2288 27.3452C81.4562 29.8041 79.9968 32.2163 77.8379 33.7681C75.5633 35.4031 72.6426 35.9651 69.5526 34.7448C66.4819 33.532 64.68 31.1272 63.9361 28.4453C63.2162 25.8497 63.4773 23.0239 64.3218 20.5732C65.1637 18.1301 66.6871 15.7679 68.8307 14.2462ZM69.3226 26.9513C69.6576 28.1591 70.3629 29.0549 71.6059 29.5458C72.8296 30.0291 73.758 29.8168 74.5753 29.2293C75.5083 28.5586 76.3837 27.3001 76.896 25.6696C77.4044 24.0515 77.46 22.3609 77.0802 21.0242C76.718 19.7498 76.0047 18.8821 74.9031 18.4384C73.847 18.013 72.9462 18.1796 72.0664 18.8043C71.0894 19.4978 70.1638 20.7773 69.6066 22.3944C69.0519 24.004 68.9636 25.6571 69.3226 26.9513Z" fill="#111111"/>
<path fill-rule="evenodd" clip-rule="evenodd" d="M46.2473 3.97147C47.7846 4.11032 48.9183 5.46913 48.7794 7.00644C48.5769 9.24866 48.2224 11.9458 47.8542 14.7462C47.7174 15.7868 47.5788 16.8417 47.4453 17.8928C46.9438 21.8431 46.5058 25.8086 46.426 29.1973C46.3862 30.8892 46.4378 32.371 46.5974 33.5939C46.7613 34.8496 47.0168 35.649 47.2656 36.0979C47.3662 36.2793 47.4414 36.3589 47.4698 36.3852C47.5559 36.3942 47.9877 36.4059 48.9383 35.9306C50.3189 35.2402 51.9977 35.7999 52.688 37.1805C53.3783 38.5611 52.8187 40.2399 51.4381 40.9302C49.7984 41.75 48.0216 42.2262 46.2679 41.8456C44.4008 41.4403 43.1479 40.1991 42.3767 38.8078C41.641 37.4806 41.2602 35.8919 41.0547 34.3172C40.8449 32.7097 40.7942 30.9189 40.8378 29.0658C40.9249 25.3645 41.3972 21.1501 41.9001 17.1888C42.0429 16.0639 42.1875 14.9639 42.3275 13.8985C42.6894 11.1456 43.0208 8.62428 43.2123 6.5036C43.3512 4.96629 44.71 3.83262 46.2473 3.97147Z" fill="#111111"/>
<path fill-rule="evenodd" clip-rule="evenodd" d="M56.8977 2.80692C58.435 2.94577 59.5687 4.30458 59.4299 5.84189C59.2445 7.89382 58.9472 10.2918 58.6406 12.7642C58.4907 13.9725 58.3387 15.1986 58.1964 16.4109C57.7539 20.1818 57.3943 23.9013 57.3891 27.04C57.3866 28.6068 57.4731 29.9558 57.6586 31.0505C57.8493 32.1764 58.1143 32.8444 58.34 33.1909C58.441 33.3461 58.5064 33.3936 58.5141 33.399C58.5148 33.3995 58.5154 33.3999 58.5158 33.4002C58.5192 33.4012 58.5267 33.4031 58.5395 33.4051C58.6391 33.4207 59.1323 33.4429 60.2126 32.9027C61.5932 32.2124 63.2721 32.772 63.9624 34.1527C64.6527 35.5333 64.0931 37.2121 62.7125 37.9024C61.091 38.7131 59.3735 39.1929 57.677 38.9279C55.8554 38.6434 54.5263 37.5777 53.656 36.2415C52.8387 34.9865 52.3991 33.4702 52.1473 31.9841C51.8903 30.4668 51.7965 28.7761 51.7994 27.0308C51.8051 23.5452 52.1999 19.5506 52.6448 15.7594C52.7982 14.4515 52.9565 13.1758 53.1092 11.9455C53.4082 9.53558 53.6856 7.29998 53.8628 5.33905C54.0016 3.80174 55.3604 2.66806 56.8977 2.80692Z" fill="#111111"/>
<path fill-rule="evenodd" clip-rule="evenodd" d="M113.658 0.0674618C115.165 0.403112 116.114 1.89658 115.778 3.40322L113.05 2.79547C115.778 3.40322 115.778 3.40355 115.778 3.40396L115.774 3.42089L115.764 3.46485C115.756 3.50274 115.743 3.55762 115.727 3.62843C115.695 3.77003 115.647 3.97543 115.585 4.23605C115.461 4.75709 115.28 5.49995 115.05 6.39586C114.59 8.18365 113.928 10.5997 113.125 13.087C112.327 15.5562 111.364 18.1814 110.287 20.3495C109.749 21.4318 109.146 22.4763 108.475 23.3528C107.837 24.1854 106.953 25.1114 105.78 25.6215C104.747 26.0708 103.635 26.2047 102.534 25.9411C101.471 25.6866 100.634 25.1138 100.007 24.5092C99.3516 23.8764 98.8232 23.1085 98.3968 22.3286C97.7159 23.5024 96.9058 24.7016 95.9683 25.7432C94.7616 27.084 93.0956 28.4402 90.9673 28.8343C89.4503 29.1153 88.0375 28.6688 86.9857 27.6662C86.0726 26.7959 85.5843 25.6577 85.2962 24.702C84.7133 22.7686 84.5887 20.317 84.6126 18.1367C84.6372 15.8878 84.8272 13.636 85.0069 11.9655C85.0973 11.1255 85.1864 10.4219 85.2531 9.92568C85.2866 9.67738 85.3145 9.48046 85.3344 9.34378C85.3443 9.27542 85.3522 9.22208 85.3578 9.18485L85.3644 9.14123L85.3671 9.12352C85.3672 9.12301 85.3673 9.12258 88.1293 9.54977L85.3673 9.12258C85.6032 7.59714 87.0311 6.5518 88.5565 6.78773C90.0818 7.02363 91.127 8.45119 90.8914 9.97642C90.8914 9.97648 90.8914 9.97637 90.8914 9.97642C90.8914 9.97655 90.8914 9.97684 90.8914 9.97696L90.8903 9.98362L90.8856 10.0148C90.8813 10.0437 90.8747 10.0883 90.866 10.1477C90.8488 10.2664 90.8236 10.4439 90.793 10.6714C90.7317 11.1268 90.6489 11.7806 90.5646 12.5637C90.395 14.1393 90.224 16.1963 90.202 18.198C90.1797 20.2394 90.3186 21.9605 90.6346 23.0434C90.9637 22.8368 91.3596 22.5082 91.8135 22.0039C92.6192 21.1086 93.3849 19.906 94.0627 18.615C94.7316 17.3409 95.2649 16.0773 95.6328 15.1236C95.8155 14.6498 95.9546 14.2599 96.0466 13.9928C96.0925 13.8594 96.1266 13.7571 96.1483 13.6909C96.1591 13.6578 96.1669 13.6338 96.1715 13.6194L96.1758 13.6059L96.176 13.6051C96.5659 12.3613 97.7638 11.5519 99.0633 11.6546C100.362 11.7573 101.418 12.744 101.608 14.0329C101.608 14.0337 101.608 14.0344 101.608 14.0352L101.61 14.0462C101.612 14.0595 101.616 14.082 101.621 14.1131C101.631 14.1755 101.647 14.272 101.669 14.3974C101.714 14.6486 101.783 15.0122 101.879 15.4452C102.074 16.3253 102.364 17.429 102.755 18.4433C103.104 19.349 103.453 19.9668 103.733 20.3139C103.813 20.2299 103.915 20.1129 104.038 19.9527C104.411 19.4663 104.831 18.7676 105.281 17.8629C106.178 16.0571 107.042 13.733 107.805 11.3694C108.563 9.02389 109.194 6.72356 109.636 5.00319C109.857 4.14503 110.03 3.43585 110.147 2.94338C110.205 2.69725 110.25 2.50552 110.279 2.37669C110.294 2.31228 110.305 2.26362 110.312 2.23176L110.32 2.19673L110.322 2.18772C110.322 2.18783 110.322 2.18761 110.322 2.18772C110.658 0.68127 112.152 -0.268165 113.658 0.0674618Z" fill="#111111"/>
<path fill-rule="evenodd" clip-rule="evenodd" d="M26.8015 55.4434C28.3389 55.5806 29.474 56.9383 29.3367 58.4757L28.1722 71.5185C28.1668 71.5797 28.1593 71.6407 28.1498 71.7015C28.018 72.545 27.901 73.4338 27.7766 74.38C27.7695 74.4334 27.7625 74.4869 27.7554 74.5406C27.6248 75.5332 27.4854 76.5817 27.3182 77.6231C26.988 79.679 26.5234 81.8886 25.6864 83.8416C24.8425 85.8107 23.5205 87.7498 21.3465 88.9256C19.149 90.114 16.5267 90.2833 13.5757 89.597C12.0723 89.2473 11.1369 87.7451 11.4866 86.2417C11.8362 84.7382 13.3385 83.8029 14.8419 84.1525C16.8984 84.6308 18.0317 84.3634 18.6874 84.0088C19.3665 83.6415 19.9951 82.9313 20.5486 81.6397C21.1091 80.332 21.4888 78.6696 21.7991 76.7368C21.8598 76.359 21.9169 75.9777 21.9718 75.5928C19.6323 76.2063 17.5427 76.2221 15.7196 75.5465C12.5887 74.3862 11.2589 71.6002 10.7255 69.2356C10.1896 66.8597 10.2964 64.3139 10.4908 62.4908C10.5907 61.5534 10.7205 60.7498 10.826 60.1764C10.8789 59.8888 10.9262 59.6568 10.9613 59.4923C10.9789 59.4099 10.9934 59.3443 11.0041 59.2968C11.0095 59.2731 11.0139 59.2539 11.0173 59.2394L11.0216 59.2212L11.0231 59.2148L11.0237 59.2123C11.0239 59.2112 11.0242 59.2102 13.743 59.8575L11.0242 59.2102C11.3817 57.7086 12.8888 56.7811 14.3904 57.1387C15.8908 57.4959 16.818 59.001 16.4628 60.5014C16.4626 60.5019 16.4624 60.5027 16.4622 60.504L16.4562 60.53C16.4503 60.556 16.4407 60.5993 16.4281 60.6582C16.4029 60.7763 16.366 60.9567 16.3234 61.1882C16.2379 61.6528 16.1311 62.3139 16.0491 63.0834C15.8795 64.6737 15.8408 66.5096 16.1783 68.0057C16.5183 69.5132 17.0809 70.0897 17.662 70.3051C18.3168 70.5478 19.8198 70.6663 22.7479 69.4165L23.7691 57.9786C23.9064 56.4412 25.264 55.3061 26.8015 55.4434ZM16.4623 60.5033C16.4623 60.5033 16.4623 60.5033 16.4623 60.5033L16.4624 60.503C16.4623 60.5031 16.4623 60.5032 16.4623 60.5033Z" fill="#111111"/>
<path fill-rule="evenodd" clip-rule="evenodd" d="M67.8405 43.3213C69.384 43.3213 70.6354 44.5726 70.6354 46.1162C70.6354 48.8222 70.2523 51.4067 69.6041 53.7625C69.3446 55.1141 69.1341 56.2708 69.0541 57.2753C69.0148 57.7683 69.0167 58.1324 69.0399 58.3917C69.3017 58.3701 69.7228 58.3004 70.3623 58.1103C71.8418 57.6704 73.3978 58.5133 73.8377 59.9929C74.2776 61.4724 73.4347 63.0284 71.9552 63.4683C69.6943 64.1405 67.0312 64.4201 65.1385 62.6499C63.9862 64.0109 62.6829 65.0954 61.2772 65.7264C59.8625 66.3614 58.149 66.6079 56.4674 65.8918C54.8146 65.1879 53.7076 63.7721 53.0135 62.152C51.6738 59.0252 51.4153 54.1244 52.3178 47.376C52.5225 45.8461 53.9286 44.7717 55.4586 44.9763C56.9885 45.1809 58.0629 46.5871 57.8583 48.117C56.9853 54.6444 57.4331 58.2737 58.1515 59.9506C58.3786 60.4805 58.5712 60.6762 58.6441 60.7356C58.6984 60.7306 58.8073 60.708 58.9881 60.6268C59.9424 60.1984 61.4905 58.7077 62.8376 55.9518C63.3464 54.9111 63.7967 53.7473 64.1558 52.4897C64.182 52.354 64.2081 52.2191 64.2341 52.0852C64.2913 51.7904 64.3476 51.5003 64.4014 51.2172C64.7652 49.3028 65.0456 47.5821 65.0456 46.1162C65.0456 44.5726 66.2969 43.3213 67.8405 43.3213ZM58.6012 60.7345C58.6015 60.7337 58.6088 60.7336 58.6218 60.7368C58.6074 60.7369 58.6008 60.7353 58.6012 60.7345ZM58.6697 60.7546C58.6735 60.7564 58.6753 60.7576 58.6752 60.7577C58.6752 60.7578 58.6733 60.7568 58.6697 60.7546ZM68.6729 58.3841C68.6732 58.3838 68.6796 58.385 68.6913 58.3889C68.6784 58.3865 68.6726 58.3845 68.6729 58.3841ZM69.1046 58.7603C69.1058 58.763 69.1063 58.7645 69.1063 58.7645C69.1063 58.7646 69.1057 58.7632 69.1046 58.7603Z" fill="#111111"/>
<path fill-rule="evenodd" clip-rule="evenodd" d="M82.4156 49.1256C81.1485 52.43 81.1161 56.6076 81.1161 60.0906C81.116 61.6341 79.8647 62.8854 78.3212 62.8854C76.7776 62.8854 75.5263 61.6341 75.5263 60.0905C75.5263 60.0878 75.5263 60.0852 75.5263 60.0825C75.5263 60.0257 75.5263 59.9683 75.5263 59.9103C75.5262 59.7892 75.5262 59.6656 75.5263 59.5396L75.5263 41.2251C75.5263 39.6815 76.7777 38.4302 78.3212 38.4302C79.8648 38.4302 81.1161 39.6815 81.1161 41.2251L81.1161 41.4135C81.2934 41.2647 81.4765 41.12 81.6656 40.9795C83.8947 39.3234 86.7328 38.4302 90.1995 38.4302C91.7431 38.4302 92.9944 39.6815 92.9944 41.2251C92.9944 42.7686 91.7431 44.0199 90.1995 44.0199C87.727 44.0199 86.1108 44.6406 84.9991 45.4665C83.8657 46.3085 83.0245 47.5376 82.4156 49.1256Z" fill="#111111"/>
</svg>
