<svg width="1188" height="260" viewBox="0 0 1188 260" fill="none" xmlns="http://www.w3.org/2000/svg">
<rect x="240" y="234.282" width="120" height="24" fill="#5A5A5A" stroke="white" stroke-width="2"/>
<path d="M170.5 100.782V258.782H140.5H80.5H50.5H1V63.7817L16 45.2817H136L170.5 100.782Z" fill="#202020"/>
<path d="M50.5 100.782V258.782M50.5 100.782L16 45.2817M50.5 100.782H64.5M170.5 100.782V258.782H140.5M170.5 100.782L136 45.2817H16M170.5 100.782H156.5M50.5 258.782H1V63.7817L16 45.2817M50.5 258.782H80.5M80.5 258.782L88.5 236.282H110.5M80.5 258.782H140.5M140.5 258.782L132.5 236.282H110.5M110.5 236.282V160.282M64.5 100.782H156.5M64.5 100.782L76.5 160.282H110.5M156.5 100.782L144.5 160.282H110.5" stroke="white" stroke-width="2"/>
<path d="M937 100.782V258.782H967H1107H1137H1186.5V63.7817L1171.5 45.2817H971.5L937 100.782Z" fill="#202020"/>
<path d="M1137 100.782V258.782M1137 100.782L1171.5 45.2817M1137 100.782H1123M937 100.782V258.782H967M937 100.782L971.5 45.2817H1171.5M937 100.782H951M1137 258.782H1186.5V63.7817L1171.5 45.2817M1137 258.782H1107M1107 258.782L1099 236.282H1035M1107 258.782H967M967 258.782L975 236.282H1035M1035 236.282V160.282M1123 100.782H951M1123 100.782L1111 160.282H1035M951 100.782L963 160.282H1035" stroke="white" stroke-width="2"/>
<path d="M24 33.2817L58.5 88.7817H178.5L144 33.2817H24Z" fill="#5A5A5A" stroke="white" stroke-width="2"/>
<path d="M1019.5 33.2817L985 88.7817H929L963.5 33.2817H1019.5Z" fill="#5A5A5A" stroke="white" stroke-width="2"/>
<path d="M1165.5 33.2817L1131 88.7817H1003L1037.5 33.2817H1165.5Z" fill="#5A5A5A" stroke="white" stroke-width="2"/>
<path d="M283.278 143.294L306.945 92.5407L342.19 108.976L371.796 122.781L354.211 160.494L348.13 173.535L304.426 153.155L283.278 143.294Z" fill="#202020"/>
<path d="M304.426 153.155L348.13 173.535L354.211 160.494M304.426 153.155L283.278 143.294L306.945 92.5407L342.19 108.976M304.426 153.155L310.507 140.114M342.19 108.976L371.796 122.781L354.211 160.494M342.19 108.976L335.616 123.074L316.588 127.074L310.507 140.114M310.507 140.114L354.211 160.494" stroke="white" stroke-width="2"/>
<rect width="56" height="12.4444" transform="matrix(0.422618 -0.906308 -0.906308 -0.422618 283.278 143.294)" fill="#202020" stroke="white" stroke-width="2"/>
<rect width="31.1111" height="12.4444" transform="matrix(0.422618 -0.906308 -0.906308 -0.422618 364.668 167.515)" fill="#202020" stroke="white" stroke-width="2"/>
<rect width="9.33333" height="34.2222" transform="matrix(0.422618 -0.906308 -0.906308 -0.422618 400.99 172.439)" fill="#5A5A5A" stroke="white" stroke-width="2"/>
<rect x="284" y="158.282" width="32" height="76" fill="#202020" stroke="white" stroke-width="2"/>
<rect x="308" y="158.282" width="8" height="76" fill="#202020" stroke="white" stroke-width="2"/>
<circle cx="300" cy="151.282" r="20" fill="#202020" stroke="white" stroke-width="2"/>
<circle cx="300" cy="151.282" r="8" fill="#202020" stroke="white" stroke-width="2"/>
<rect x="779" y="234.281" width="120" height="24" fill="#5A5A5A" stroke="white" stroke-width="2"/>
<rect x="823" y="158.281" width="32" height="76" fill="#202020" stroke="white" stroke-width="2"/>
<rect x="847" y="158.281" width="8" height="76" fill="#202020" stroke="white" stroke-width="2"/>
<rect x="778" y="100.851" width="32" height="76" transform="rotate(-40 778 100.851)" fill="#202020" stroke="white" stroke-width="2"/>
<rect x="796.385" y="85.4238" width="8" height="76" transform="rotate(-40 796.385 85.4238)" fill="#202020" stroke="white" stroke-width="2"/>
<circle cx="839" cy="151.281" r="20" fill="#202020" stroke="white" stroke-width="2"/>
<path d="M718.829 25.9072L786.487 1.28171L811.112 68.9396L743.454 93.565L717.136 79.7322L707.56 53.4208L718.829 25.9072Z" fill="#202020"/>
<path d="M707.56 53.4208L718.829 25.9072L786.487 1.28171L811.112 68.9396L743.454 93.565L717.136 79.7322M707.56 53.4208L717.136 79.7322M707.56 53.4208L719.734 53.2463L723.154 62.6433M717.136 79.7322L726.575 72.0402L723.154 62.6433M723.154 62.6433L738.659 56.9999" stroke="white" stroke-width="2"/>
<rect x="771.452" y="6.75415" width="16" height="72" transform="rotate(-20 771.452 6.75415)" fill="#202020" stroke="white" stroke-width="2"/>
<rect x="696.271" y="69.1885" width="16" height="6.0864" transform="rotate(-20 696.271 69.1885)" fill="#202020" stroke="white" stroke-width="2"/>
<rect x="735.923" y="49.4824" width="48" height="16" transform="rotate(-20 735.923 49.4824)" fill="#5A5A5A" stroke="white" stroke-width="2"/>
<circle cx="787" cy="86.2815" r="20" fill="#202020" stroke="white" stroke-width="2"/>
<circle cx="839" cy="151.281" r="8" fill="#202020" stroke="white" stroke-width="2"/>
<circle cx="787" cy="86.2815" r="8" fill="#202020" stroke="white" stroke-width="2"/>
<path d="M851.5 135.281C871.667 133.448 907.4 138.081 889 171.281C870.6 204.481 875.333 226.115 880 232.781" stroke="white" stroke-width="2"/>
<path d="M799.5 36.2813C812.833 28.1147 839.6 18.0813 840 43.2813C840.4 68.4813 818.5 80.7814 807.5 83.7815" stroke="white" stroke-width="2"/>
<path d="M284 111.282C270.833 111.448 245.9 119.882 251.5 152.282C257.1 184.682 275.5 192.115 284 191.782" stroke="white" stroke-width="2"/>
</svg>
