<svg width="166" height="166" viewBox="0 0 166 166" fill="none" xmlns="http://www.w3.org/2000/svg">
<circle cx="82.6783" cy="82.6781" r="59.7989" transform="rotate(-32 82.6783 82.6781)" stroke="#111111" stroke-width="1.19598"/>
<path d="M107.675 42.882C113.51 46.5414 118.628 51.5462 122.523 57.7798C126.418 64.0134 128.673 70.8072 129.404 77.6561M35.9514 87.6999C36.6824 94.5488 38.9372 101.343 42.8324 107.576C46.7276 113.81 51.8454 118.815 57.6807 122.474" stroke="#111111" stroke-width="1.19598"/>
<path d="M55.4796 92.9675C55.6487 92.8619 55.9246 92.8446 56.3075 92.9156C56.6903 92.9866 56.9557 93.1405 57.1036 93.3771C57.5092 94.0263 57.9604 95.4931 58.4571 97.7776C58.637 98.5771 58.8073 99.1053 58.9678 99.3623C58.989 99.3961 59.0084 99.4122 59.0261 99.4105C59.0439 99.4088 59.1711 99.334 59.4078 99.1861C59.6444 99.0382 59.9478 98.8016 60.3181 98.4763C60.6908 98.1399 60.9845 97.8577 61.1992 97.6295C61.4207 97.3971 61.5551 97.2661 61.6024 97.2365C61.7714 97.1309 61.9236 97.1863 62.0588 97.4027C62.3249 97.8286 62.2159 98.3763 61.7315 99.0456C61.2497 99.7039 60.5828 100.299 59.7309 100.832C59.3996 101.039 59.0192 101.107 58.5899 101.037C58.1631 100.956 57.8567 100.766 57.6708 100.469C57.4849 100.171 57.1351 99.0549 56.6215 97.1194C56.1036 95.1772 55.6946 93.9661 55.3946 93.486C55.2552 93.2629 55.2835 93.09 55.4796 92.9675ZM60.731 91.1951C60.6211 91.0193 60.5869 90.7915 60.6284 90.5118C60.6723 90.221 60.7687 90.0292 60.9175 89.9362C61.073 89.8391 61.3696 89.9075 61.8074 90.1417C62.2452 90.3758 62.5169 90.5774 62.6225 90.7465C62.7239 90.9088 62.748 91.0677 62.6947 91.2232C62.6414 91.3787 62.5573 91.4923 62.4424 91.5642C62.2463 91.6867 61.9395 91.6998 61.522 91.6034C61.1045 91.507 60.8408 91.3709 60.731 91.1951ZM61.6753 92.3678C61.912 92.2199 62.2061 92.2242 62.5577 92.3806C62.916 92.5327 63.1733 92.7339 63.3297 92.9841C63.41 93.1126 63.581 93.6497 63.843 94.5954C64.1074 95.5302 64.3465 96.4244 64.5602 97.278C64.6439 97.5924 64.5606 97.8278 64.3104 97.9841C64.1617 98.0771 63.996 98.1054 63.8135 98.069C63.6335 98.0217 63.4885 97.9101 63.3787 97.7343C63.2646 97.5517 63.0703 97.0527 62.7957 96.2371C62.5236 95.4105 62.2752 94.7195 62.0504 94.1642C61.8282 93.598 61.6825 93.1766 61.6132 92.9003C61.5464 92.6129 61.5672 92.4354 61.6753 92.3678ZM66.7138 89.2195C66.8896 89.1096 67.0988 89.0682 67.3413 89.0953C67.5864 89.1114 67.7512 89.187 67.8357 89.3223C67.9878 89.5657 68.1378 90.257 68.2856 91.3963C68.4401 92.5314 68.514 93.4771 68.5071 94.2335C68.5071 94.9857 68.4124 95.421 68.223 95.5393C68.1216 95.6026 67.9306 95.628 67.65 95.6153C67.3762 95.5983 67.17 95.5392 67.0314 95.4377C66.6241 95.147 65.9759 94.546 65.0869 93.6348C64.1936 92.7169 63.6583 92.1159 63.4808 91.832C63.3033 91.548 63.3093 91.3468 63.4986 91.2285C63.7285 91.0849 64.0222 91.0283 64.3797 91.0587C64.9798 91.1163 65.4661 91.3906 65.8388 91.8816C66.0112 92.1124 66.2161 92.4027 66.4536 92.7526C66.6868 93.0958 66.9073 93.381 67.1152 93.6084C67.0832 93.196 66.9953 92.6115 66.8517 91.8551C66.7039 91.0919 66.6067 90.4851 66.5603 90.0346C66.5206 89.5799 66.5718 89.3082 66.7138 89.2195ZM73.1717 87.8213C73.3788 88.1526 73.3382 88.5917 73.0499 89.1384C72.7684 89.681 72.391 90.1002 71.9177 90.3959C71.4444 90.6917 71.0345 90.9008 70.6879 91.0233C70.7412 91.2439 70.8248 91.4455 70.9389 91.6281C71.053 91.8106 71.1658 91.9235 71.2774 91.9666C71.3847 92.0029 71.5601 91.9451 71.8035 91.793C72.3106 91.4761 72.7138 91.1583 73.013 90.8397C73.319 90.5169 73.4787 90.3513 73.4922 90.3428C73.7695 90.1696 73.9651 90.1743 74.0792 90.3568C74.244 90.6205 74.1806 91.008 73.8889 91.5193C73.6041 92.0264 73.1743 92.4595 72.5995 92.8186C72.0315 93.1736 71.4632 93.2796 70.8944 93.1367C70.3256 92.9938 69.8891 92.6789 69.5849 92.1921C69.2765 91.6985 69.0974 91.0959 69.0476 90.3843C69.0045 89.6684 69.0874 88.9961 69.2962 88.3673C69.5008 87.7318 69.8161 87.2809 70.2421 87.0147C70.6748 86.7443 71.2069 86.708 71.8382 86.9059C72.4653 87.0969 72.9098 87.4021 73.1717 87.8213ZM71.8938 88.3942C71.8516 88.3266 71.7193 88.2729 71.497 88.2331C71.2748 88.1934 71.0994 88.2137 70.9709 88.2939C70.8492 88.37 70.7473 88.5606 70.6653 88.8657C70.5791 89.164 70.5368 89.5101 70.5385 89.9039C70.6035 89.8727 70.6936 89.8211 70.8085 89.7493C71.7348 89.1704 72.0966 88.7187 71.8938 88.3942ZM76.4994 81.3419C76.3895 81.1661 76.3553 80.9383 76.3967 80.6586C76.4407 80.3679 76.5371 80.176 76.6858 80.0831C76.8414 79.9859 77.138 80.0544 77.5758 80.2885C78.0135 80.5227 78.2852 80.7243 78.3909 80.8933C78.4923 81.0556 78.5163 81.2145 78.4631 81.37C78.4098 81.5255 78.3257 81.6392 78.2108 81.711C78.0147 81.8335 77.7079 81.8466 77.2904 81.7502C76.8729 81.6538 76.6092 81.5177 76.4994 81.3419ZM77.4437 82.5147C77.6804 82.3668 77.9745 82.371 78.3261 82.5274C78.6844 82.6796 78.9417 82.8807 79.098 83.1309C79.1783 83.2594 79.3494 83.7965 79.6113 84.7423C79.8758 85.677 80.1149 86.5712 80.3286 87.4249C80.4123 87.7393 80.329 87.9746 80.0788 88.131C79.93 88.2239 79.7644 88.2522 79.5818 88.2159C79.4018 88.1685 79.2569 88.0569 79.147 87.8811C79.033 87.6986 78.8386 87.1995 78.564 86.3839C78.292 85.5573 78.0436 84.8664 77.8188 84.3111C77.5966 83.7448 77.4508 83.3235 77.3815 83.0471C77.3148 82.7597 77.3355 82.5823 77.4437 82.5147ZM82.3134 81.15C82.3734 81.3663 82.4528 81.674 82.5516 82.0729C82.653 82.4608 82.7801 82.9502 82.9331 83.541C83.0927 84.1275 83.1831 84.4377 83.2043 84.4715C83.2212 84.4986 83.2837 84.4783 83.3919 84.4107C83.5068 84.3389 83.7275 84.0976 84.0537 83.6869C84.3758 83.2694 84.574 83.0374 84.6484 82.9909C84.8174 82.8853 84.9737 82.9475 85.1174 83.1774C85.2611 83.4072 85.2078 83.826 84.9575 84.4337C84.7031 85.0345 84.3291 85.4892 83.8355 85.7976C83.6191 85.9328 83.2882 85.9751 82.8428 85.9243C82.3974 85.8736 82.0987 85.7265 81.9466 85.4831C81.8198 85.2802 81.6551 84.7909 81.4523 84.015C81.2521 83.2281 81.1131 82.6897 81.0354 82.3998C80.8181 82.639 80.6419 82.8008 80.5067 82.8853C80.3714 82.9698 80.1724 82.9673 79.9096 82.8777C79.6425 82.7813 79.4562 82.6486 79.3505 82.4796C79.2153 82.2632 79.6253 81.7532 80.5804 80.9495C80.3159 80.2404 80.04 79.656 79.7527 79.1962C79.626 78.9933 79.664 78.8285 79.8669 78.7018C80.0427 78.5919 80.3334 78.5607 80.7391 78.608C81.1473 78.6444 81.4169 78.7674 81.5479 78.977C81.6746 79.1799 81.8102 79.4947 81.9547 79.9215C82.2708 79.7052 82.5134 79.5442 82.6824 79.4386C83.1896 79.1217 83.5149 79.0782 83.6586 79.3081C83.7516 79.4568 83.6831 79.6783 83.4532 79.9724C83.2258 80.2555 82.8459 80.648 82.3134 81.15ZM88.0932 83.3768C87.8769 83.512 87.551 83.5323 87.1158 83.4376C86.6873 83.3387 86.4139 83.1946 86.2956 83.0052C86.1731 82.8091 86.1372 82.5636 86.1879 82.2687C86.2344 81.9669 86.3422 81.7633 86.5113 81.6576C86.6871 81.5478 87.0015 81.6146 87.4544 81.858C87.9074 82.1015 88.1952 82.3213 88.3177 82.5173C88.3811 82.6188 88.3866 82.7705 88.3341 82.9725C88.2885 83.1702 88.2082 83.305 88.0932 83.3768ZM93.4717 69.3684C93.6678 69.2459 93.9476 69.2121 94.311 69.2671C94.6811 69.3178 94.9064 69.4075 94.9866 69.5359C95.2528 69.9619 95.6141 70.7657 96.0703 71.9473C96.5291 73.1178 96.903 74.2804 97.192 75.4349C97.4809 76.5894 97.5003 77.2448 97.2501 77.4012C97.1487 77.4645 96.983 77.4928 96.7531 77.4861C96.519 77.4725 96.3284 77.4083 96.1814 77.2933C96.0301 77.1716 95.7267 76.9193 95.2712 76.5364C94.2242 75.6582 93.3157 74.9566 92.5458 74.4317C92.6252 74.6641 92.7406 74.9916 92.8918 75.4142C93.0498 75.8326 93.1727 76.1647 93.2606 76.4107C93.3443 76.6499 93.4473 76.9427 93.5699 77.2893C93.6881 77.629 93.7752 77.9037 93.8309 78.1133C93.8935 78.3187 93.9492 78.5283 93.9982 78.7421C94.0971 79.141 94.0992 79.3701 94.0045 79.4292C93.8693 79.5137 93.6174 79.5019 93.2489 79.3937C92.8762 79.2787 92.6349 79.1333 92.5251 78.9575C92.411 78.7749 92.0143 77.7113 91.335 75.7665C90.6624 73.8175 90.2078 72.6161 89.9712 72.1622C89.831 71.8926 89.8285 71.7155 89.9637 71.631C90.0786 71.5592 90.2663 71.536 90.5266 71.5613C90.7936 71.5825 91.0527 71.651 91.3037 71.7668C91.5572 71.8716 92.1881 72.3471 93.1963 73.1932C94.2045 74.0393 94.9536 74.6288 95.4438 74.9619C95.2174 74.0127 94.7214 72.6773 93.9558 70.9557C93.6508 70.2719 93.4696 69.854 93.4121 69.7018C93.3504 69.543 93.3703 69.4318 93.4717 69.3684ZM100.27 74.0897C100.534 73.6993 100.647 73.1728 100.609 72.5102C100.571 71.8476 100.416 71.2999 100.146 70.8672C99.8756 70.4344 99.6289 70.1749 99.4058 70.0887C99.2206 70.4394 99.1517 70.9761 99.199 71.6987C99.253 72.4171 99.4089 72.9825 99.6666 73.395C99.9201 73.8007 100.121 74.0323 100.27 74.0897ZM98.3709 74.3456C97.8427 73.5004 97.6024 72.5365 97.6498 71.4539C97.704 70.367 97.988 69.663 98.5019 69.3419C99.0158 69.0208 99.5626 68.933 100.142 69.0784C100.718 69.217 101.166 69.5433 101.487 70.0572C101.804 70.5643 102.006 71.1576 102.092 71.8372C102.178 72.5167 102.111 73.1695 101.891 73.7958C101.667 74.4153 101.305 74.8813 100.805 75.194C100.433 75.4264 100.008 75.4614 99.5308 75.2991C99.0533 75.1368 98.6666 74.819 98.3709 74.3456ZM106.927 64.0914C107.116 63.9731 107.363 63.9085 107.666 63.8975C107.976 63.8823 108.176 63.9457 108.265 64.0877C108.353 64.2297 108.538 64.7816 108.82 65.7434C109.101 66.7053 109.2 67.6683 109.116 68.6326C109.035 69.586 108.876 70.1366 108.639 70.2844C108.545 70.3436 108.36 70.3647 108.086 70.3478C107.813 70.3309 107.582 70.2632 107.396 70.1449C107.08 69.9564 106.502 69.1893 105.662 67.8438C105.962 68.9721 106.102 69.933 106.081 70.7266C106.055 71.5135 105.928 71.9787 105.698 72.1224C105.596 72.1858 105.405 72.2111 105.125 72.1984C104.851 72.1815 104.645 72.1223 104.506 72.0209C104.129 71.7487 103.552 71.141 102.775 70.1977C101.997 69.2544 101.49 68.5935 101.254 68.2148C101.08 67.9376 101.088 67.7398 101.278 67.6215C101.535 67.461 101.896 67.4517 102.36 67.5937C102.825 67.7358 103.113 67.8947 103.222 68.0705C103.835 69.0509 104.333 69.8255 104.717 70.3944C104.73 69.8129 104.652 69.1469 104.484 68.3964C104.322 67.6417 104.197 67.0429 104.109 66.6C104.02 66.1571 104.05 65.8892 104.199 65.7963C104.496 65.6103 104.881 65.5719 105.354 65.681C105.822 65.7833 106.149 65.9832 106.335 66.2807C106.419 66.416 106.571 66.7114 106.79 67.1669C107.015 67.6182 107.196 67.9521 107.331 68.1685C107.466 68.3848 107.592 68.5556 107.708 68.6807C107.791 68.3181 107.779 67.8698 107.671 67.3356C107.57 66.7972 107.436 66.3121 107.269 65.8802C106.859 64.8018 106.745 64.2055 106.927 64.0914Z" fill="#111111"/>
<path d="M75.1182 133.245C75.0433 133.239 74.985 133.21 74.9434 133.159C74.9026 133.101 74.8866 133.038 74.8953 132.971L75.0228 131.974C75.035 131.879 75.062 131.803 75.1039 131.744C75.1526 131.686 75.1923 131.645 75.223 131.62L79.024 127.893L75.9274 127.649C75.8593 127.644 75.801 127.615 75.7526 127.564C75.711 127.513 75.6949 127.45 75.7045 127.375L75.8333 126.368C75.8429 126.294 75.8745 126.235 75.9283 126.191C75.9889 126.148 76.0532 126.129 76.1214 126.134L81.2721 126.539C81.3471 126.545 81.4053 126.574 81.447 126.625C81.4954 126.676 81.5148 126.74 81.5053 126.814L81.379 127.8C81.3695 127.875 81.3476 127.938 81.3134 127.99C81.286 128.043 81.2489 128.092 81.2019 128.136L77.4916 131.881L80.6801 132.131C80.7551 132.137 80.8129 132.169 80.8537 132.227C80.9021 132.279 80.9216 132.342 80.912 132.416L80.7819 133.433C80.7723 133.508 80.7372 133.567 80.6767 133.61C80.6229 133.653 80.5585 133.672 80.4836 133.666L75.1182 133.245Z" fill="#111111"/>
<path d="M88.2086 133.362C87.6393 133.435 87.1498 133.406 86.7402 133.273C86.3374 133.139 86.0157 132.916 85.7751 132.603C85.5406 132.282 85.3884 131.885 85.3186 131.412C85.2996 131.277 85.2825 131.124 85.2672 130.954C85.2513 130.777 85.241 130.624 85.2361 130.493C85.2199 130.007 85.3049 129.579 85.4913 129.21C85.6776 128.842 85.9557 128.541 86.3255 128.307C86.7021 128.072 87.1649 127.919 87.7139 127.848C88.2696 127.776 88.7489 127.807 89.1517 127.941C89.5613 128.073 89.8898 128.296 90.1372 128.608C90.3846 128.92 90.5436 129.316 90.614 129.796C90.6324 129.924 90.6495 130.077 90.6654 130.254C90.6807 130.424 90.691 130.578 90.6965 130.715C90.7121 131.195 90.6305 131.622 90.4515 131.997C90.2787 132.363 90.004 132.664 89.6274 132.899C89.2576 133.133 88.7847 133.287 88.2086 133.362ZM88.0968 132.116C88.4018 132.076 88.6138 131.956 88.7329 131.755C88.8587 131.552 88.9153 131.266 88.9027 130.896C88.9003 130.793 88.8914 130.656 88.8762 130.486C88.8609 130.316 88.8453 130.18 88.8294 130.079C88.7767 129.721 88.6709 129.459 88.5121 129.294C88.3594 129.121 88.1306 129.054 87.8256 129.094C87.5274 129.132 87.3157 129.256 87.1905 129.465C87.0647 129.668 87.0111 129.95 87.03 130.312C87.0323 130.415 87.0412 130.552 87.0564 130.722C87.0717 130.892 87.0873 131.028 87.1032 131.129C87.1498 131.495 87.2525 131.761 87.4113 131.926C87.5701 132.091 87.7986 132.155 88.0968 132.116Z" fill="#111111"/>
<path d="M102.574 129.429C102.507 129.463 102.441 129.468 102.378 129.446C102.311 129.418 102.263 129.373 102.234 129.312L101.799 128.406C101.758 128.319 101.739 128.241 101.743 128.17C101.754 128.097 101.765 128.042 101.778 128.005L103.002 122.923L100.216 124.295C100.154 124.325 100.089 124.331 100.019 124.312C99.9556 124.29 99.9076 124.245 99.8751 124.177L99.4365 123.262C99.404 123.194 99.3988 123.128 99.4211 123.064C99.4495 122.997 99.4943 122.948 99.5556 122.918L104.191 120.635C104.258 120.602 104.324 120.596 104.387 120.618C104.457 120.637 104.508 120.681 104.541 120.749L104.97 121.645C105.003 121.713 105.019 121.778 105.018 121.839C105.023 121.897 105.018 121.957 105.001 122.018L103.864 127.069L106.734 125.656C106.801 125.623 106.868 125.62 106.934 125.648C107.004 125.667 107.055 125.711 107.088 125.779L107.531 126.703C107.563 126.771 107.565 126.838 107.537 126.906C107.515 126.97 107.47 127.019 107.403 127.052L102.574 129.429Z" fill="#111111"/>
<path d="M114.04 122.685C113.586 123.037 113.146 123.262 112.718 123.36C112.295 123.454 111.894 123.432 111.515 123.294C111.136 123.146 110.787 122.893 110.469 122.535C110.378 122.432 110.28 122.314 110.174 122.18C110.064 122.041 109.971 121.918 109.896 121.812C109.616 121.415 109.456 121.016 109.417 120.614C109.378 120.212 109.455 119.82 109.648 119.436C109.847 119.049 110.165 118.685 110.602 118.346C111.045 118.003 111.478 117.784 111.9 117.69C112.328 117.592 112.735 117.61 113.12 117.744C113.505 117.877 113.859 118.126 114.182 118.49C114.268 118.587 114.366 118.706 114.476 118.845C114.582 118.979 114.675 119.101 114.755 119.213C115.03 119.604 115.192 120.002 115.241 120.405C115.292 120.798 115.217 121.189 115.019 121.576C114.825 121.959 114.499 122.329 114.04 122.685ZM113.263 121.705C113.506 121.516 113.625 121.308 113.618 121.08C113.617 120.847 113.51 120.58 113.297 120.278C113.239 120.193 113.156 120.084 113.05 119.95C112.944 119.816 112.857 119.711 112.788 119.635C112.546 119.364 112.312 119.2 112.084 119.143C111.857 119.077 111.622 119.138 111.379 119.326C111.141 119.511 111.025 119.722 111.031 119.96C111.032 120.192 111.139 120.455 111.354 120.747C111.412 120.831 111.494 120.941 111.6 121.075C111.706 121.209 111.794 121.314 111.863 121.39C112.103 121.671 112.337 121.839 112.565 121.896C112.793 121.953 113.026 121.889 113.263 121.705Z" fill="#111111"/>
<path d="M124.358 111.882C124.317 111.944 124.262 111.983 124.195 111.999C124.122 112.01 124.056 111.999 123.998 111.963L123.138 111.444C123.056 111.394 122.998 111.339 122.964 111.279C122.934 111.213 122.915 111.162 122.906 111.125L121.283 106.291L119.574 108.885C119.536 108.942 119.482 108.981 119.411 109.002C119.343 109.017 119.278 109.005 119.213 108.966L118.344 108.442C118.28 108.403 118.241 108.351 118.226 108.286C118.215 108.216 118.228 108.152 118.266 108.095L121.109 103.781C121.151 103.718 121.205 103.679 121.272 103.664C121.343 103.643 121.411 103.652 121.475 103.691L122.327 104.205C122.391 104.244 122.439 104.289 122.471 104.34C122.506 104.385 122.533 104.438 122.552 104.497L124.235 109.258L125.995 106.588C126.036 106.525 126.093 106.488 126.166 106.476C126.237 106.455 126.305 106.464 126.369 106.503L127.247 107.033C127.311 107.072 127.349 107.126 127.36 107.197C127.374 107.261 127.361 107.325 127.32 107.388L124.358 111.882Z" fill="#111111"/>
<path d="M130.653 100.333C130.442 100.867 130.177 101.289 129.857 101.599C129.539 101.902 129.18 102.097 128.778 102.185C128.373 102.264 127.939 102.239 127.476 102.111C127.344 102.074 127.197 102.028 127.035 101.973C126.867 101.916 126.722 101.864 126.602 101.816C126.152 101.634 125.806 101.387 125.562 101.074C125.319 100.761 125.181 100.394 125.149 99.9724C125.12 99.5444 125.206 99.0729 125.409 98.5579C125.615 98.0365 125.876 97.6242 126.194 97.321C126.514 97.0113 126.876 96.8096 127.28 96.7157C127.684 96.6218 128.12 96.64 128.59 96.7702C128.716 96.8055 128.862 96.8516 129.031 96.9086C129.193 96.9634 129.337 97.0159 129.464 97.0661C129.907 97.2449 130.255 97.4888 130.507 97.7977C130.756 98.098 130.895 98.4621 130.924 98.8901C130.956 99.3117 130.866 99.7927 130.653 100.333ZM129.468 99.9321C129.581 99.646 129.575 99.4097 129.45 99.2234C129.328 99.0307 129.096 98.8656 128.754 98.7282C128.659 98.689 128.531 98.642 128.369 98.5872C128.207 98.5324 128.077 98.4917 127.977 98.4652C127.627 98.3681 127.338 98.3568 127.11 98.4311C126.879 98.4969 126.707 98.6729 126.594 98.959C126.484 99.2388 126.493 99.4761 126.622 99.671C126.744 99.8637 126.974 100.024 127.312 100.153C127.407 100.193 127.535 100.24 127.697 100.294C127.858 100.349 127.989 100.39 128.089 100.416C128.443 100.522 128.734 100.538 128.962 100.463C129.189 100.389 129.358 100.212 129.468 99.9321Z" fill="#111111"/>
<path d="M36.5851 63.4972C36.6021 63.4239 36.6389 63.3705 36.6957 63.3369C36.7591 63.3052 36.8236 63.2986 36.8894 63.3172L37.8561 63.5908C37.9481 63.6169 38.0199 63.6549 38.0714 63.7049C38.1214 63.7617 38.1564 63.807 38.1766 63.8411L41.3007 68.1517L41.9994 65.1252C42.0148 65.0586 42.0516 65.0052 42.1099 64.9649C42.1667 64.9313 42.2313 64.9248 42.3036 64.9452L43.2801 65.2216C43.3525 65.2421 43.4063 65.2821 43.4416 65.3418C43.4753 65.4081 43.4845 65.4745 43.4691 65.5411L42.3069 70.5753C42.2899 70.6485 42.2531 70.702 42.1963 70.7355C42.138 70.7758 42.0726 70.7857 42.0003 70.7652L41.0435 70.4944C40.9712 70.474 40.9118 70.443 40.8653 70.4014C40.8173 70.3666 40.7749 70.3227 40.7381 70.2697L37.5834 66.0462L36.8639 69.1626C36.847 69.2359 36.8069 69.2884 36.7435 69.3201C36.6852 69.3603 36.6198 69.3702 36.5475 69.3498L35.5611 69.0706C35.4888 69.0501 35.4358 69.0068 35.402 68.9405C35.3668 68.8808 35.3576 68.8144 35.3745 68.7411L36.5851 63.4972Z" fill="#111111"/>
<path d="M41.7992 56.9207C41.4833 57.4 41.2952 57.8528 41.2351 58.2792C41.1786 58.6998 41.2384 59.0869 41.4143 59.4404C41.5999 59.7918 41.8899 60.1026 42.2843 60.3727C42.3976 60.449 42.5273 60.5314 42.6736 60.6197C42.8257 60.7116 42.9592 60.7882 43.0741 60.8496C43.5045 61.0776 43.9261 61.1886 44.339 61.1827C44.7519 61.1767 45.1444 61.0588 45.5168 60.8289C45.8929 60.5934 46.2332 60.2445 46.5378 59.7823C46.8462 59.3144 47.0286 58.8701 47.0851 58.4494C47.1452 58.0231 47.0892 57.6303 46.9171 57.271C46.7449 56.9118 46.4587 56.5953 46.0584 56.3217C45.951 56.2489 45.8212 56.1665 45.6691 56.0747C45.5229 55.9863 45.3893 55.9097 45.2686 55.8448C44.844 55.6203 44.4243 55.5064 44.0093 55.5031C43.604 55.4977 43.2133 55.6127 42.8372 55.8483C42.4649 56.0782 42.1189 56.4356 41.7992 56.9207ZM42.8698 57.5672C43.039 57.3104 43.2402 57.1726 43.4734 57.1539C43.7103 57.1294 43.9924 57.2041 44.3196 57.3777C44.4111 57.425 44.53 57.4928 44.6762 57.5811C44.8225 57.6694 44.9376 57.7429 45.0216 57.8016C45.3204 58.006 45.5093 58.2158 45.5882 58.431C45.6768 58.6441 45.6365 58.879 45.4673 59.1358C45.3018 59.3868 45.0977 59.5228 44.8549 59.5437C44.6179 59.5682 44.3407 59.4925 44.0231 59.3167C43.9316 59.2694 43.8127 59.2016 43.6664 59.1132C43.5202 59.0249 43.4051 58.9514 43.3211 58.8927C43.0127 58.6905 42.819 58.4818 42.74 58.2666C42.661 58.0514 42.7043 57.8182 42.8698 57.5672Z" fill="#111111"/>
<path d="M53.8697 42.0133C53.921 41.9583 53.9803 41.9298 54.0475 41.9279C54.1197 41.9306 54.1806 41.9555 54.2301 42.0026L54.9575 42.6956C55.0268 42.7616 55.072 42.8283 55.0932 42.8957C55.1098 42.9681 55.1187 43.0237 55.1198 43.0626L55.7782 48.2484L57.8966 45.9767C57.9432 45.9267 58.0025 45.8983 58.0744 45.8913C58.1417 45.8893 58.2025 45.9142 58.257 45.9661L58.9918 46.6661C59.0462 46.7179 59.0744 46.7778 59.0765 46.8458C59.0738 46.9188 59.0492 46.9803 59.0026 47.0303L55.4789 50.8089C55.4277 50.8639 55.3684 50.8923 55.3011 50.8943C55.2292 50.9013 55.166 50.8789 55.1116 50.827L54.3916 50.1412C54.3372 50.0893 54.2995 50.0346 54.2786 49.9769C54.2529 49.9242 54.2368 49.8663 54.2301 49.8033L53.5014 44.6779L51.3201 47.0171C51.2688 47.072 51.2071 47.0982 51.1349 47.0954C51.0629 47.1024 50.9998 47.08 50.9453 47.0281L50.2031 46.3211C50.1486 46.2692 50.1227 46.2068 50.1254 46.1338C50.1234 46.0658 50.148 46.0044 50.1993 45.9494L53.8697 42.0133Z" fill="#111111"/>
<path d="M62.6642 39.0333C62.1492 39.2869 61.7538 39.5845 61.4779 39.926C61.2082 40.2645 61.0522 40.6346 61.0098 41.0363C60.9765 41.4412 61.051 41.8654 61.2332 42.3089C61.2861 42.4351 61.3495 42.5753 61.4234 42.7294C61.5002 42.8896 61.5697 43.0268 61.632 43.1409C61.8662 43.5664 62.1553 43.8849 62.4991 44.0964C62.843 44.3079 63.2296 44.4108 63.6588 44.4052C64.0942 44.3964 64.5601 44.2698 65.0568 44.0253C65.5595 43.7777 65.9458 43.4847 66.2155 43.1462C66.4913 42.8047 66.6535 42.4315 66.702 42.0268C66.7505 41.622 66.6822 41.1948 66.497 40.7452C66.447 40.6251 66.3836 40.4849 66.3068 40.3247C66.233 40.1706 66.1635 40.0334 66.0982 39.9132C65.867 39.4939 65.581 39.1739 65.2403 38.9531C64.9086 38.7356 64.5251 38.6311 64.0898 38.6399C63.6606 38.6455 63.1854 38.7767 62.6642 39.0333ZM63.2048 40.1611C63.4807 40.0253 63.7198 40.0104 63.9222 40.1164C64.1307 40.2194 64.3239 40.4327 64.5018 40.7565C64.5522 40.8459 64.6144 40.9676 64.6882 41.1217C64.762 41.2758 64.8181 41.4006 64.8562 41.496C64.9944 41.8317 65.039 42.1145 64.99 42.3443C64.95 42.5772 64.7921 42.7616 64.5162 42.8975C64.2465 43.0303 64.0059 43.0421 63.7944 42.933C63.5859 42.83 63.3972 42.6182 63.2284 42.2976C63.178 42.2082 63.1158 42.0864 63.042 41.9323C62.9682 41.7783 62.9121 41.6535 62.874 41.558C62.7267 41.2192 62.6776 40.9349 62.7266 40.7051C62.7756 40.4753 62.935 40.294 63.2048 40.1611Z" fill="#111111"/>
<path d="M80.9973 32.6367C81.0725 32.6341 81.1357 32.6558 81.1871 32.7018C81.2389 32.7547 81.2674 32.8152 81.2725 32.8834L81.3471 33.8852C81.3542 33.9806 81.343 34.0596 81.3134 34.1221C81.277 34.1849 81.2462 34.2304 81.2209 34.2586L78.2206 38.3812L81.3248 38.2728C81.3931 38.2704 81.4563 38.2921 81.5145 38.3379C81.5659 38.3839 81.5944 38.4444 81.6 38.5194L81.6754 39.5315C81.6809 39.6064 81.6616 39.6686 81.6174 39.718C81.5663 39.7676 81.5066 39.7936 81.4383 39.796L76.2748 39.9763C76.1997 39.9789 76.1364 39.9572 76.0851 39.9112C76.0269 39.8654 75.995 39.805 75.9894 39.73L75.9155 38.7384C75.9099 38.6634 75.9188 38.5982 75.942 38.5427C75.9584 38.4875 75.9854 38.4353 76.0228 38.3862L78.9302 34.2566L75.7337 34.3682C75.6586 34.3708 75.5951 34.3457 75.5432 34.2929C75.485 34.2471 75.4531 34.1867 75.4475 34.1117L75.3714 33.0894C75.3658 33.0145 75.3885 32.9522 75.4396 32.9026C75.4839 32.8532 75.5436 32.8272 75.6187 32.8246L80.9973 32.6367Z" fill="#111111"/>
<path d="M89.3109 34.3538C88.7386 34.3088 88.2432 34.3623 87.8246 34.5143C87.4128 34.6668 87.0796 34.9042 86.825 35.2266C86.5764 35.5562 86.408 35.9572 86.32 36.4296C86.2959 36.5647 86.2729 36.7169 86.2512 36.8864C86.2287 37.0626 86.2126 37.2154 86.2029 37.3448C86.1685 37.8282 86.2387 38.248 86.4133 38.604C86.5879 38.9601 86.8577 39.2449 87.2226 39.4585C87.5944 39.6726 88.0562 39.8013 88.608 39.8446C89.1667 39.8886 89.6519 39.8342 90.0637 39.6817C90.4823 39.5298 90.8223 39.2929 91.0837 38.9711C91.3451 38.6493 91.5203 38.2488 91.6091 37.7696C91.6324 37.6413 91.6554 37.4891 91.6779 37.3128C91.6996 37.1434 91.7157 36.9906 91.7263 36.8545C91.7598 36.3778 91.693 35.9583 91.5261 35.596C91.3651 35.241 91.0987 34.9565 90.727 34.7424C90.3621 34.5288 89.89 34.3993 89.3109 34.3538ZM89.1521 35.5943C89.4587 35.6184 89.6684 35.7273 89.7813 35.9211C89.9009 36.1153 89.9475 36.3963 89.9211 36.764C89.9149 36.8662 89.9009 37.002 89.8792 37.1715C89.8576 37.341 89.8368 37.4763 89.817 37.5774C89.7505 37.9351 89.6341 38.1998 89.4676 38.3716C89.307 38.5507 89.0734 38.6282 88.7668 38.6041C88.467 38.5806 88.2578 38.4683 88.139 38.2672C88.0193 38.0729 87.9757 37.7956 88.0081 37.4353C88.0143 37.3331 88.0282 37.1972 88.0499 37.0277C88.0716 36.8583 88.0924 36.723 88.1122 36.6218C88.1727 36.2568 88.2862 35.9884 88.4527 35.8167C88.6192 35.6449 88.8523 35.5708 89.1521 35.5943Z" fill="#111111"/>
<path d="M66.9135 125.176C67.1227 125.24 67.3007 125.348 67.4474 125.499C67.5856 125.656 67.6801 125.838 67.7311 126.046C67.782 126.255 67.7766 126.46 67.715 126.663C67.6493 126.879 67.5384 127.056 67.382 127.194C67.2257 127.332 67.0466 127.428 66.8448 127.481C66.6365 127.531 66.4277 127.525 66.2185 127.461C66.0092 127.398 65.8355 127.288 65.6973 127.132C65.5592 126.975 65.4636 126.796 65.4107 126.594C65.3578 126.393 65.3642 126.184 65.4298 125.968C65.4914 125.765 65.6014 125.592 65.7597 125.447C65.9181 125.302 66.0981 125.203 66.2999 125.15C66.4998 125.104 66.7043 125.113 66.9135 125.176Z" fill="#111111"/>
<path d="M127.492 87.7701C127.521 87.5534 127.599 87.3603 127.725 87.1909C127.857 87.0292 128.021 86.9064 128.218 86.8224C128.416 86.7383 128.62 86.7103 128.83 86.7383C129.053 86.7681 129.246 86.8489 129.407 86.9808C129.569 87.1126 129.692 87.2738 129.777 87.4644C129.861 87.6617 129.889 87.8688 129.86 88.0856C129.831 88.3024 129.751 88.4916 129.619 88.6533C129.487 88.815 129.326 88.9383 129.135 89.0232C128.945 89.1081 128.738 89.1357 128.514 89.1059C128.304 89.0779 128.115 88.9976 127.946 88.8648C127.778 88.7321 127.651 88.5704 127.566 88.3798C127.488 88.1901 127.464 87.9869 127.492 87.7701Z" fill="#111111"/>
<path d="M37.8085 78.4669C37.843 78.251 37.8242 78.0438 37.7521 77.8454C37.6722 77.6527 37.5497 77.4878 37.3848 77.3507C37.2199 77.2136 37.0328 77.1283 36.8236 77.0948C36.6009 77.0592 36.3932 77.0814 36.2004 77.1613C36.0077 77.2413 35.8433 77.3603 35.7073 77.5185C35.5702 77.6835 35.4844 77.8739 35.4499 78.0899C35.4154 78.3058 35.4381 78.5102 35.518 78.7029C35.5979 78.8956 35.717 79.06 35.8752 79.196C36.0334 79.332 36.2238 79.4178 36.4465 79.4534C36.6557 79.4869 36.8601 79.4642 37.0596 79.3853C37.259 79.3065 37.4268 79.188 37.5628 79.0298C37.6921 78.8705 37.774 78.6829 37.8085 78.4669Z" fill="#111111"/>
<path d="M97.9852 40.4171C98.1927 40.4862 98.4002 40.5012 98.6077 40.4622C98.8108 40.4146 98.9934 40.3205 99.1554 40.1799C99.3174 40.0394 99.4319 39.8686 99.4988 39.6676C99.57 39.4536 99.5818 39.2451 99.5342 39.0419C99.4866 38.8388 99.3957 38.6573 99.2617 38.4974C99.1211 38.3354 98.9471 38.2199 98.7396 38.1508C98.5321 38.0817 98.3268 38.071 98.1237 38.1186C97.9205 38.1663 97.739 38.2571 97.5792 38.3912C97.4193 38.5252 97.3038 38.6992 97.2325 38.9132C97.1656 39.1142 97.1549 39.3196 97.2004 39.5292C97.2458 39.7388 97.3356 39.9235 97.4697 40.0834C97.6059 40.2368 97.7777 40.348 97.9852 40.4171Z" fill="#111111"/>
</svg>
