<svg width="24" height="24" viewBox="0 0 24 24" fill="none" xmlns="http://www.w3.org/2000/svg">
<g clip-path="url(#clip0_2997_19)">
<path d="M12 0C13.1046 2.83472e-06 14 0.895432 14 2V3.17188L15.5859 1.58594L15.7373 1.44824C16.5229 0.807452 17.6818 0.853673 18.4141 1.58594C19.1951 2.36699 19.1951 3.63301 18.4141 4.41406L14 8.82812V10H15.1719L19.5859 5.58594L19.7373 5.44824C20.5229 4.80745 21.6818 4.85367 22.4141 5.58594C23.1463 6.3182 23.1926 7.47715 22.5518 8.2627L22.4141 8.41406L20.8281 10H22C23.1046 10 24 10.8954 24 12C24 13.1046 23.1046 14 22 14H20.8281L22.4141 15.5859L22.5518 15.7373C23.1926 16.5229 23.1463 17.6818 22.4141 18.4141C21.633 19.1951 20.367 19.1951 19.5859 18.4141L15.1719 14H14V15.1719L18.4141 19.5859L18.5518 19.7373C19.1925 20.5229 19.1463 21.6818 18.4141 22.4141C17.6818 23.1463 16.5229 23.1925 15.7373 22.5518L15.5859 22.4141L14 20.8281V22C14 23.1046 13.1046 24 12 24C10.8954 24 10 23.1046 10 22V20.8281L8.41406 22.4141C7.63301 23.1951 6.36699 23.1951 5.58594 22.4141C4.80489 21.633 4.80489 20.367 5.58594 19.5859L10 15.1719V14H8.82812L4.41406 18.4141L4.2627 18.5518C3.47715 19.1926 2.3182 19.1463 1.58594 18.4141C0.853672 17.6818 0.807449 16.5229 1.44824 15.7373L1.58594 15.5859L3.17188 14H2C0.89543 14 -4.82823e-08 13.1046 0 12C7.69831e-07 10.8954 0.895431 10 2 10H3.17188L1.58594 8.41406C0.804889 7.63301 0.804889 6.36699 1.58594 5.58594C2.36699 4.80489 3.63301 4.80489 4.41406 5.58594L8.82812 10H10V8.82812L5.58594 4.41406L5.44824 4.2627C4.80745 3.47715 4.85367 2.3182 5.58594 1.58594C6.3182 0.853675 7.47715 0.80745 8.2627 1.44824L8.41406 1.58594L10 3.17188V2C10 0.89543 10.8954 0 12 0Z" fill="#111111"/>
</g>
<defs>
<clipPath id="clip0_2997_19">
<rect width="24" height="24" fill="white"/>
</clipPath>
</defs>
</svg>
