<svg width="24" height="24" viewBox="0 0 24 24" fill="none" xmlns="http://www.w3.org/2000/svg">
<g clip-path="url(#clip0_2997_44)">
<path d="M16 0C17.1046 0 18 0.89543 18 2V2.41309C18.6948 2.62311 19.3559 2.95123 19.9571 3.47461L20.1348 3.63672C20.9953 4.46094 21.4431 5.47747 21.7344 6.55566C22.0303 7.65102 22.2183 9.03184 22.4395 10.624L22.7168 12.624C23.0027 14.6821 23.2508 16.4363 23.2481 17.8408C23.2454 19.2106 23.0103 20.5581 22.1182 21.7119L21.9307 21.9404C20.8838 23.1425 19.4984 23.6048 18.0518 23.8086C16.6611 24.0045 14.8902 24 12.8125 24H11.1875C9.10983 24 7.33892 24.0045 5.94826 23.8086C4.59202 23.6175 3.28968 23.1993 2.26955 22.1572L2.06936 21.9404C1.02249 20.7381 0.754859 19.3018 0.751975 17.8408C0.74925 16.4363 0.997375 14.6821 1.28323 12.624L1.56057 10.624L1.72268 9.4707C1.88272 8.35931 2.04372 7.37718 2.26565 6.55566C2.57636 5.40571 3.06533 4.32588 4.04299 3.47461L4.22756 3.32129C4.77829 2.88592 5.37589 2.60375 6.00002 2.41504V2C6.00002 0.895438 6.89546 1.21121e-05 8.00002 0C9.10459 0 10 0.89543 10 2V2.00488C10.4659 2.00084 10.9551 2 11.4658 2H12.5342C13.0449 2 13.5341 2.00084 14 2.00488V2C14 0.895438 14.8955 1.18544e-05 16 0ZM11.4658 6C9.75377 6 8.65739 6.00412 7.84084 6.10742C7.17541 6.19164 6.89394 6.32175 6.73244 6.44141L6.66994 6.49121C6.51833 6.62323 6.32792 6.85855 6.12795 7.59863C5.96695 8.19452 5.83942 8.95388 5.68655 10.0117L5.52248 11.1748L5.24514 13.1748C4.94268 15.3525 4.74992 16.7762 4.75198 17.833C4.75396 18.8328 4.9372 19.1426 5.08596 19.3135L5.14846 19.3799C5.31551 19.5391 5.63958 19.7256 6.50588 19.8477C7.5523 19.9951 8.98906 20 11.1875 20H12.8125C15.011 20 16.4477 19.9951 17.4942 19.8477C18.4837 19.7082 18.7653 19.4843 18.9141 19.3135L18.9717 19.2412C19.1064 19.0537 19.2463 18.7072 19.2481 17.833C19.2501 16.7762 19.0574 15.3525 18.7549 13.1748L18.4776 11.1748C18.242 9.47878 18.0868 8.39324 17.8721 7.59863C17.697 6.95081 17.5295 6.69033 17.3887 6.54688L17.3301 6.49121C17.1784 6.35929 16.919 6.20358 16.1592 6.10742C15.3426 6.00412 14.2463 6 12.5342 6H11.4658ZM13 11C13.4147 11 13.9268 10.9961 14.3633 11.0547C14.8265 11.117 15.4569 11.2767 16.0117 11.7744L16.1211 11.8789L16.2256 11.9883C16.7233 12.5431 16.8831 13.1735 16.9453 13.6367C17.004 14.0732 17 14.5853 17 15V16C17 17.1046 16.1046 18 15 18C13.8955 18 13 17.1046 13 16V15H9.00002C7.89546 15 7.00003 14.1046 7.00002 13C7.00002 11.8954 7.89546 11 9.00002 11H13Z" fill="#111111"/>
</g>
<defs>
<clipPath id="clip0_2997_44">
<rect width="24" height="24" fill="white"/>
</clipPath>
</defs>
</svg>
