<svg width="24" height="24" viewBox="0 0 24 24" fill="none" xmlns="http://www.w3.org/2000/svg">
<g clip-path="url(#clip0_2997_65)">
<path d="M12 0C14.5167 3.27759e-05 16.5882 0.50729 18.2578 1.50293C19.9393 2.50569 21.0613 3.91406 21.8183 5.45703C23.2529 8.38123 23.4748 12.1017 23.7832 14.7705L23.8925 15.7305C23.995 16.6705 24.0679 17.546 24.0332 18.3252C23.9852 19.4018 23.7328 20.4052 23.084 21.3652L22.9482 21.5566C22.7946 21.7654 22.5952 21.9984 22.3984 22.2012L22.2041 22.3916C21.2399 23.289 20.1325 23.674 18.9443 23.8457C17.8412 24.005 16.497 24 14.9883 24H9.01071C7.50204 24 6.15765 24.005 5.05466 23.8457C3.94087 23.6847 2.89786 23.3368 1.97751 22.5547L1.79489 22.3916C1.6052 22.215 1.3965 21.9903 1.21774 21.7715L1.05075 21.5566C0.301448 20.5386 0.0169779 19.4735 -0.034209 18.3252C-0.0804926 17.2863 0.0658644 16.0764 0.216768 14.7705L0.451143 12.6006C0.710743 10.2912 1.10475 7.65019 2.18063 5.45703C2.93759 3.91417 4.05989 2.50569 5.74118 1.50293C7.41085 0.507238 9.48315 1.6789e-05 12 0ZM9.99997 4.16016C9.06686 4.32494 8.34968 4.60472 7.79001 4.93848C6.89528 5.47216 6.25522 6.23273 5.77146 7.21875C4.98638 8.81917 4.69024 10.7825 4.4404 12.9707L4.18942 15.2295C4.02418 16.6595 3.9331 17.5017 3.96188 18.1475C3.98581 18.6837 4.08913 18.9365 4.27243 19.1855L4.39157 19.3291C4.43757 19.3807 4.48518 19.431 4.52048 19.4639L4.5947 19.5283C4.7777 19.6755 5.04367 19.8024 5.62692 19.8867C6.37886 19.9953 7.38554 20 9.01071 20H9.99997V4.16016ZM14 20H14.9883C16.6133 20 17.6201 19.9953 18.372 19.8867C19.0388 19.7904 19.2919 19.6384 19.4795 19.4639L19.6084 19.3291C19.6543 19.2775 19.6989 19.2243 19.7275 19.1855L19.792 19.0918C19.935 18.8691 20.0161 18.6169 20.0371 18.1475C20.0587 17.6632 20.013 17.0684 19.9189 16.1982L19.8095 15.2295C19.4516 12.1319 19.2744 9.35281 18.2275 7.21875C17.7437 6.2326 17.1039 5.47216 16.209 4.93848C15.6494 4.60482 14.9328 4.32591 14 4.16113V20ZM6.99997 13C8.1045 13 8.99997 13.8955 8.99997 15C8.99997 16.1045 8.1045 17 6.99997 17C5.8954 17 4.99997 16.1046 4.99997 15C4.99997 13.8954 5.8954 13 6.99997 13ZM17 13C18.1045 13 19 13.8955 19 15C19 16.1045 18.1045 17 17 17C15.8954 17 15 16.1046 15 15C15 13.8954 15.8954 13 17 13Z" fill="#111111"/>
</g>
<defs>
<clipPath id="clip0_2997_65">
<rect width="24" height="24" fill="white"/>
</clipPath>
</defs>
</svg>
