<svg width="24" height="24" viewBox="0 0 24 24" fill="none" xmlns="http://www.w3.org/2000/svg">
<g clip-path="url(#clip0_2997_35)">
<path d="M18.2175 -7.33917e-05C18.5835 -7.48174e-05 19.0748 -0.00472913 19.5017 0.0575438C19.9479 0.122704 20.4917 0.279636 20.989 0.684497L21.199 0.87395L21.3825 1.07512C21.7785 1.55201 21.9477 2.07507 22.0202 2.5302C22.0875 2.95283 22.085 3.43282 22.0866 3.76946L22.0837 4.24407C22.0693 5.23602 21.9908 6.46598 21.7615 7.76458L21.6345 8.41887C21.2304 10.3045 20.4512 12.4377 18.9177 14.124C17.6937 15.4697 16.0651 16.4399 13.9997 16.8202V19.9999H16.9997C18.1043 19.9999 18.9997 20.8954 18.9997 21.9999C18.9997 23.1045 18.1043 23.9999 16.9997 23.9999H6.99973C5.89529 23.9998 4.99973 23.1044 4.99973 21.9999C4.99978 20.8955 5.89532 20.0001 6.99973 19.9999H9.99973V16.8202C7.93459 16.4399 6.3067 15.4697 5.08274 14.124C3.64501 12.543 2.87019 10.5696 2.44602 8.77532L2.36594 8.41887C1.98976 6.66353 1.90798 4.97996 1.9138 3.76946L1.92258 3.18157C1.93042 2.96704 1.94659 2.74134 1.9802 2.5302C2.06307 2.01011 2.27191 1.40113 2.80149 0.87395L3.01145 0.684497C3.50877 0.279678 4.05259 0.122679 4.49876 0.0575438C4.92567 -0.00471165 5.41693 -7.33917e-05 5.78294 -7.33917e-05H18.2175ZM7.08762 9.99993C7.35317 10.5381 7.66881 11.0225 8.04173 11.4325C8.85461 12.3263 10.0483 12.9998 11.9997 12.9999C13.9513 12.9999 15.1458 12.3264 15.9587 11.4325C16.3316 11.0225 16.6473 10.538 16.9128 9.99993H7.08762ZM5.91477 3.99993C5.91803 4.58931 5.94688 5.27429 6.0261 5.99993H17.9743C18.0536 5.2743 18.0824 4.58929 18.0857 3.99993H5.91477Z" fill="#111111"/>
</g>
<defs>
<clipPath id="clip0_2997_35">
<rect width="24" height="24" fill="white"/>
</clipPath>
</defs>
</svg>
