<svg width="24" height="24" viewBox="0 0 24 24" fill="none" xmlns="http://www.w3.org/2000/svg">
<g clip-path="url(#clip0_2997_60)">
<path d="M15.614 -7.13185e-05C15.9043 -7.30187e-05 16.286 -0.00329021 16.6218 0.0341084C16.9593 0.0717293 17.391 0.16166 17.8279 0.414968L18.0154 0.534108L18.1931 0.667897C18.5838 0.988049 18.8187 1.3612 18.9724 1.66399C19.1254 1.96535 19.2572 2.3237 19.3591 2.59563L20.8591 6.59563L21.1746 7.45794C21.2749 7.75027 21.3635 8.04109 21.4216 8.31048C21.5392 8.85555 21.6239 9.71061 21.1296 10.5429L21.0222 10.7089C20.4103 11.5916 19.5061 11.838 18.9177 11.9247C18.3725 12.0051 17.7041 11.9999 17.114 11.9999H13.9998V19.9999H16.9998C18.1043 19.9999 18.9997 20.8954 18.9998 21.9999C18.9998 23.1045 18.1043 23.9999 16.9998 23.9999H6.99976C5.89532 23.9998 4.99976 23.1044 4.99976 21.9999C4.9998 20.8955 5.89534 20.0001 6.99976 19.9999H9.99976V11.9999H6.8855C6.29542 11.9999 5.62701 12.0051 5.08179 11.9247C4.53022 11.8434 3.70107 11.6217 3.09546 10.8671L2.9773 10.7089C2.36547 9.82591 2.45248 8.89185 2.57788 8.31048C2.69414 7.77177 2.93323 7.14805 3.14038 6.59563L4.64038 2.59563L4.81421 2.14055C4.87889 1.97937 4.95061 1.81467 5.0271 1.66399C5.20282 1.31788 5.48499 0.880059 5.98413 0.534108L6.17163 0.414968C6.60851 0.161622 7.04022 0.0717525 7.37769 0.0341084C7.71344 -0.00331055 8.09513 -7.4986e-05 8.3855 -7.13185e-05H15.614ZM6.8855 7.99993H17.114L15.614 3.99993H8.3855L6.8855 7.99993Z" fill="#111111"/>
</g>
<defs>
<clipPath id="clip0_2997_60">
<rect width="24" height="24" fill="white"/>
</clipPath>
</defs>
</svg>
