<svg width="24" height="24" viewBox="0 0 24 24" fill="none" xmlns="http://www.w3.org/2000/svg">
<g clip-path="url(#clip0_2997_47)">
<path d="M3.12039 15.3163C3.49816 14.2784 4.64594 13.7433 5.68387 14.121L13.2415 16.871L19.3509 14.6483L19.5462 14.5888C20.5289 14.3399 21.56 14.8706 21.9143 15.8436C22.2685 16.8167 21.8202 17.8859 20.9075 18.327L20.719 18.4071L19.0901 18.9999L20.719 19.5927L20.9075 19.6727C21.8202 20.1138 22.2683 21.1831 21.9143 22.1561C21.5601 23.1293 20.529 23.6609 19.5462 23.412L19.3509 23.3514L13.2425 21.1278L5.68387 23.8798C4.64602 24.2573 3.49819 23.7222 3.12039 22.6845C2.74265 21.6466 3.27797 20.4989 4.3157 20.121L7.39383 18.9999L4.3157 17.8798C3.27794 17.5019 2.74278 16.3541 3.12039 15.3163ZM10.7415 0.445198C11.4753 -0.148712 12.5253 -0.148859 13.2591 0.445198L12.0003 1.99989C13.187 0.534201 13.2549 0.450656 13.2591 0.446174L13.26 0.447151L13.262 0.448127C13.2633 0.449213 13.2651 0.450548 13.2669 0.452033C13.2705 0.455001 13.275 0.459219 13.2805 0.463752C13.2916 0.472799 13.3064 0.484799 13.3245 0.499885C13.3611 0.53037 13.4122 0.573032 13.4749 0.626838C13.6004 0.734689 13.7752 0.889074 13.9827 1.08094C14.3951 1.46229 14.9507 2.00694 15.512 2.65516C16.068 3.29723 16.6666 4.08175 17.1341 4.94422C17.592 5.78928 18.0002 6.84791 18.0003 7.99988C18.0003 9.77894 17.464 11.3707 16.2522 12.4989C15.0656 13.6034 13.5128 13.9998 12.0003 13.9999C10.4877 13.9999 8.93498 13.6035 7.74832 12.4989C6.53637 11.3707 6.00027 9.77906 6.00027 7.99988C6.00034 6.84791 6.4085 5.78928 6.86648 4.94422C7.3339 4.08183 7.9326 3.29718 8.48855 2.65516C9.04981 2.00704 9.6055 1.46224 10.0179 1.08094C10.2252 0.889178 10.4002 0.734647 10.5257 0.626838C10.5882 0.573136 10.6395 0.530328 10.6761 0.499885C10.6941 0.484903 10.709 0.472755 10.72 0.463752C10.7254 0.459303 10.7301 0.454953 10.7337 0.452033C10.7354 0.450636 10.7373 0.449159 10.7386 0.448127L10.7405 0.447151L10.7415 0.446174C10.7454 0.450405 10.8059 0.525085 11.8118 1.76746L10.7415 0.445198ZM12.0003 4.73914C11.8409 4.90583 11.6755 5.08451 11.512 5.27332C11.0681 5.78591 10.6666 6.32923 10.3841 6.85047C10.0922 7.389 10.0003 7.77123 10.0003 7.99988C10.0003 8.98138 10.278 9.38951 10.4729 9.57117C10.6932 9.77623 11.1407 9.99988 12.0003 9.99988C12.8597 9.99985 13.3073 9.77622 13.5276 9.57117C13.7225 9.3894 14.0003 8.98098 14.0003 7.99988C14.0002 7.77123 13.9083 7.389 13.6165 6.85047C13.3339 6.32918 12.9325 5.78597 12.4886 5.27332C12.325 5.08443 12.1597 4.9059 12.0003 4.73914Z" fill="#111111"/>
</g>
<defs>
<clipPath id="clip0_2997_47">
<rect width="24" height="24" fill="white"/>
</clipPath>
</defs>
</svg>
