<svg width="24" height="24" viewBox="0 0 24 24" fill="none" xmlns="http://www.w3.org/2000/svg">
<g clip-path="url(#clip0_2997_53)">
<path d="M22.2041 20.0107C23.2127 20.1131 24 20.9644 24 22C24 23.0356 23.2127 23.8869 22.2041 23.9893L22 24H2C0.895433 24 2.41771e-06 23.1046 2.41771e-06 22C2.41771e-06 20.8954 0.895433 20 2 20H22L22.2041 20.0107ZM6.27735 13.3516C6.75703 13.2934 7.24298 13.2934 7.72266 13.3516L8.03418 13.4004C8.7574 13.5364 9.45368 13.8268 10.2432 14.1426L10.915 14.4082C11.4482 14.6142 11.6096 14.6596 11.7588 14.6777L12 14.6914C12.0803 14.6914 12.1613 14.6874 12.2412 14.6777L12.4072 14.6455C12.6046 14.5947 12.9341 14.4717 13.7568 14.1426L14.4141 13.8818C15.0531 13.6325 15.6487 13.4278 16.2773 13.3516L16.6387 13.3193C16.9998 13.2976 17.363 13.308 17.7227 13.3516L18.0342 13.4004C18.7574 13.5364 19.4537 13.8268 20.2432 14.1426L22.7432 15.1426L22.9287 15.2285C23.827 15.6982 24.2419 16.7817 23.8574 17.7432C23.4728 18.7044 22.4254 19.2021 21.4512 18.9229L21.2568 18.8574L18.7568 17.8574C17.9341 17.5283 17.6046 17.4053 17.4072 17.3545L17.2412 17.3223C17.1613 17.3126 17.0803 17.3086 17 17.3086L16.7588 17.3223C16.6096 17.3404 16.4482 17.3858 15.915 17.5918L15.2432 17.8574C14.4537 18.1732 13.7574 18.4636 13.0342 18.5996L12.7227 18.6484C12.363 18.692 11.9998 18.7024 11.6387 18.6807L11.2773 18.6484C10.6487 18.5722 10.0531 18.3675 9.41407 18.1182L8.75684 17.8574C7.93407 17.5283 7.60457 17.4053 7.40723 17.3545L7.24121 17.3223C7.08138 17.3029 6.91863 17.3029 6.75879 17.3223C6.55975 17.3465 6.33932 17.419 5.24317 17.8574L2.74317 18.8574C1.71769 19.2676 0.552901 18.7686 0.142581 17.7432C-0.267624 16.7177 0.231385 15.5529 1.25684 15.1426L3.75684 14.1426L4.41406 13.8818C5.05311 13.6325 5.64873 13.4278 6.27735 13.3516ZM12 0C16.1725 8.20007e-05 19.0602 1.06274 20.9863 2.72363C22.9051 4.37833 23.6271 6.41743 23.8848 7.90137L23.9717 8.44434C23.9995 8.66061 24.0195 8.90217 24.0117 9.1377C23.9933 9.6901 23.835 10.2307 23.4873 10.7236L23.3262 10.9316C22.81 11.545 22.1675 11.8167 21.5723 11.9238C21.1082 12.0072 20.5824 12 20.2344 12H3.76563C3.41777 12 2.89275 12.0071 2.42871 11.9238C1.90763 11.8302 1.3501 11.6102 0.873049 11.1455L0.673831 10.9316C0.213527 10.3845 0.00928312 9.76901 -0.0117163 9.1377C-0.0273781 8.66646 0.0683857 8.17128 0.115237 7.90137L0.169924 7.61719C0.46857 6.16437 1.21558 4.27501 3.01465 2.72363C4.94082 1.06299 7.82777 3.91934e-05 12 0ZM12 4C8.50457 4.00004 6.63846 4.88104 5.62696 5.75293C4.82736 6.44243 4.41145 7.25973 4.19531 8H19.8057C19.5896 7.25975 19.1735 6.44247 18.374 5.75293C17.3627 4.8809 15.4959 4.00008 12 4Z" fill="#111111"/>
</g>
<defs>
<clipPath id="clip0_2997_53">
<rect width="24" height="24" fill="white"/>
</clipPath>
</defs>
</svg>
