<svg width="24" height="24" viewBox="0 0 24 24" fill="none" xmlns="http://www.w3.org/2000/svg">
<g clip-path="url(#clip0_2997_26)">
<path d="M12 0C13.1046 0 14 0.89543 14 2V7C14 9.20914 12.2091 11 10 11H9V22C9 23.1046 8.10457 24 7 24C5.89543 24 5 23.1046 5 22V11H4C1.79086 11 4.83192e-08 9.20914 0 7V2C0 0.89543 0.89543 0 2 0C3.10457 0 4 0.89543 4 2V7H5V2C5 0.89543 5.89543 0 7 0C8.10457 0 9 0.89543 9 2V7H10V2C10 0.89543 10.8954 0 12 0ZM22 2V0C23.1046 0 24 0.89543 24 2V22C24 23.1046 23.1046 24 22 24C20.8954 24 20 23.1046 20 22V18H19C16.801 18 14.9522 16.1923 15.0381 13.916L15.0947 12.7852C15.4351 7.2908 16.658 4.10843 18.1191 2.25879C18.9112 1.25619 19.752 0.674851 20.4893 0.353516C20.8517 0.195548 21.1745 0.106666 21.4346 0.0576172C21.5643 0.0331441 21.6784 0.0191348 21.7734 0.0107422C21.8208 0.00655919 21.8636 0.00357355 21.9014 0.00195312C21.9201 0.00115003 21.9378 0.00132325 21.9541 0.000976562C21.9623 0.000803414 21.9709 7.97909e-05 21.9785 0H21.9951C21.9977 0.00241872 22 0.0708876 22 2ZM20 7.37109C19.5442 8.85259 19.157 10.975 19.0381 14H20V7.37109Z" fill="#111111"/>
</g>
<defs>
<clipPath id="clip0_2997_26">
<rect width="24" height="24" fill="white"/>
</clipPath>
</defs>
</svg>
