<svg width="24" height="24" viewBox="0 0 24 24" fill="none" xmlns="http://www.w3.org/2000/svg">
<g clip-path="url(#clip0_2997_25)">
<path d="M14 3C14.4147 3 14.9268 2.99606 15.3633 3.05469C15.3994 3.05954 15.4366 3.06513 15.4746 3.07129C15.6421 3.02576 15.818 3.00001 16 3H21C22.6568 3 24 4.34317 24 6V12C24 13.6569 22.6568 15 21 15H17.9443C17.9333 15.1686 17.9212 15.3314 17.9053 15.4883C17.8112 16.4131 17.6094 17.3242 17.0957 18.166L16.9893 18.333C16.6061 18.9064 16.127 19.4094 15.5742 19.8193L15.333 19.9893C14.4453 20.5822 13.4746 20.8049 12.4883 20.9053C11.5353 21.0022 10.3627 21 8.99999 21C7.6373 21 6.46471 21.0022 5.51171 20.9053C4.58689 20.8112 3.67577 20.6094 2.83398 20.0957L2.66699 19.9893C2.09358 19.6061 1.5906 19.127 1.18066 18.5742L1.01074 18.333C0.417776 17.4453 0.195052 16.4746 0.094721 15.4883C-0.00219788 14.5353 -5.60107e-06 13.3627 -5.60107e-06 12V7C-5.95231e-06 6.58529 -0.00394632 6.07316 0.0546819 5.63672C0.121116 5.14263 0.298935 4.45887 0.878901 3.87891L0.988276 3.77441C1.54307 3.2767 2.17348 3.11697 2.63671 3.05469C3.07316 2.99606 3.58528 3 3.99999 3H14ZM3.99999 12C3.99999 13.446 4.00264 14.3804 4.07421 15.084C4.14238 15.7539 4.25604 15.9903 4.33691 16.1113L4.4541 16.2686C4.57864 16.4203 4.72484 16.5536 4.88867 16.6631L5.00585 16.7285C5.15467 16.7979 5.41321 16.8746 5.91601 16.9258C6.61963 16.9974 7.55394 17 8.99999 17C10.4461 17 11.3804 16.9974 12.084 16.9258C12.754 16.8576 12.9903 16.744 13.1113 16.6631L13.2685 16.5459C13.4203 16.4213 13.5536 16.2752 13.6631 16.1113L13.7285 15.9941C13.7979 15.8453 13.8746 15.5868 13.9258 15.084C13.9973 14.3804 14 13.4461 14 12V7H3.99999V12ZM18 11H20V7H18V11Z" fill="#111111"/>
</g>
<defs>
<clipPath id="clip0_2997_25">
<rect width="24" height="24" fill="white"/>
</clipPath>
</defs>
</svg>
