<svg width="24" height="24" viewBox="0 0 24 24" fill="none" xmlns="http://www.w3.org/2000/svg">
<g clip-path="url(#clip0_2997_49)">
<path d="M16 2.99999C16.9045 2.99999 17.6835 2.99918 18.3252 3.04296C18.9847 3.08798 19.6442 3.1871 20.2959 3.45702C21.7661 4.06599 22.934 5.23393 23.543 6.70409L23.6367 6.94824C23.8372 7.52023 23.9176 8.09761 23.957 8.6748C24.0008 9.31649 24 10.0955 24 11C24 12.8289 24.0044 14.4018 23.8359 15.6553C23.6707 16.8843 23.3109 18.0661 22.4268 19.0488L22.2422 19.2422C21.2229 20.2615 19.9663 20.6597 18.6553 20.8359C17.4018 21.0044 15.8289 21 14 21H10C8.17109 21 6.59818 21.0044 5.34474 20.8359C4.11567 20.6707 2.93393 20.3109 1.95118 19.4268L1.75782 19.2422C0.738499 18.2229 0.340337 16.9663 0.164073 15.6553C-0.0044096 14.4018 1.09891e-05 12.8289 1.09891e-05 11C1.09891e-05 10.0955 -0.000802681 9.31649 0.0429797 8.6748C0.0880006 8.01531 0.187115 7.35578 0.457042 6.70409L0.577159 6.43163C1.21265 5.08973 2.32585 4.02792 3.70411 3.45702L3.94825 3.36327C4.52025 3.16277 5.09762 3.08237 5.67482 3.04296C6.31651 2.99918 7.09549 2.99999 8.00001 2.99999H16ZM4.01173 13C4.02468 13.8813 4.05362 14.563 4.12892 15.123C4.24555 15.9901 4.43373 16.2618 4.58595 16.4141L4.64943 16.4726C4.81527 16.6123 5.11818 16.769 5.87696 16.8711C6.80198 16.9955 8.05785 17 10 17H14C15.9422 17 17.198 16.9955 18.1231 16.8711C18.9902 16.7545 19.2619 16.5663 19.4141 16.4141L19.4727 16.3506C19.6123 16.1847 19.769 15.8818 19.8711 15.123C19.9464 14.563 19.9753 13.8813 19.9883 13H4.01173ZM8.00001 6.99999C7.04076 6.99999 6.42124 7.00086 5.94728 7.0332C5.60594 7.0565 5.42277 7.0921 5.31739 7.12304L5.23439 7.15234C4.80578 7.32994 4.45449 7.65025 4.23732 8.05566L4.15235 8.23437C4.11789 8.31758 4.06433 8.49144 4.03321 8.94726C4.03203 8.96455 4.03138 8.98231 4.03028 8.99999H19.9697C19.9686 8.98231 19.968 8.96455 19.9668 8.94726C19.9435 8.60592 19.9079 8.42276 19.877 8.31738L19.8477 8.23437C19.6447 7.74452 19.2555 7.35532 18.7656 7.15234C18.6824 7.11787 18.5086 7.06431 18.0527 7.0332C17.5788 7.00086 16.9593 6.99999 16 6.99999H8.00001Z" fill="#111111"/>
</g>
<defs>
<clipPath id="clip0_2997_49">
<rect width="24" height="24" fill="white"/>
</clipPath>
</defs>
</svg>
