<svg width="24" height="24" viewBox="0 0 24 24" fill="none" xmlns="http://www.w3.org/2000/svg">
<path d="M20 18V8.5C20 8.22386 19.7761 8 19.5 8C19.2239 8 19 8.22386 19 8.5V15.5C19 17.9853 16.9853 20 14.5 20C12.0147 20 10 17.9853 10 15.5V8.5C10 8.22386 9.77614 8 9.5 8C9.22386 8 9 8.22386 9 8.5V15.5C9 17.9853 6.98528 20 4.5 20C2.01472 20 0 17.9853 0 15.5V6C0 4.89543 0.89543 4 2 4C3.10457 4 4 4.89543 4 6V15.5C4 15.7761 4.22386 16 4.5 16C4.77614 16 5 15.7761 5 15.5V8.5C5 6.01472 7.01472 4 9.5 4C11.9853 4 14 6.01472 14 8.5V15.5C14 15.7761 14.2239 16 14.5 16C14.7761 16 15 15.7761 15 15.5V8.5C15 6.01472 17.0147 4 19.5 4C21.9853 4 24 6.01472 24 8.5V18C24 19.1046 23.1046 20 22 20C20.8954 20 20 19.1046 20 18Z" fill="#111111"/>
</svg>
