<svg width="24" height="24" viewBox="0 0 24 24" fill="none" xmlns="http://www.w3.org/2000/svg">
<g clip-path="url(#clip0_2997_31)">
<path d="M14 1.09891e-05C15.8289 1.09891e-05 17.4018 -0.00440811 18.6553 0.164073C19.9663 0.340337 21.2229 0.738502 22.2422 1.75782L22.4268 1.95118C23.3109 2.93393 23.6707 4.11567 23.8359 5.34474C24.0044 6.59818 24 8.1711 24 10V14C24 15.8289 24.0044 17.4018 23.8359 18.6553C23.6707 19.8843 23.3109 21.0661 22.4268 22.0488L22.2422 22.2422C21.2229 23.2615 19.9663 23.6597 18.6553 23.8359C17.4018 24.0044 15.8289 24 14 24H10C8.1711 24 6.59818 24.0044 5.34474 23.8359C4.11567 23.6707 2.93393 23.3109 1.95118 22.4268L1.75782 22.2422C0.738502 21.2229 0.340337 19.9663 0.164073 18.6553C-0.00440952 17.4018 1.09827e-05 15.8289 1.09895e-05 14V10C1.09895e-05 8.1711 -0.0044088 6.59818 0.164073 5.34474C0.340337 4.03371 0.738505 2.77715 1.75782 1.75782L1.95118 1.57325C2.93393 0.689086 4.11568 0.329318 5.34474 0.164073C6.59818 -0.00440924 8.1711 1.09705e-05 10 1.09891e-05H14ZM10 4.00001C8.05786 4.00001 6.80197 4.00455 5.87696 4.12892C5.11818 4.23098 4.81527 4.38774 4.64943 4.52735L4.58595 4.58595C4.43373 4.73817 4.24555 5.00988 4.12892 5.87696C4.00455 6.80198 4.00001 8.05786 4.00001 10V14C4.00001 15.9422 4.00455 17.198 4.12892 18.1231C4.24555 18.9901 4.43373 19.2619 4.58595 19.4141L4.64943 19.4727C4.81527 19.6123 5.11818 19.769 5.87696 19.8711C6.80197 19.9955 8.05786 20 10 20H14C15.9422 20 17.198 19.9955 18.1231 19.8711C18.9901 19.7545 19.2619 19.5663 19.4141 19.4141L19.4727 19.3506C19.6123 19.1847 19.769 18.8818 19.8711 18.1231C19.9955 17.198 20 15.9422 20 14V10C20 8.05786 19.9955 6.80198 19.8711 5.87696C19.769 5.11818 19.6123 4.81527 19.4727 4.64943L19.4141 4.58595C19.2619 4.43373 18.9901 4.24555 18.1231 4.12892C17.198 4.00455 15.9422 4.00001 14 4.00001H10ZM8.00001 14C9.10458 14 10 14.8954 10 16C10 17.1046 9.10458 18 8.00001 18C6.89544 18 6.00001 17.1046 6.00001 16C6.00001 14.8954 6.89544 14 8.00001 14ZM16 14C17.1046 14 18 14.8954 18 16C18 17.1046 17.1046 18 16 18C14.8954 18 14 17.1046 14 16C14 14.8954 14.8954 14 16 14ZM12 6.00001C13.6569 6.00001 15 7.34316 15 9.00001C15 10.6569 13.6569 12 12 12C10.3432 12 9.00001 10.6569 9.00001 9.00001C9.00001 7.34316 10.3432 6.00001 12 6.00001Z" fill="#111111"/>
</g>
<defs>
<clipPath id="clip0_2997_31">
<rect width="24" height="24" fill="white"/>
</clipPath>
</defs>
</svg>
