<svg width="24" height="24" viewBox="0 0 24 24" fill="none" xmlns="http://www.w3.org/2000/svg">
<path d="M9.73145 1.36027C10.9709 0.970142 12.3029 1.09602 13.8057 1.1962L14.9727 1.2753C16.0978 1.35599 17.0941 1.44758 17.9326 1.61124C19.106 1.8403 20.2206 2.25282 21.1406 3.17277C22.0606 4.09278 22.474 5.20743 22.7031 6.38077C22.9214 7.49892 23.0107 8.89703 23.1182 10.5087L23.1943 11.6757C23.2545 12.8093 23.2371 13.8471 22.8682 14.829C22.3762 16.1379 21.3475 17.1085 20.2119 18.2441L19.2422 19.2128C17.9491 20.5059 16.8403 21.6214 15.835 22.3886C14.849 23.1408 13.7586 23.7222 12.4385 23.7919L12.1719 23.7987C10.7304 23.7987 9.56044 23.1909 8.50879 22.3886C7.50333 21.6214 6.39383 20.506 5.10059 19.2128C3.80747 17.9197 2.69195 16.811 1.9248 15.8056C1.17257 14.8197 0.591192 13.7292 0.521484 12.4091L0.515625 12.1425C0.515625 10.7009 1.1224 9.53011 1.9248 8.47843C2.69198 7.47306 3.80749 6.3643 5.10059 5.0712L6.06934 4.10245C7.20503 2.96675 8.1754 1.93723 9.48438 1.44523L9.73145 1.36027ZM13.5391 5.18644C11.8213 5.07193 11.32 5.07065 11.0137 5.1503L10.8916 5.18937C10.5815 5.30602 10.2876 5.54045 8.89746 6.93058L7.92871 7.89933C6.55541 9.27263 5.67063 10.1641 5.10449 10.9062C4.57392 11.6017 4.51465 11.9272 4.51465 12.1425L4.51855 12.2284C4.5371 12.4444 4.64032 12.7693 5.10449 13.3778C5.67061 14.1198 6.5555 15.0115 7.92871 16.3847C9.30197 17.7579 10.1935 18.6428 10.9355 19.2089C11.6311 19.7396 11.9566 19.7987 12.1719 19.7987L12.2578 19.7958C12.4738 19.7773 12.7986 19.6732 13.4072 19.2089C14.1492 18.6428 15.0408 17.758 16.4141 16.3847L17.3828 15.4159C18.7736 14.0251 19.0084 13.7321 19.125 13.4218C19.2123 13.1891 19.2432 12.9199 19.1982 11.9726L19.127 10.7743C19.0126 9.05863 18.9356 7.95976 18.7773 7.14835C18.6298 6.39232 18.455 6.14343 18.3125 6.00089C18.17 5.85841 17.9214 5.68353 17.166 5.53605C16.3546 5.37773 15.2549 5.30082 13.5391 5.18644ZM15 6.99991C16.1045 6.99991 16.9999 7.89539 17 8.99991C17 10.1045 16.1046 10.9999 15 10.9999C13.8954 10.9999 13 10.1045 13 8.99991C13.0001 7.89539 13.8955 6.99991 15 6.99991Z" fill="#111111"/>
</svg>
