<svg width="24" height="24" viewBox="0 0 24 24" fill="none" xmlns="http://www.w3.org/2000/svg">
<g clip-path="url(#clip0_2997_59)">
<path d="M3.7793 5.61169C4.26059 5.61157 4.82273 5.69516 5.29199 5.76111L9.65723 6.37439C10.1265 6.44034 10.6898 6.51504 11.1523 6.64783C11.6371 6.78704 12.304 7.06727 12.7949 7.73083L12.8906 7.86853L12.9775 8.01208C13.1793 8.36685 13.2777 8.72322 13.3174 9.0531C13.5506 9.01507 13.7824 8.98241 13.9951 8.95251L18.3604 8.33923C18.8297 8.27327 19.3917 8.18967 19.873 8.18982C20.3774 8.18998 21.0952 8.27528 21.75 8.77771L21.8809 8.88416L22.0039 8.99744C22.5941 9.57488 22.7802 10.2744 22.8516 10.7738C22.8856 11.0119 22.9024 11.2729 22.9102 11.5336L22.917 12.2924L22.9287 18.349C22.9295 18.7118 22.9352 19.1723 22.8857 19.5697C22.8363 19.9666 22.7153 20.4863 22.3633 20.9818L22.1973 21.1918C21.7157 21.7469 21.1295 21.9819 20.6885 22.1019C20.3019 22.207 19.8457 22.2682 19.4863 22.3187L16.7666 22.7006C16.4072 22.7511 15.9514 22.8181 15.5508 22.8236C15.1509 22.8291 14.6201 22.7811 14.0811 22.5004L13.8496 22.3646C13.234 21.9638 12.9205 21.4158 12.7412 20.9955C12.6627 20.8113 12.5929 20.6081 12.5303 20.4076L12.3633 19.8344L11.459 16.6586L11.2891 17.2572C11.1898 17.606 11.0681 18.0491 10.9111 18.4174C10.7542 18.7853 10.4947 19.2519 10.0195 19.6312L9.80273 19.7875C9.18665 20.1885 8.55766 20.2527 8.10059 20.2465C7.70011 20.2409 7.245 20.1739 6.88574 20.1234L4.16602 19.7406C3.8067 19.6901 3.35044 19.6299 2.96387 19.5248C2.57786 19.4198 2.08061 19.2267 1.63965 18.808L1.45508 18.6146C0.973545 18.0594 0.823074 17.4451 0.766602 16.9916C0.741904 16.7929 0.730506 16.5784 0.725586 16.3685L0.722656 15.7719L0.735352 9.71423C0.736316 9.2406 0.732806 8.67291 0.800781 8.19666C0.876913 7.66401 1.08316 6.90315 1.77148 6.30603L1.90137 6.20056C2.55631 5.69792 3.27489 5.61185 3.7793 5.61169ZM14.5518 12.9135L16.21 18.7396L18.9297 18.3578L18.917 12.3002L14.5518 12.9135ZM4.72266 15.7797L7.44238 16.1615L9.10059 10.3363L4.73535 9.72205L4.72266 15.7797ZM19.7373 2.44861C20.5229 1.80781 21.6818 1.85404 22.4141 2.5863C23.1461 3.31858 23.1925 4.47758 22.5518 5.26306L22.4141 5.41443L21.4141 6.41443C20.6331 7.19524 19.3669 7.19522 18.5859 6.41443C17.8049 5.63344 17.8051 4.36737 18.5859 3.5863L19.5859 2.5863L19.7373 2.44861ZM8.10547 1.2113C9.03184 0.748116 10.146 1.07152 10.6885 1.9281L10.7891 2.10583L11.2891 3.10583L11.3711 3.29333C11.7304 4.24113 11.3207 5.32636 10.3945 5.78943C9.46828 6.25245 8.35407 5.92897 7.81152 5.07263L7.71094 4.8949L7.21094 3.8949L7.12891 3.7074C6.76945 2.75958 7.17934 1.67447 8.10547 1.2113ZM13.5596 1.51501C13.8276 0.443561 14.9138 -0.207942 15.9854 0.0599362C17.0568 0.327967 17.7083 1.41423 17.4404 2.48572L16.9404 4.48572C16.6723 5.55694 15.586 6.20859 14.5146 5.9408C13.4433 5.67283 12.7919 4.58642 13.0596 3.51501L13.5596 1.51501Z" fill="#111111"/>
</g>
<defs>
<clipPath id="clip0_2997_59">
<rect width="24" height="24" fill="white"/>
</clipPath>
</defs>
</svg>
