<svg width="24" height="24" viewBox="0 0 24 24" fill="none" xmlns="http://www.w3.org/2000/svg">
<g clip-path="url(#clip0_2997_41)">
<path d="M12 0C12.617 0 13.2243 0.0472548 13.8184 0.137695L14.4639 0.241211C14.6912 0.282578 14.923 0.33237 15.1348 0.396484C15.6013 0.53773 16.1847 0.805111 16.6436 1.38086L16.7334 1.5L16.8359 1.65527C17.3089 2.43336 17.2488 3.28687 17.2148 3.67969C17.1923 3.94017 17.1509 4.23391 17.0996 4.54785L16.9248 5.53809C16.8725 5.82675 16.8771 6.0833 16.9365 6.31055C16.9924 6.52403 17.1156 6.78747 17.4141 7.08594C17.6772 7.34906 18.2911 7.53773 19.3223 7.43848L20.1055 7.36816C20.3663 7.3489 20.6212 7.33651 20.8525 7.34082C21.2861 7.3489 22.002 7.41113 22.6572 7.88672L22.7881 7.9873L22.9941 8.1748C23.4414 8.62369 23.6538 9.14232 23.7646 9.58594C23.8691 10.0042 23.9105 10.4898 23.9443 10.8418L23.9863 11.418C23.9956 11.611 24 11.805 24 12C24 18.6274 18.6274 24 12 24C5.37258 24 0 18.6274 0 12C0 5.37258 5.37258 0 12 0ZM12 4C7.58172 4 4 7.58172 4 12C4 16.4183 7.58172 20 12 20C16.4183 20 20 16.4183 20 12C20 11.7959 19.9895 11.5941 19.9746 11.3945L19.7061 11.4199C18.3993 11.5458 16.1786 11.5068 14.5859 9.91406C12.9416 8.26975 12.7131 6.34742 12.9893 4.82422L13.1201 4.07812C12.755 4.02709 12.3812 4 12 4ZM13 13C14.1046 13 15 13.8954 15 15C15 16.1046 14.1046 17 13 17C11.8954 17 11 16.1046 11 15C11 13.8954 11.8954 13 13 13ZM9 8C10.1046 8 11 8.89543 11 10C11 11.1046 10.1046 12 9 12C7.89543 12 7 11.1046 7 10C7 8.89543 7.89543 8 9 8Z" fill="#111111"/>
</g>
<defs>
<clipPath id="clip0_2997_41">
<rect width="24" height="24" fill="white"/>
</clipPath>
</defs>
</svg>
