<svg width="24" height="24" viewBox="0 0 24 24" fill="none" xmlns="http://www.w3.org/2000/svg">
<g clip-path="url(#clip0_2997_48)">
<path d="M14.9999 -6.67856e-06C15.4146 -6.67856e-06 15.9268 -0.00392085 16.3632 0.0546808C16.8264 0.116956 17.4569 0.276777 18.0116 0.774407L18.121 0.8789L18.2255 0.988275C18.7232 1.54305 18.8829 2.17349 18.9452 2.63671C19.0039 3.07315 18.9999 3.58528 18.9999 3.99999V4.99999H20.9999L21.1542 5.0039C22.7394 5.08421 23.9999 6.39491 23.9999 7.99999V15C23.9999 16.6568 22.6568 18 20.9999 18H18.9999L18.9989 18.6592C18.9957 19.3096 18.9806 19.9294 18.9091 20.4609C18.8125 21.1794 18.5854 21.993 17.9589 22.6904L17.8281 22.8281C17.1016 23.5545 16.2272 23.8061 15.4609 23.9092C14.7521 24.0044 13.8861 24 12.9999 24H7.99993C7.11378 24 6.24778 24.0045 5.53899 23.9092C4.82053 23.8126 4.00688 23.5854 3.3095 22.959L3.1718 22.8281C2.44547 22.1017 2.19378 21.2273 2.09075 20.4609C1.99547 19.7521 1.99993 18.8862 1.99993 18V8.32324C1.99987 8.16908 1.97098 8.01667 1.91496 7.87402L1.84953 7.73437L0.680589 5.59179C-0.693521 3.07238 1.13017 0.000140156 3.99993 -6.67856e-06H14.9999ZM5.99993 18C5.99993 18.999 6.00449 19.5474 6.05559 19.9277C6.0562 19.9323 6.05693 19.937 6.05754 19.9414C6.06221 19.9421 6.06732 19.9436 6.07219 19.9443C6.45254 19.9954 7.00095 20 7.99993 20H12.9999C13.9989 20 14.5473 19.9954 14.9277 19.9443C14.9322 19.9437 14.937 19.942 14.9413 19.9414C14.942 19.937 14.9436 19.9323 14.9443 19.9277C14.9954 19.5474 14.9999 18.9991 14.9999 18H5.99993ZM18.9999 14H19.9999V8.99999H18.9999V14ZM5.36125 5.81933L5.50871 6.11132C5.83148 6.8027 5.99986 7.55759 5.99993 8.32324V14H14.9999V3.99999H4.36907L5.36125 5.81933Z" fill="#111111"/>
</g>
<defs>
<clipPath id="clip0_2997_48">
<rect width="24" height="24" fill="white"/>
</clipPath>
</defs>
</svg>
