<svg width="24" height="24" viewBox="0 0 24 24" fill="none" xmlns="http://www.w3.org/2000/svg">
<g clip-path="url(#clip0_2997_57)">
<path d="M10 1.04498e-06C12.6123 1.04498e-06 14.8334 1.66984 15.6572 4C16.3084 4.00326 16.9289 4.0193 17.4609 4.09082C18.1794 4.18742 18.993 4.41449 19.6904 5.04102L19.8281 5.17188L19.959 5.30957C20.5855 6.00702 20.8126 6.82055 20.9092 7.53906C21.0045 8.24791 21 9.11379 21 10V18C22.1046 18 23 18.8954 23 20C23 21.1046 22.1046 22 21 22C18.7909 22 17 20.2091 17 18V10C17 9.00089 16.9954 8.45264 16.9443 8.07227C16.9437 8.06733 16.9421 8.06235 16.9414 8.05762C16.937 8.05701 16.9323 8.05628 16.9277 8.05567C16.6994 8.02499 16.4106 8.01296 16 8.00684V16C16 16.9045 16.0008 17.6835 15.957 18.3252C15.9176 18.9024 15.8372 19.4798 15.6367 20.0518L15.543 20.2959C14.934 21.7661 13.7661 22.934 12.2959 23.543C11.6442 23.8129 10.9847 23.912 10.3252 23.957C9.6835 24.0008 8.90452 24 8 24C7.09548 24 6.3165 24.0008 5.67481 23.957C5.09761 23.9176 4.52024 23.8372 3.94824 23.6367L3.7041 23.543C2.23393 22.934 1.066 21.7661 0.457032 20.2959C0.187106 19.6442 0.0879906 18.9847 0.0429698 18.3252C-0.000812486 17.6835 1.04479e-06 16.9045 1.04498e-06 16V8C1.04422e-06 7.09548 -0.000812606 6.3165 0.0429698 5.67481C0.0879907 5.01532 0.187105 4.35579 0.457032 3.7041L0.57715 3.43164C1.21264 2.08974 2.32585 1.02793 3.7041 0.457032L3.94824 0.363282C4.52024 0.162777 5.09761 0.0823727 5.67481 0.0429698C6.3165 -0.00081261 7.09548 1.04441e-06 8 1.04498e-06H10ZM8 4C7.04075 4 6.42123 4.00087 5.94727 4.0332C5.60593 4.0565 5.42276 4.09211 5.31738 4.12305L5.23438 4.15234C4.80577 4.32995 4.45448 4.65025 4.23731 5.05567L4.15234 5.23438C4.11788 5.31759 4.06432 5.49145 4.0332 5.94727C4.00087 6.42123 4 7.04075 4 8V16C4 16.9592 4.00087 17.5788 4.0332 18.0527C4.06432 18.5086 4.11788 18.6824 4.15234 18.7656C4.35533 19.2555 4.74453 19.6447 5.23438 19.8477L5.31738 19.877C5.42276 19.9079 5.60593 19.9435 5.94727 19.9668C6.42123 19.9991 7.04075 20 8 20C8.95925 20 9.57878 19.9991 10.0527 19.9668C10.5086 19.9357 10.6824 19.8821 10.7656 19.8477C11.2555 19.6447 11.6447 19.2555 11.8477 18.7656L11.877 18.6826C11.9079 18.5772 11.9435 18.3941 11.9668 18.0527C11.9991 17.5788 12 16.9592 12 16V6C12 4.89543 11.1046 4 10 4H8ZM7.73731 5.44824C8.52285 4.80746 9.6818 4.85368 10.4141 5.58594C11.1463 6.3182 11.1925 7.47715 10.5518 8.2627L10.4141 8.41406L9.04395 9.7832L10.2773 10.708L10.4111 10.8135C11.7466 11.9358 11.8492 13.9789 10.5986 15.2295L8.41406 17.4141C7.63302 18.1951 6.36699 18.1951 5.58594 17.4141C4.80489 16.633 4.80489 15.367 5.58594 14.5859L6.95508 13.2158L5.72266 12.292C4.26214 11.1966 4.11044 9.06144 5.40137 7.77051L7.58594 5.58594L7.73731 5.44824Z" fill="#111111"/>
</g>
<defs>
<clipPath id="clip0_2997_57">
<rect width="24" height="24" fill="white"/>
</clipPath>
</defs>
</svg>
