<svg width="24" height="24" viewBox="0 0 24 24" fill="none" xmlns="http://www.w3.org/2000/svg">
<path d="M16 6C17.0357 6 17.887 6.78722 17.9893 7.7959L18 8V16C18 17.1046 17.1046 18 16 18C14.8954 18 14 17.1046 14 16V14H9V16C9 17.1046 8.10457 18 7 18C5.89543 18 5 17.1046 5 16V8L5.01074 7.7959C5.113 6.78722 5.96435 6 7 6C8.03565 6 8.887 6.78722 8.98926 7.7959L9 8V10H14V8L14.0107 7.7959C14.113 6.78722 14.9643 6 16 6ZM2 8C3.03565 8 3.887 8.78722 3.98926 9.7959L4 10V14C4 15.1046 3.10457 16 2 16C0.89543 16 4.82823e-08 15.1046 0 14V10L0.0107422 9.7959C0.113005 8.78722 0.964349 8 2 8ZM21 8C22.0357 8 22.887 8.78722 22.9893 9.7959L23 10V14C23 15.1046 22.1046 16 21 16C19.8954 16 19 15.1046 19 14V10L19.0107 9.7959C19.113 8.78722 19.9643 8 21 8Z" fill="#111111"/>
</svg>
