<svg width="24" height="24" viewBox="0 0 24 24" fill="none" xmlns="http://www.w3.org/2000/svg">
<g clip-path="url(#clip0_2997_22)">
<path d="M20.0884 11.4093C20.3866 10.4406 21.3769 9.83637 22.3922 10.0392C23.4073 10.2424 24.088 11.1808 23.9908 12.1896L23.9605 12.3927L23.2466 15.9611C22.9487 17.4507 22.6936 18.7473 22.3541 19.7736C22.0195 20.7846 21.544 21.7307 20.6988 22.4904L20.524 22.6398C19.5683 23.4231 18.4827 23.7338 17.355 23.8722C16.282 24.0039 14.9602 24.0002 13.441 24.0002H10.5582C9.0389 24.0002 7.71711 24.004 6.6441 23.8722C5.58699 23.7424 4.5666 23.4614 3.65582 22.7814L3.47516 22.6398C2.51957 21.8563 2.002 20.8522 1.64508 19.7736C1.30554 18.7473 1.05043 17.4507 0.752503 15.9611L0.0386356 12.3927L0.00836217 12.1896C-0.088834 11.181 0.59211 10.2426 1.60699 10.0392C2.62241 9.83613 3.61248 10.4405 3.91071 11.4093L3.96051 11.6076L4.23883 13.0002H19.7603L20.0386 11.6076L20.0884 11.4093ZM5.05133 17.0002C5.18745 17.6219 5.30845 18.1113 5.44293 18.5177C5.6702 19.2045 5.86115 19.4239 6.01129 19.547L6.14801 19.6418C6.31587 19.7382 6.5927 19.8353 7.13141 19.9015C7.90446 19.9964 8.93837 20.0002 10.5582 20.0002H13.441C15.0607 20.0002 16.0947 19.9964 16.8677 19.9015C17.5849 19.8135 17.8376 19.67 17.9879 19.547L18.108 19.4308C18.2355 19.2852 18.3856 19.0332 18.5562 18.5177C18.6907 18.1113 18.8127 17.6219 18.9488 17.0002H5.05133ZM8.58551 0.586091C9.36652 -0.194917 10.6326 -0.194834 11.4136 0.586091C12.1947 1.36714 12.1947 2.63317 11.4136 3.41422L10.689 4.1398C10.6222 4.20688 10.6111 4.31196 10.6636 4.39078C11.7739 6.05621 11.5546 8.27426 10.1392 9.68961L9.41364 10.4142C8.63256 11.195 7.36647 11.1952 6.58551 10.4142C5.80468 9.63325 5.80478 8.36712 6.58551 7.58609L7.31012 6.86051L7.35016 6.80386C7.37877 6.74236 7.37492 6.66864 7.33551 6.60953C6.22535 4.94422 6.44485 2.72603 7.85992 1.3107L8.58551 0.586091ZM15.5855 0.586091C16.3665 -0.194917 17.6326 -0.194834 18.4136 0.586091C19.1947 1.36714 19.1947 2.63317 18.4136 3.41422L17.689 4.1398C17.6222 4.20688 17.6111 4.31196 17.6636 4.39078C18.7739 6.05621 18.5546 8.27426 17.1392 9.68961L16.4136 10.4142C15.6326 11.195 14.3665 11.1952 13.5855 10.4142C12.8047 9.63325 12.8048 8.36712 13.5855 7.58609L14.3101 6.86051L14.3502 6.80386C14.3788 6.74236 14.3749 6.66864 14.3355 6.60953C13.2254 4.94422 13.4449 2.72603 14.8599 1.3107L15.5855 0.586091Z" fill="#111111"/>
</g>
<defs>
<clipPath id="clip0_2997_22">
<rect width="24" height="24" fill="white"/>
</clipPath>
</defs>
</svg>
