<svg width="24" height="24" viewBox="0 0 24 24" fill="none" xmlns="http://www.w3.org/2000/svg">
<g clip-path="url(#clip0_2997_36)">
<path d="M20.1025 10.3691C20.4212 9.40685 21.4227 8.8234 22.4336 9.04785C23.4446 9.27252 24.1053 10.2255 23.9863 11.2324L23.9521 11.4336L23.3447 14.1689C23.0218 15.6221 22.7433 16.888 22.3896 17.8896C22.0411 18.8768 21.5582 19.7978 20.7187 20.5352L20.5459 20.6807C19.5987 21.4404 18.5304 21.7405 17.4218 21.875C16.3674 22.0029 15.0714 22 13.583 22H10.417C8.9285 22 7.63249 22.003 6.57809 21.875C5.53896 21.7489 4.53554 21.4768 3.63376 20.8174L3.45407 20.6807C2.50683 19.9208 1.98215 18.9427 1.61032 17.8896C1.25667 16.888 0.978158 15.6221 0.655242 14.1689L0.0478204 11.4336L0.0136407 11.2324C-0.105392 10.2256 0.555424 9.27257 1.56638 9.04785C2.57724 8.82333 3.57875 9.40683 3.89743 10.3691L3.95212 10.5664L4.27145 12H19.7285L20.0478 10.5664L20.1025 10.3691ZM5.20602 16C5.26453 16.2036 5.3218 16.3887 5.3818 16.5586C5.61776 17.2267 5.80752 17.4406 5.957 17.5605L6.09372 17.6523C6.25996 17.7461 6.53273 17.8402 7.06052 17.9043C7.81835 17.9962 8.82967 18 10.417 18H13.583C15.1703 18 16.1816 17.9962 16.9394 17.9043C17.643 17.8189 17.8934 17.6805 18.0429 17.5605L18.1621 17.4473C18.2897 17.3054 18.441 17.0602 18.6181 16.5586C18.6782 16.3886 18.7364 16.2037 18.7949 16H5.20602ZM7.99997 4C9.65682 4 11 5.34315 11 7C11 8.65685 9.65682 10 7.99997 10C6.34319 9.99992 4.99997 8.6568 4.99997 7C4.99997 5.3432 6.34319 4.00008 7.99997 4Z" fill="#111111"/>
</g>
<defs>
<clipPath id="clip0_2997_36">
<rect width="24" height="24" fill="white"/>
</clipPath>
</defs>
</svg>
