<svg width="24" height="24" viewBox="0 0 24 24" fill="none" xmlns="http://www.w3.org/2000/svg">
<g clip-path="url(#clip0_2997_34)">
<path d="M12 0C18.6274 0 24 5.37258 24 12C24 14.046 23.4866 15.9775 22.5801 17.667L22.3936 18.001C20.3217 21.5826 16.4442 24 12 24C7.69465 24 3.9209 21.732 1.80566 18.334L1.60645 18.001C0.584399 16.234 0 14.1822 0 12C0 9.81778 0.584399 7.766 1.60645 5.99902L1.80566 5.66602C3.9209 2.26803 7.69465 0 12 0ZM8.125 19C9.27362 19.6371 10.5946 20 12 20C13.4054 20 14.7264 19.6371 15.875 19H8.125ZM4.25293 14C4.34114 14.3429 4.45114 14.6768 4.58203 15H19.418C19.5489 14.6768 19.6589 14.3429 19.7471 14H4.25293ZM4.58203 9C4.45114 9.32325 4.34114 9.65705 4.25293 10H19.748C19.6597 9.65693 19.5471 9.32364 19.416 9H4.58203ZM12 4C10.5946 4 9.27362 4.36287 8.125 5H15.873C14.7253 4.36362 13.4053 4 12 4Z" fill="#111111"/>
</g>
<defs>
<clipPath id="clip0_2997_34">
<rect width="24" height="24" fill="white"/>
</clipPath>
</defs>
</svg>
