<svg width="24" height="24" viewBox="0 0 24 24" fill="none" xmlns="http://www.w3.org/2000/svg">
<g clip-path="url(#clip0_2997_23)">
<path d="M11.0713 17C11.5902 17.0002 12.0184 17.3987 11.9765 17.916C11.8596 19.3592 11.2049 22 7.97946 22C5.12662 21.9999 4.31847 19.4489 4.08982 17.9912C4.00458 17.4468 4.446 17 4.99704 17H11.0713ZM19.0713 17C19.5902 17.0002 20.0184 17.3987 19.9765 17.916C19.8596 19.3592 19.2049 22 15.9795 22C13.1266 21.9999 12.3185 19.4489 12.0898 17.9912C12.0046 17.4468 12.446 17 12.997 17H19.0713ZM13 2C16.3137 2 19 4.68629 19 8V11.9922C19.4105 11.986 19.6994 11.975 19.9277 11.9443C19.9323 11.9437 19.937 11.942 19.9414 11.9414C19.942 11.937 19.9437 11.9323 19.9443 11.9277C19.9954 11.5474 20 10.9991 20 10V9C20 7.89543 20.8954 7 22 7C23.1045 7 24 7.89543 24 9V10C24 10.8862 24.0044 11.7521 23.9092 12.4609C23.8125 13.1794 23.5855 13.993 22.959 14.6904L22.8281 14.8281C22.1017 15.5546 21.2273 15.8061 20.4609 15.9092C19.7521 16.0045 18.8862 16 18 16H5.99997C5.11376 16 4.24788 16.0045 3.53903 15.9092C2.82053 15.8126 2.00699 15.5855 1.30954 14.959L1.17185 14.8281C0.445417 14.1017 0.193832 13.2273 0.0907921 12.4609C-0.00449491 11.7521 -2.82172e-05 10.8862 -2.8217e-05 10V9C-2.8217e-05 7.89543 0.895404 7 1.99997 7C3.10454 7 3.99997 7.89543 3.99997 9V10C3.99997 10.9991 4.00453 11.5474 4.05564 11.9277C4.05625 11.9323 4.05698 11.937 4.05759 11.9414C4.06232 11.9421 4.0673 11.9437 4.07224 11.9443C4.30057 11.975 4.58944 11.986 4.99997 11.9922V8C4.99997 4.6863 7.68628 2.00002 11 2H13ZM11 6C9.89542 6.00002 8.99997 6.89544 8.99997 8V12H15V8C15 6.89543 14.1045 6 13 6H11Z" fill="#111111"/>
</g>
<defs>
<clipPath id="clip0_2997_23">
<rect width="24" height="24" fill="white"/>
</clipPath>
</defs>
</svg>
