<svg width="24" height="24" viewBox="0 0 24 24" fill="none" xmlns="http://www.w3.org/2000/svg">
<g clip-path="url(#clip0_2997_43)">
<path d="M20 11.9854C17.1494 11.9592 13.8139 11.9587 10.8213 12.625C7.28462 13.4125 4.88904 14.9668 4.20605 18H14C15.9422 18 17.198 17.9955 18.123 17.8711C18.9901 17.7545 19.2618 17.5663 19.4141 17.4141L19.4727 17.3506C19.6123 17.1847 19.769 16.8818 19.8711 16.123C19.9955 15.198 20 13.9422 20 12V11.9854ZM24 12C24 13.8289 24.0044 15.4018 23.8359 16.6553C23.6707 17.8843 23.3109 19.0661 22.4268 20.0488L22.2422 20.2422C21.2229 21.2615 19.9663 21.6597 18.6553 21.8359C17.4018 22.0044 15.8289 22 14 22H4C3.5799 22 3.02751 22.0059 2.55371 21.9307C2.01973 21.8458 1.36044 21.6286 0.816406 21.0498L0.708985 20.9297C0.183614 20.3042 0.0343661 19.6122 0.0341798 19.0117C0.0340384 18.5386 0.132869 18.0172 0.195313 17.6611C1.18003 12.0468 5.61514 9.6864 9.95215 8.7207C13.3445 7.9654 17.1133 7.95438 19.9678 7.98242C19.967 7.97072 19.9676 7.95879 19.9668 7.94727C19.9435 7.60593 19.9079 7.42276 19.877 7.31738L19.8477 7.23438C19.6447 6.74453 19.2555 6.35533 18.7656 6.15234C18.6824 6.11788 18.5086 6.06432 18.0527 6.0332C17.5788 6.00087 16.9592 6 16 6H11C9.89543 6 9 5.10457 9 4C9 2.89543 9.89543 2 11 2H16C16.9045 2 17.6835 1.99919 18.3252 2.04297C18.9847 2.08799 19.6442 2.18711 20.2959 2.45703C21.7661 3.066 22.934 4.23393 23.543 5.7041L23.6367 5.94824C23.8372 6.52024 23.9176 7.09761 23.957 7.67481C24.0008 8.3165 24 9.09548 24 10V12Z" fill="#111111"/>
</g>
<defs>
<clipPath id="clip0_2997_43">
<rect width="24" height="24" fill="white"/>
</clipPath>
</defs>
</svg>
