<svg width="24" height="24" viewBox="0 0 24 24" fill="none" xmlns="http://www.w3.org/2000/svg">
<g clip-path="url(#clip0_2997_56)">
<path d="M5.90272 18.8506C7.35204 18.3098 8.9594 18.3485 10.3861 18.9668L10.6312 19.0801C10.7149 19.1208 10.8018 19.1644 10.8949 19.2109L11.2055 19.3633L11.3988 19.4355C11.8555 19.5795 12.3517 19.5554 12.7953 19.3633L13.1058 19.2109C13.2918 19.118 13.4522 19.0372 13.6146 18.9668L13.9027 18.8506C15.352 18.3098 16.9594 18.3485 18.3861 18.9668L18.6312 19.0801C18.7149 19.1208 18.8018 19.1644 18.8949 19.2109L20.8949 20.2109L21.0726 20.3115C21.929 20.8541 22.2525 21.9683 21.7894 22.8945C21.3264 23.8207 20.2411 24.2304 19.2934 23.8711L19.1059 23.7891L17.1059 22.7891L16.7953 22.6367C16.3517 22.4446 15.8555 22.4205 15.3988 22.5645L15.2055 22.6367C15.1671 22.6534 15.1207 22.6762 14.8949 22.7891C14.8018 22.8356 14.7149 22.8792 14.6312 22.9199L14.3861 23.0332C12.9594 23.6515 11.352 23.6902 9.90272 23.1494L9.61464 23.0332C9.53364 22.9981 9.45286 22.9604 9.36952 22.9199L9.10585 22.7891L8.7953 22.6367C8.35174 22.4446 7.85548 22.4205 7.39882 22.5645L7.20546 22.6367L6.89491 22.7891L4.89491 23.7891C3.907 24.283 2.70534 23.8824 2.21132 22.8945C1.71734 21.9066 2.11789 20.7049 3.10585 20.2109L5.10585 19.2109L5.36952 19.0801C5.45286 19.0396 5.53364 19.0019 5.61464 18.9668L5.90272 18.8506ZM7.15956 0.00683594C7.16738 0.00745893 7.1752 0.00807541 7.183 0.00878906C7.20365 0.010663 7.22405 0.0141042 7.24452 0.0166016C7.28787 0.0219262 7.33085 0.0280514 7.37343 0.0361328C7.39009 0.0392822 7.40672 0.0423383 7.42323 0.0458984C7.46606 0.0551645 7.50831 0.0661376 7.55019 0.078125C7.57143 0.0841965 7.59271 0.0899293 7.61366 0.0966797C7.66597 0.113546 7.71747 0.132315 7.76796 0.15332C7.78884 0.162014 7.80897 0.172267 7.82948 0.181641C7.86106 0.196052 7.89251 0.210561 7.92323 0.226562C7.94834 0.239661 7.97298 0.253459 7.99745 0.267578C8.02559 0.283783 8.05316 0.300821 8.08046 0.318359C8.10121 0.331721 8.12176 0.345276 8.14198 0.359375C8.23732 0.42572 8.32694 0.499969 8.40956 0.582031C8.41609 0.588524 8.42265 0.59498 8.42909 0.601562C8.46452 0.637736 8.49894 0.674968 8.53163 0.713867C8.54282 0.727175 8.55301 0.741282 8.56386 0.754883C8.58906 0.78652 8.61279 0.819284 8.63612 0.852539C8.6477 0.869019 8.65921 0.885503 8.6703 0.902344C8.72787 0.989933 8.7789 1.08239 8.82265 1.17969C8.83882 1.21557 8.85349 1.25209 8.86757 1.28906C8.87709 1.31409 8.8883 1.3387 8.89686 1.36426C8.89649 1.36314 8.89623 1.36142 8.89589 1.36035C8.8952 1.35832 8.89452 1.35621 8.89394 1.35449C8.89276 1.35106 8.89082 1.34787 8.89003 1.3457C8.88919 1.34332 8.88924 1.3415 8.88905 1.34082C8.88991 1.34314 8.89438 1.35558 8.90272 1.37598C8.92013 1.41847 8.95416 1.4974 9.00819 1.60547C9.11695 1.82297 9.30502 2.15647 9.59999 2.5498C10.1493 3.28219 11.0783 4.2377 12.5853 5.05078L12.8949 5.21094L13.0726 5.31152C13.929 5.85407 14.2525 6.96827 13.7894 7.89453C13.3264 8.82068 12.2411 9.23037 11.2933 8.87109L11.1058 8.78906L10.683 8.56934C10.0592 8.23265 9.50039 7.87321 9.00038 7.50488V8.58789C9.00315 8.5935 9.00531 8.59969 9.00819 8.60547C9.11695 8.82297 9.30502 9.15647 9.59999 9.5498C10.1493 10.2822 11.0783 11.2377 12.5853 12.0508L12.8949 12.2109L13.0726 12.3115C13.929 12.8541 14.2525 13.9683 13.7894 14.8945C13.3264 15.8207 12.2411 16.2304 11.2933 15.8711L11.1058 15.7891L10.683 15.5693C10.0592 15.2326 9.50039 14.8732 9.00038 14.5049V15C9.00038 16.1045 8.10479 16.9998 7.00038 17C5.89581 17 5.00038 16.1046 5.00038 15V14.5049C4.50033 14.8733 3.94161 15.2326 3.31776 15.5693L2.89491 15.7891C1.907 16.283 0.705339 15.8824 0.211318 14.8945C-0.28266 13.9066 0.117893 12.7049 1.10585 12.2109L1.41542 12.0508C2.92245 11.2377 3.8515 10.2822 4.40077 9.5498C4.69573 9.15646 4.88384 8.82293 4.99257 8.60547C4.99548 8.59965 4.99759 8.59354 5.00038 8.58789V7.50488C4.50033 7.87327 3.94161 8.23259 3.31776 8.56934L2.89491 8.78906C1.907 9.28302 0.705339 8.88239 0.211318 7.89453C-0.28266 6.90657 0.117893 5.70492 1.10585 5.21094L1.41542 5.05078C2.92245 4.23767 3.8515 3.28217 4.40077 2.5498C4.69573 2.15646 4.88384 1.82293 4.99257 1.60547C5.04661 1.49737 5.08066 1.41843 5.09804 1.37598C5.10649 1.3553 5.11097 1.34283 5.11171 1.34082C5.11149 1.34142 5.11157 1.34327 5.11073 1.3457C5.10998 1.34786 5.10803 1.35104 5.10683 1.35449C5.10624 1.3562 5.10556 1.35832 5.10487 1.36035C5.10452 1.36138 5.10426 1.36311 5.1039 1.36426C5.1595 1.19841 5.2356 1.0438 5.32851 0.902344C5.33958 0.885508 5.35112 0.869015 5.36269 0.852539C5.38438 0.821592 5.40675 0.791268 5.43007 0.761719C5.43899 0.750426 5.44728 0.738633 5.45644 0.727539L5.49159 0.686523C5.51433 0.660436 5.5379 0.635168 5.5619 0.610352C5.57118 0.600751 5.57978 0.590468 5.58925 0.581055C5.67334 0.49752 5.76545 0.422707 5.86269 0.355469C5.88101 0.342771 5.89959 0.330454 5.91835 0.318359C5.94427 0.301686 5.97077 0.285979 5.99745 0.270508C6.02352 0.255366 6.04976 0.240544 6.07655 0.226562C6.10701 0.210694 6.13803 0.195946 6.16933 0.181641C6.18983 0.172257 6.20998 0.162023 6.23085 0.15332C6.28292 0.131621 6.33603 0.11202 6.39003 0.0947266C6.40738 0.0891763 6.42521 0.0851639 6.44276 0.0800781C6.48656 0.0673668 6.53073 0.0556287 6.57558 0.0458984C6.59209 0.0423287 6.60872 0.039292 6.62538 0.0361328C6.66794 0.0280255 6.71095 0.021953 6.75429 0.0166016C6.77476 0.0140918 6.79516 0.0106756 6.81581 0.00878906C6.87663 0.00318718 6.93841 0 7.00038 0L7.15956 0.00683594ZM20.0004 4C22.2094 4.00019 24.0004 5.79098 24.0004 8C24.0004 10.209 22.2094 11.9998 20.0004 12C17.7912 12 16.0004 10.2091 16.0004 8C16.0004 5.79086 17.7912 4 20.0004 4Z" fill="#111111"/>
</g>
<defs>
<clipPath id="clip0_2997_56">
<rect width="24" height="24" fill="white"/>
</clipPath>
</defs>
</svg>
