<svg width="24" height="24" viewBox="0 0 24 24" fill="none" xmlns="http://www.w3.org/2000/svg">
<g clip-path="url(#clip0_2997_15)">
<path d="M6.0567 -5.60094e-06C6.41826 -6.90549e-06 6.81623 -0.00175741 7.14947 0.0263616C7.43666 0.0505972 7.89444 0.108892 8.36236 0.349604L8.56256 0.464838L8.77838 0.618158C9.25234 0.99718 9.52317 1.49543 9.64459 1.71581C9.83513 2.06167 10.0511 2.51892 10.2862 3.01464L10.3995 3.2246C10.5192 3.42157 10.6602 3.57961 10.8243 3.69628C11.0234 3.83794 11.3674 3.99999 12.0001 3.99999C12.6327 3.99999 12.9767 3.83794 13.1758 3.69628C13.3946 3.54066 13.573 3.31173 13.7139 3.01464L14.0508 2.30859C14.158 2.08913 14.2603 1.88873 14.3555 1.71581C14.4943 1.46398 14.8286 0.849963 15.4376 0.464838L15.6378 0.349604C16.1057 0.108892 16.5634 0.0505972 16.8506 0.0263616C17.1839 -0.00175739 17.5819 -6.90549e-06 17.9434 -5.60094e-06H20.0001C20.4148 -5.60135e-06 20.9269 -0.00394893 21.3633 0.0546819C21.8266 0.116962 22.457 0.276681 23.0118 0.774408L23.1211 0.878901L23.2256 0.988276C23.7234 1.54309 23.8831 2.17348 23.9454 2.63671C24.004 3.07317 24.0001 3.58527 24.0001 3.99999V7.99999C24.0001 8.41472 24.004 8.92682 23.9454 9.36328C23.8831 9.82651 23.7234 10.4569 23.2256 11.0117L23.1211 11.1211C22.5412 11.7011 21.8574 11.8789 21.3633 11.9453C20.9269 12.0039 20.4148 12 20.0001 12V20C20.0001 20.4147 20.004 20.9268 19.9454 21.3633C19.8831 21.8265 19.7234 22.4569 19.2256 23.0117L19.1211 23.1211C18.5412 23.7011 17.8574 23.8789 17.3633 23.9453C16.9269 24.0039 16.4148 24 16.0001 24H8.00006C7.58533 24 7.07323 24.0039 6.63677 23.9453C6.17354 23.883 5.54315 23.7233 4.98834 23.2256L4.87896 23.1211C4.29898 22.5411 4.12117 21.8574 4.05474 21.3633C3.99611 20.9268 4.00006 20.4147 4.00006 20V12C3.58533 12 3.07323 12.0039 2.63677 11.9453C2.17354 11.883 1.54315 11.7233 0.988337 11.2256L0.878962 11.1211C0.298977 10.5411 0.121172 9.85737 0.0547429 9.36328C-0.0038879 8.92682 5.54342e-05 8.41472 5.54342e-05 7.99999V3.99999C5.54342e-05 3.58527 -0.0038879 3.07317 0.0547429 2.63671C0.121172 2.14262 0.298977 1.45889 0.878962 0.878901L0.988337 0.774408C1.54315 0.276681 2.17354 0.116962 2.63677 0.0546819C3.07323 -0.00394893 3.58533 -5.60094e-06 4.00006 -5.60094e-06H6.0567ZM4.00006 7.99999C4.41478 7.99999 4.92688 7.99605 5.36334 8.05468C5.82657 8.11696 6.45696 8.27668 7.01177 8.77441L7.12115 8.8789L7.22564 8.98828C7.72337 9.54309 7.88309 10.1735 7.94537 10.6367C8.004 11.0732 8.00006 11.5853 8.00006 12V20H16.0001V12C16.0001 11.5853 15.9961 11.0732 16.0547 10.6367C16.1212 10.1426 16.299 9.45889 16.879 8.8789L16.9883 8.77441C17.5431 8.27668 18.1735 8.11696 18.6368 8.05468C19.0732 7.99605 19.5853 7.99999 20.0001 7.99999V3.99999H17.9434C17.8444 3.99999 17.7564 4.00071 17.6768 4.00097C17.667 4.02092 17.6568 4.04137 17.6465 4.06249L17.3282 4.72851C16.9754 5.47228 16.4057 6.30769 15.4942 6.95605C14.563 7.61833 13.3936 7.99999 12.0001 7.99999C10.6065 7.99999 9.43709 7.61833 8.50591 6.95605C7.59439 6.30769 7.02473 5.47228 6.67193 4.72851C6.52688 4.42272 6.41373 4.18703 6.32232 4.00097C6.24295 4.00072 6.15532 3.99999 6.0567 3.99999H4.00006V7.99999Z" fill="#111111"/>
</g>
<defs>
<clipPath id="clip0_2997_15">
<rect width="24" height="24" fill="white"/>
</clipPath>
</defs>
</svg>
