<svg width="24" height="24" viewBox="0 0 24 24" fill="none" xmlns="http://www.w3.org/2000/svg">
<path d="M21.2041 18.0107C22.2128 18.113 23 18.9643 23 20C23 21.0357 22.2128 21.887 21.2041 21.9893L21 22H4C2.89543 22 2 21.1046 2 20C2 18.8954 2.89543 18 4 18H21L21.2041 18.0107ZM18.3086 2.00781C21.4789 2.16843 24 4.78979 24 8V10C24 13.3137 21.3137 16 18 16H4C2.89543 16 2 15.1046 2 14C2 12.8954 2.89543 12 4 12H18C19.1046 12 20 11.1046 20 10V8C20 6.96435 19.2128 6.113 18.2041 6.01074L18 6H4.5C4.22386 6 4 6.22386 4 6.5C4 6.77614 4.22386 7 4.5 7H17C18.1046 7 19 7.89543 19 9C19 10.1046 18.1046 11 17 11H4.5C2.01472 11 0 8.98528 0 6.5C0 4.01472 2.01472 2 4.5 2H18L18.3086 2.00781Z" fill="#111111"/>
</svg>
