<svg width="24" height="24" viewBox="0 0 24 24" fill="none" xmlns="http://www.w3.org/2000/svg">
<g clip-path="url(#clip0_2997_30)">
<path d="M9.58579 17.6569C10.7574 16.4853 10.7574 14.5858 9.58579 13.4142C8.41421 12.2426 6.51472 12.2426 5.34314 13.4142C4.17157 14.5858 4.17157 16.4853 5.34314 17.6569C6.51472 18.8284 8.41421 18.8284 9.58579 17.6569ZM12.4142 20.4853C9.68054 23.219 5.24839 23.219 2.51472 20.4853C-0.218952 17.7516 -0.218953 13.3195 2.51472 10.5858C4.75689 8.34362 8.14117 7.94145 10.7942 9.37736L15.2088 4.96277C15.5089 4.66264 15.8748 4.29047 16.2308 4.0195C16.633 3.71339 17.2545 3.35084 18.0897 3.36074L18.2437 3.36695C19.0006 3.41778 19.5619 3.76788 19.9321 4.0637C20.2816 4.34303 20.639 4.72328 20.9319 5.03045L22.4477 6.61937C23.2099 7.4186 23.1797 8.68474 22.3807 9.4471C21.5814 10.2094 20.3153 10.1794 19.553 9.38012L18.0372 7.7912L17.3439 8.4845L18.4336 9.60592L18.5696 9.75991C19.1989 10.5545 19.136 11.7127 18.3935 12.4344C17.6015 13.2039 16.3356 13.1856 15.5658 12.3936L14.5155 11.3129L13.6226 12.2058C15.0586 14.8588 14.6564 18.2431 12.4142 20.4853Z" fill="#111111"/>
</g>
<defs>
<clipPath id="clip0_2997_30">
<rect width="24" height="24" fill="white"/>
</clipPath>
</defs>
</svg>
