<svg width="24" height="24" viewBox="0 0 24 24" fill="none" xmlns="http://www.w3.org/2000/svg">
<g clip-path="url(#clip0_2997_45)">
<path d="M8.99968 20.0002C10.1042 20.0002 10.9997 20.8956 10.9997 22.0002C10.9996 23.1047 10.1042 24.0002 8.99968 24.0002C7.8953 24.0001 6.99979 23.1046 6.99968 22.0002C6.99968 20.8957 7.89523 20.0003 8.99968 20.0002ZM19.9997 20.0002C21.1042 20.0002 21.9997 20.8956 21.9997 22.0002C21.9996 23.1047 21.1042 24.0002 19.9997 24.0002C18.8953 24.0001 17.9998 23.1046 17.9997 22.0002C17.9997 20.8957 18.8952 20.0003 19.9997 20.0002ZM0.119794 1.31856C0.472929 0.345224 1.50313 -0.187704 2.48601 0.0597689L2.68132 0.120316L4.36393 0.730667L4.82487 0.901566C4.98825 0.965114 5.15553 1.03494 5.30827 1.11055C5.61536 1.26263 5.99421 1.49712 6.31999 1.88985L6.45671 2.06758L6.5778 2.25606C6.83578 2.69618 6.9263 3.13236 6.96452 3.47285C7.00253 3.81166 6.99968 4.19682 6.99968 4.49043V9.0002C6.99968 10.9422 7.00422 12.1983 7.12858 13.1232C7.24521 13.9901 7.43341 14.262 7.58561 14.4143L7.64909 14.4729C7.72578 14.5374 7.83286 14.6034 7.99968 14.6682V10.0002C7.99968 9.58555 7.99577 9.07332 8.05436 8.63692C8.12078 8.14289 8.29879 7.45904 8.87858 6.87911L8.98796 6.77461C9.54265 6.27699 10.1732 6.11719 10.6364 6.05489C11.0728 5.99627 11.585 6.0002 11.9997 6.0002H17.9997C18.4143 6.0002 18.9265 5.99629 19.363 6.05489C19.8262 6.11716 20.4566 6.27691 21.0114 6.77461L21.1208 6.87911L21.2253 6.98848C21.723 7.54329 21.8827 8.17369 21.945 8.63692C22.0036 9.07334 21.9997 9.58553 21.9997 10.0002V15.0002L22.2048 15.01C23.2131 15.1125 23.9997 15.9648 23.9997 17.0002C23.9996 18.1047 23.1042 19.0002 21.9997 19.0002H11.9997C11.9336 19.0002 11.865 18.9983 11.7946 18.9982C11.7047 18.9979 11.6155 18.9959 11.527 18.9953C11.4483 18.9944 11.3686 18.9948 11.2887 18.9924C10.1757 18.9816 9.18761 18.9495 8.3444 18.8361C7.11543 18.6709 5.93353 18.3111 4.95085 17.427L4.75749 17.2424C3.73824 16.2231 3.34001 14.9664 3.16374 13.6555C2.99526 12.4021 2.99968 10.829 2.99968 9.0002V4.49043L1.31804 3.88008L1.12858 3.80098C0.215887 3.36074 -0.232919 2.29172 0.119794 1.31856ZM11.9997 14.9973C12.3115 14.9983 12.6441 15.0002 12.9997 15.0002H17.9997V10.0002H11.9997V14.9973Z" fill="#111111"/>
</g>
<defs>
<clipPath id="clip0_2997_45">
<rect width="24" height="24" fill="white"/>
</clipPath>
</defs>
</svg>
