<svg width="24" height="24" viewBox="0 0 24 24" fill="none" xmlns="http://www.w3.org/2000/svg">
<path d="M12 1.00001C13.8289 1.00001 15.4018 0.995594 16.6553 1.16407C17.9663 1.34034 19.2229 1.73852 20.2422 2.75782L20.4268 2.95118C21.3109 3.93393 21.6707 5.11568 21.8359 6.34474C22.0044 7.59818 22 9.1711 22 11V13C22 14.8289 22.0044 16.4018 21.8359 17.6553C21.6707 18.8843 21.3109 20.0661 20.4268 21.0488L20.2422 21.2422C19.2229 22.2615 17.9663 22.6597 16.6553 22.8359C15.4018 23.0044 13.8289 23 12 23C10.1711 23 8.59818 23.0044 7.34474 22.8359C6.11568 22.6707 4.93393 22.3109 3.95118 21.4268L3.75782 21.2422C2.73852 20.2229 2.34034 18.9663 2.16407 17.6553C1.99559 16.4018 2.00001 14.8289 2.00001 13V11C2.00001 9.1711 1.99559 7.59818 2.16407 6.34474C2.34034 5.03371 2.7385 3.77714 3.75782 2.75782L3.95118 2.57325C4.93393 1.68909 6.11568 1.32932 7.34474 1.16407C8.59818 0.995591 10.1711 1.00001 12 1.00001ZM12 5.00001C10.0579 5.00001 8.80197 5.00455 7.87696 5.12892C7.11819 5.23098 6.81527 5.38774 6.64943 5.52735L6.58595 5.58595C6.43373 5.73817 6.24555 6.00988 6.12892 6.87696C6.00455 7.80197 6.00001 9.05787 6.00001 11V13C6.00001 14.9422 6.00456 16.198 6.12892 17.1231C6.24555 17.9901 6.43373 18.2618 6.58595 18.4141L6.64943 18.4727C6.81527 18.6123 7.11819 18.769 7.87696 18.8711C8.80197 18.9955 10.0579 19 12 19C13.9422 19 15.198 18.9955 16.1231 18.8711C16.9902 18.7545 17.2619 18.5663 17.4141 18.4141L17.4727 18.3506C17.6123 18.1847 17.769 17.8818 17.8711 17.1231C17.9955 16.198 18 14.9422 18 13V11C18 9.05787 17.9955 7.80197 17.8711 6.87696C17.769 6.11819 17.6123 5.81527 17.4727 5.64943L17.4141 5.58595C17.2618 5.43373 16.9901 5.24555 16.1231 5.12892C15.198 5.00456 13.9422 5.00001 12 5.00001ZM9.00001 6.00001C10.1046 6.00001 11 6.89545 11 8.00001V9.00001C11 10.1046 10.1046 11 9.00001 11C7.89545 11 7.00001 10.1046 7.00001 9.00001V8.00001C7.00002 6.89545 7.89545 6.00002 9.00001 6.00001Z" fill="#111111"/>
</svg>
