<svg width="24" height="24" viewBox="0 0 24 24" fill="none" xmlns="http://www.w3.org/2000/svg">
<path d="M13.4551 6.04199C15.2179 3.52725 19.1241 3.86519 20.3857 6.74902L23.3808 13.5947C25.1152 17.5588 22.2107 22 17.8838 22H6.47167C2.01164 21.9997 -0.889176 17.3057 1.10546 13.3164L2.84374 9.84081L2.97069 9.60546C4.35129 7.23775 7.7051 6.92249 9.49413 9.06933L10.7334 10.5557L13.291 6.29394L13.4551 6.04199ZM4.68358 15.1055C4.01875 16.4351 4.98516 17.9997 6.47167 18H11.7305L6.42089 11.6299L4.68358 15.1055ZM13.4453 13.8105L16.9365 18H17.8838C19.3261 18 20.2939 16.5196 19.7158 15.1982L16.7207 8.35253L13.4453 13.8105Z" fill="#111111"/>
</svg>
