<svg width="24" height="24" viewBox="0 0 24 24" fill="none" xmlns="http://www.w3.org/2000/svg">
<path d="M14 9C14 7.89543 13.1046 7 12 7H10V11H12C13.1046 11 14 10.1046 14 9ZM18 9C18 12.3137 15.3137 15 12 15H10V19C10 20.1046 9.10458 21 8.00002 21C6.89545 21 6.00002 20.1046 6.00002 19V6.59961C6.00001 6.35265 5.99871 6.04722 6.02052 5.78027C6.04426 5.48984 6.10509 5.07354 6.32716 4.6377L6.4424 4.43164C6.73059 3.96166 7.14382 3.57888 7.63771 3.32715L7.8008 3.25098C8.17622 3.09036 8.52625 3.04127 8.78029 3.02051C9.04723 2.9987 9.35267 3 9.59962 3H12C15.3137 3 18 5.68629 18 9Z" fill="#111111"/>
</svg>
