<svg width="24" height="24" viewBox="0 0 24 24" fill="none" xmlns="http://www.w3.org/2000/svg">
<path d="M19.6349 6.28152C20.718 6.49815 21.4204 7.55174 21.2038 8.63486C20.9871 9.71798 19.9335 10.4204 18.8504 10.2038L16.3645 9.70657L9.39286 16.6782L9.89005 19.1641L9.91974 19.3665C10.0172 20.3756 9.33666 21.3144 8.32115 21.5175C7.30565 21.7206 6.31636 21.1157 6.01822 20.1468L5.96782 19.9486L5.52242 17.7202L3.29407 17.2748C2.21095 17.0582 1.50855 16.0046 1.72517 14.9215C1.9418 13.8384 2.99539 13.136 4.07851 13.3526L6.56444 13.8498L13.5361 6.87814L13.0389 4.39222L13.0092 4.18989C12.9117 3.18079 13.5923 2.24198 14.6078 2.03888C15.6233 1.83578 16.6126 2.44062 16.9107 3.40959L16.9611 3.60777L17.4065 5.83613L19.6349 6.28152Z" fill="#111111"/>
</svg>
