<svg width="24" height="24" viewBox="0 0 24 24" fill="none" xmlns="http://www.w3.org/2000/svg">
<path d="M16.7354 2C18.8428 2.00004 20.7956 3.10594 21.8799 4.91309L24 8.44629V22C24 23.1046 23.1046 24 22 24C20.8954 24 20 23.1046 20 22V21H4V22C4 23.1046 3.10457 24 2 24C0.89543 24 0 23.1046 0 22V8.44629L2.12012 4.91309L2.33301 4.58203C3.44876 2.97162 5.28894 2.00004 7.26465 2H16.7354ZM4 17H20V11H4V17ZM8 12C9.10457 12 10 12.8954 10 14C10 15.1046 9.10457 16 8 16C6.89543 16 6 15.1046 6 14C6 12.8954 6.89543 12 8 12ZM16 12C17.1046 12 18 12.8954 18 14C18 15.1046 17.1046 16 16 16C14.8954 16 14 15.1046 14 14C14 12.8954 14.8954 12 16 12ZM7.26465 6C6.56226 6.00004 5.91126 6.36846 5.5498 6.9707L5.53223 7H18.4678L18.4502 6.9707C18.0887 6.36846 17.4377 6.00004 16.7354 6H7.26465Z" fill="#111111"/>
</svg>
