<svg width="24" height="24" viewBox="0 0 24 24" fill="none" xmlns="http://www.w3.org/2000/svg">
<g clip-path="url(#clip0_2997_16)">
<path d="M5.90272 18.8506C7.35204 18.3098 8.9594 18.3485 10.3861 18.9668L10.6312 19.0801C10.7149 19.1208 10.8018 19.1644 10.8949 19.2109L11.2055 19.3633L11.3988 19.4355C11.8555 19.5795 12.3517 19.5554 12.7953 19.3633L13.1058 19.2109C13.2918 19.118 13.4522 19.0372 13.6146 18.9668L13.9027 18.8506C15.352 18.3098 16.9594 18.3485 18.3861 18.9668L18.6312 19.0801C18.7149 19.1208 18.8018 19.1644 18.8949 19.2109L20.8949 20.2109L21.0726 20.3115C21.929 20.8541 22.2525 21.9683 21.7894 22.8945C21.3264 23.8207 20.2411 24.2304 19.2934 23.8711L19.1059 23.7891L17.1058 22.7891L16.7953 22.6367C16.3517 22.4446 15.8555 22.4205 15.3988 22.5645L15.2055 22.6367C15.1671 22.6534 15.1207 22.6762 14.8949 22.7891C14.8018 22.8356 14.7149 22.8792 14.6312 22.9199L14.3861 23.0332C12.9594 23.6515 11.352 23.6902 9.90272 23.1494L9.61464 23.0332C9.53364 22.9981 9.45286 22.9604 9.36952 22.9199L9.10585 22.7891L8.7953 22.6367C8.35174 22.4446 7.85548 22.4205 7.39882 22.5645L7.20546 22.6367L6.89491 22.7891L4.89491 23.7891C3.907 24.283 2.70534 23.8824 2.21132 22.8945C1.71734 21.9066 2.11789 20.7049 3.10585 20.2109L5.10585 19.2109L5.36952 19.0801C5.45286 19.0396 5.53364 19.0019 5.61464 18.9668L5.90272 18.8506ZM19.0004 0C20.1048 0.000193252 21.0004 0.89555 21.0004 2C21.0004 3.03553 20.213 3.88683 19.2045 3.98926L18.7963 4.01074C17.7876 4.113 17.0004 4.96435 17.0004 6V15C17.0004 16.1045 16.1048 16.9998 15.0004 17C13.9647 17 13.1124 16.2128 13.0101 15.2041L13.0004 15H9.00038L8.98964 15.2041C8.8874 16.2127 8.03588 16.9998 7.00038 17C5.89581 17 5.00038 16.1046 5.00038 15V4C5.00038 1.79086 6.79124 0 9.00038 0C10.1048 0.000193509 11.0004 0.89555 11.0004 2C11.0004 3.10445 10.1048 3.99981 9.00038 4V5H13.0844C13.5605 2.1624 16.0275 0 19.0004 0ZM9.00038 9V11H13.0004V9H9.00038Z" fill="#111111"/>
</g>
<defs>
<clipPath id="clip0_2997_16">
<rect width="24" height="24" fill="white"/>
</clipPath>
</defs>
</svg>
