<svg width="24" height="24" viewBox="0 0 24 24" fill="none" xmlns="http://www.w3.org/2000/svg">
<g clip-path="url(#clip0_2997_37)">
<path d="M17.5 8C20.5376 8 23 10.4624 23 13.5V14.2939C23.1565 14.3701 23.2931 14.465 23.4141 14.5859C23.9999 15.1717 24 16.1144 24 18V20C24 21.8856 23.9999 22.8283 23.4141 23.4141C22.8283 23.9998 21.8856 24 20 24H15C13.1144 24 12.1717 23.9998 11.586 23.4141C11.0002 22.8283 11 21.8856 11 20V18C11 16.1144 11.0002 15.1717 11.586 14.5859C11.7069 14.465 11.8435 14.3701 12 14.2939V13.5C12 10.4624 14.4625 8.00001 17.5 8ZM6.00002 3C9.31372 3 12 5.6863 12 9C12 12.3137 9.31372 15 6.00002 15H4.00002V19C4.00002 20.1046 3.10458 21 2.00002 21C0.89546 21 1.52438e-05 20.1046 1.52438e-05 19V6.59961C1.3559e-05 6.35266 -0.00128678 6.04721 0.0205231 5.78027C0.0442581 5.48984 0.10509 5.07354 0.327164 4.6377L0.442398 4.43164C0.730583 3.96167 1.14383 3.57888 1.63771 3.32715L1.8008 3.25098C2.1762 3.09036 2.52625 3.04127 2.78029 3.02051C3.04722 2.9987 3.35267 3 3.59962 3H6.00002ZM17.5 12C16.6716 12 16 12.6716 16 13.5V14H19V13.5C19 12.6716 18.3284 12 17.5 12ZM4.00002 11H6.00002C7.10458 11 8.00002 10.1046 8.00002 9C8.00001 7.89544 7.10458 7 6.00002 7H4.00002V11Z" fill="#111111"/>
</g>
<defs>
<clipPath id="clip0_2997_37">
<rect width="24" height="24" fill="white"/>
</clipPath>
</defs>
</svg>
