<svg width="24" height="24" viewBox="0 0 24 24" fill="none" xmlns="http://www.w3.org/2000/svg">
<path d="M20.2041 18.0107C21.2128 18.113 22 18.9643 22 20C22 21.0357 21.2128 21.887 20.2041 21.9893L20 22H4C2.89543 22 2 21.1046 2 20C2 18.8954 2.89543 18 4 18H20L20.2041 18.0107ZM12 2C13.1046 2.00002 14 2.89544 14 4V5.15918C15.4369 5.39996 16.6481 5.90742 17.6455 6.63281C19.0656 7.66574 19.8958 9.02521 20.373 10.2979C20.8458 11.5586 20.9925 12.7842 21.0293 13.667C21.0479 14.1147 21.039 14.4918 21.0244 14.7637C21.0171 14.8999 21.0085 15.0109 21.001 15.0928C20.9972 15.1336 20.994 15.1674 20.9912 15.1934C20.9898 15.2063 20.9884 15.2175 20.9873 15.2266C20.9868 15.2311 20.9858 15.2357 20.9854 15.2393C20.9852 15.2409 20.9855 15.2427 20.9854 15.2441L20.9844 15.2461L19 15L20.9844 15.248C20.8593 16.2489 20.0086 17 19 17H5C3.9914 17 3.14073 16.2489 3.01562 15.248L5 15L3.01562 15.2461L3.01465 15.2441C3.01448 15.2427 3.01485 15.2409 3.01465 15.2393C3.01422 15.2357 3.01323 15.2311 3.0127 15.2266C3.01163 15.2175 3.0102 15.2063 3.00879 15.1934C3.00596 15.1674 3.00277 15.1336 2.99902 15.0928C2.99152 15.0109 2.98289 14.8998 2.97559 14.7637C2.96102 14.4918 2.95206 14.1147 2.9707 13.667C3.00748 12.7842 3.15423 11.5586 3.62695 10.2979C4.10419 9.02521 4.93442 7.66574 6.35449 6.63281C7.35193 5.9074 8.5631 5.39997 10 5.15918V4C10 2.89546 10.8955 2.00005 12 2ZM12 9C10.3463 9.00002 9.34012 9.40762 8.70801 9.86719C8.06594 10.3342 7.64575 10.975 7.37305 11.7021C7.21055 12.1355 7.10811 12.5812 7.0459 13H16.9541C16.8919 12.5812 16.7895 12.1355 16.627 11.7021C16.3542 10.975 15.9341 10.3342 15.292 9.86719C14.6599 9.40762 13.6538 9.00001 12 9Z" fill="#111111"/>
</svg>
