<svg width="24" height="24" viewBox="0 0 24 24" fill="none" xmlns="http://www.w3.org/2000/svg">
<g clip-path="url(#clip0_2997_51)">
<path d="M13 4.14007e-06C14.3627 4.14007e-06 15.5353 -0.00219194 16.4883 0.0947307C17.4746 0.195064 18.4453 0.417765 19.333 1.01075L19.5742 1.18067C20.127 1.59062 20.6061 2.09357 20.9893 2.667L21.0957 2.83399C21.6094 3.67579 21.8112 4.58689 21.9053 5.51172C22.0022 6.46473 22 7.63729 22 9V14C22 15.8289 22.0044 17.4018 21.8359 18.6553C21.6707 19.8843 21.3109 21.0661 20.4268 22.0488L20.2422 22.2422C19.2229 23.2615 17.9663 23.6597 16.6553 23.8359C15.4018 24.0044 13.8289 24 12 24C10.1711 24 8.59818 24.0044 7.34474 23.8359C6.11568 23.6707 4.93393 23.3109 3.95118 22.4268L3.75782 22.2422C2.73851 21.2229 2.34034 19.9663 2.16407 18.6553C1.99559 17.4018 2.00001 15.8289 2.00001 14V9C2.00001 7.63729 1.99781 6.46473 2.09474 5.51172C2.19507 4.52543 2.41777 3.5547 3.01075 2.667L3.18068 2.42579C3.59063 1.87302 4.09358 1.3939 4.667 1.01075L4.834 0.904301C5.6758 0.3906 6.5869 0.188813 7.51173 0.0947307C8.46473 -0.00219379 9.63731 4.11595e-06 11 4.14007e-06H13ZM6.00001 14C6.00001 15.9422 6.00455 17.198 6.12892 18.1231C6.24555 18.9901 6.43373 19.2618 6.58595 19.4141L6.64943 19.4727C6.81527 19.6123 7.11819 19.769 7.87696 19.8711C8.80197 19.9955 10.0579 20 12 20C13.9422 20 15.198 19.9955 16.1231 19.8711C16.9901 19.7545 17.2619 19.5663 17.4141 19.4141L17.4727 19.3506C17.6123 19.1847 17.769 18.8818 17.8711 18.1231C17.9955 17.198 18 15.9422 18 14V11H6.00001V14ZM9.00001 12C10.1046 12 11 12.8954 11 14V15C11 16.1046 10.1046 17 9.00001 17C7.89545 17 7.00001 16.1046 7.00001 15V14C7.00001 12.8954 7.89545 12 9.00001 12ZM11 4C9.55394 4 8.61965 4.00264 7.91603 4.07422C7.24604 4.1424 7.00972 4.25604 6.88868 4.33692C6.67035 4.48281 6.48282 4.67035 6.33693 4.88868C6.25605 5.00971 6.14241 5.24603 6.07423 5.91602C6.04281 6.22491 6.02605 6.57849 6.01564 7H17.9844C17.974 6.57849 17.9572 6.22491 17.9258 5.91602C17.8746 5.41319 17.7979 5.15469 17.7285 5.00586L17.6631 4.88868C17.5536 4.72483 17.4204 4.57866 17.2686 4.45411L17.1113 4.33692C16.9903 4.25604 16.754 4.1424 16.084 4.07422C15.3804 4.00265 14.4461 4 13 4H11Z" fill="#111111"/>
</g>
<defs>
<clipPath id="clip0_2997_51">
<rect width="24" height="24" fill="white"/>
</clipPath>
</defs>
</svg>
