<svg width="24" height="24" viewBox="0 0 24 24" fill="none" xmlns="http://www.w3.org/2000/svg">
<g clip-path="url(#clip0_2997_40)">
<path d="M5.90234 18.8506C7.35173 18.3097 8.95892 18.3485 10.3857 18.9668L10.6309 19.0801C10.7146 19.1208 10.8013 19.1643 10.8945 19.2109L11.2051 19.3633L11.3984 19.4355C11.8552 19.5796 12.3513 19.5554 12.7949 19.3633L13.1055 19.2109C13.2915 19.1179 13.4518 19.0372 13.6143 18.9668L13.9023 18.8506C15.3517 18.3097 16.9589 18.3485 18.3857 18.9668L18.6309 19.0801C18.7146 19.1208 18.8013 19.1643 18.8945 19.2109L20.8945 20.2109L21.0723 20.3115C21.9288 20.854 22.2522 21.9682 21.7891 22.8945C21.3259 23.8208 20.2408 24.2306 19.293 23.8711L19.1055 23.7891L17.1055 22.7891L16.7949 22.6367C16.3513 22.4446 15.8552 22.4204 15.3984 22.5645L15.2051 22.6367C15.1667 22.6534 15.1205 22.6761 14.8945 22.7891C14.8013 22.8357 14.7146 22.8792 14.6309 22.9199L14.3857 23.0332C12.9589 23.6515 11.3517 23.6903 9.90234 23.1494L9.61426 23.0332C9.53317 22.9981 9.45257 22.9605 9.36914 22.9199L9.10547 22.7891L8.79492 22.6367C8.35126 22.4446 7.85518 22.4204 7.39844 22.5645L7.20508 22.6367L6.89453 22.7891L4.89453 23.7891C3.90658 24.283 2.70491 23.8825 2.21094 22.8945C1.71697 21.9066 2.11752 20.7049 3.10547 20.2109L5.10547 19.2109L5.36914 19.0801C5.45258 19.0395 5.53317 19.0019 5.61426 18.9668L5.90234 18.8506ZM5.90234 13.8506C7.35173 13.3097 8.95892 13.3485 10.3857 13.9668L10.6309 14.0801C10.7146 14.1208 10.8013 14.1643 10.8945 14.2109L11.2051 14.3633L11.3984 14.4355C11.8552 14.5796 12.3513 14.5554 12.7949 14.3633L13.1055 14.2109C13.2915 14.1179 13.4518 14.0372 13.6143 13.9668L13.9023 13.8506C15.3517 13.3097 16.9589 13.3485 18.3857 13.9668L18.6309 14.0801C18.7146 14.1208 18.8013 14.1643 18.8945 14.2109L20.8945 15.2109L21.0723 15.3115C21.9288 15.854 22.2522 16.9682 21.7891 17.8945C21.3259 18.8208 20.2408 19.2306 19.293 18.8711L19.1055 18.7891L17.1055 17.7891L16.7949 17.6367C16.3513 17.4446 15.8552 17.4204 15.3984 17.5645L15.2051 17.6367C15.1667 17.6534 15.1205 17.6761 14.8945 17.7891C14.8013 17.8357 14.7146 17.8792 14.6309 17.9199L14.3857 18.0332C12.9589 18.6515 11.3517 18.6903 9.90234 18.1494L9.61426 18.0332C9.53317 17.9981 9.45257 17.9605 9.36914 17.9199L9.10547 17.7891L8.79492 17.6367C8.35126 17.4446 7.85518 17.4204 7.39844 17.5645L7.20508 17.6367L6.89453 17.7891L4.89453 18.7891C3.90658 19.283 2.70491 18.8825 2.21094 17.8945C1.71697 16.9066 2.11752 15.7049 3.10547 15.2109L5.10547 14.2109L5.36914 14.0801C5.45258 14.0395 5.53317 14.0019 5.61426 13.9668L5.90234 13.8506ZM12 8C13.1046 8 14 8.89543 14 10V11C14 12.1046 13.1046 13 12 13C10.8954 13 10 12.1046 10 11V10C10 8.89543 10.8954 8 12 8ZM16.5859 6.58594C17.367 5.80489 18.633 5.80489 19.4141 6.58594L20.1211 7.29297C20.9021 8.07402 20.9021 9.34004 20.1211 10.1211C19.34 10.9021 18.074 10.9021 17.293 10.1211L16.5859 9.41406C15.8049 8.63301 15.8049 7.36699 16.5859 6.58594ZM4.29297 5.73242C5.07401 4.95138 6.34004 4.95139 7.12109 5.73242C7.90214 6.51347 7.90214 7.7795 7.12109 8.56055L6.41406 9.26758C5.63301 10.0486 4.36699 10.0486 3.58594 9.26758C2.8049 8.48653 2.80489 7.2205 3.58594 6.43945L4.29297 5.73242ZM13.9873 1.37109C14.3698 0.432887 15.4082 -0.0822062 16.4014 0.208984C17.4611 0.519998 18.0686 1.63165 17.7578 2.69141L17.6846 2.92285C16.8832 5.29155 14.6434 6.9999 12 7C9.35668 6.9999 7.11686 5.29148 6.31543 2.92285L6.24219 2.69141L6.19434 2.49219C6.00883 1.49588 6.60437 0.500701 7.59766 0.208984C8.59101 -0.0825448 9.63017 0.432722 10.0127 1.37109L10.0801 1.56445L10.1318 1.71777C10.4207 2.46893 11.151 2.9999 12 3C12.9056 2.9999 13.675 2.39555 13.9189 1.56445L13.9873 1.37109ZM3 0C4.10457 0 5 0.89543 5 2C5 3.10457 4.10457 4 3 4H2C0.89543 4 0 3.10457 0 2C0 0.89543 0.89543 0 2 0H3ZM22 0C23.1046 0 24 0.89543 24 2C24 3.10457 23.1046 4 22 4H21C19.8954 4 19 3.10457 19 2C19 0.89543 19.8954 0 21 0H22Z" fill="#111111"/>
</g>
<defs>
<clipPath id="clip0_2997_40">
<rect width="24" height="24" fill="white"/>
</clipPath>
</defs>
</svg>
