<svg width="24" height="24" viewBox="0 0 24 24" fill="none" xmlns="http://www.w3.org/2000/svg">
<path d="M5.90272 15.8509C7.35207 15.3101 8.95936 15.3489 10.3861 15.9672L10.6312 16.0804C10.7149 16.1211 10.8019 16.1648 10.8949 16.2113L11.2055 16.3636L11.3988 16.4359C11.8555 16.5798 12.3518 16.5557 12.7953 16.3636L13.1058 16.2113C13.2919 16.1183 13.4522 16.0376 13.6146 15.9672L13.9027 15.8509C15.3521 15.3101 16.9594 15.3489 18.3861 15.9672L18.6312 16.0804C18.7149 16.1211 18.8019 16.1648 18.8949 16.2113L20.8949 17.2113L21.0726 17.3119C21.9289 17.8545 22.2526 18.9687 21.7894 19.8949C21.3263 20.8209 20.2411 21.2306 19.2934 20.8715L19.1059 20.7894L17.1058 19.7894L16.7953 19.6371C16.3517 19.445 15.8555 19.4208 15.3988 19.5648L15.2055 19.6371C15.167 19.6537 15.1208 19.6765 14.8949 19.7894C14.8018 19.836 14.715 19.8796 14.6312 19.9203L14.3861 20.0336C12.9594 20.6518 11.352 20.6905 9.90272 20.1498L9.61464 20.0336C9.53368 19.9985 9.45281 19.9608 9.36952 19.9203L9.10585 19.7894L8.7953 19.6371C8.35171 19.445 7.85551 19.4208 7.39882 19.5648L7.20546 19.6371L6.89491 19.7894L4.89491 20.7894C3.9071 21.2833 2.70543 20.8825 2.21132 19.8949C1.71734 18.9069 2.11789 17.7053 3.10585 17.2113L5.10585 16.2113L5.36952 16.0804C5.45291 16.0399 5.53359 16.0023 5.61464 15.9672L5.90272 15.8509ZM5.90272 9.85095C7.35207 9.31011 8.95936 9.34887 10.3861 9.96716L10.6312 10.0804C10.7149 10.1211 10.8019 10.1648 10.8949 10.2113L11.2055 10.3636L11.3988 10.4359C11.8555 10.5798 12.3518 10.5557 12.7953 10.3636L13.1058 10.2113C13.2919 10.1183 13.4522 10.0376 13.6146 9.96716L13.9027 9.85095C15.3521 9.31011 16.9594 9.34887 18.3861 9.96716L18.6312 10.0804C18.7149 10.1211 18.8019 10.1648 18.8949 10.2113L20.8949 11.2113L21.0726 11.3119C21.9289 11.8545 22.2526 12.9687 21.7894 13.8949C21.3263 14.8209 20.2411 15.2306 19.2934 14.8715L19.1059 14.7894L17.1058 13.7894L16.7953 13.6371C16.3517 13.445 15.8555 13.4208 15.3988 13.5648L15.2055 13.6371C15.167 13.6537 15.1208 13.6765 14.8949 13.7894C14.8018 13.836 14.715 13.8796 14.6312 13.9203L14.3861 14.0336C12.9594 14.6518 11.352 14.6905 9.90272 14.1498L9.61464 14.0336C9.53368 13.9985 9.45281 13.9608 9.36952 13.9203L9.10585 13.7894L8.7953 13.6371C8.35171 13.445 7.85551 13.4208 7.39882 13.5648L7.20546 13.6371L6.89491 13.7894L4.89491 14.7894C3.9071 15.2833 2.70543 14.8825 2.21132 13.8949C1.71734 12.9069 2.11789 11.7053 3.10585 11.2113L5.10585 10.2113L5.36952 10.0804C5.45291 10.0399 5.53359 10.0023 5.61464 9.96716L5.90272 9.85095ZM5.90272 3.85095C7.35207 3.31011 8.95936 3.34887 10.3861 3.96716L10.6312 4.08044C10.7149 4.12109 10.8019 4.16477 10.8949 4.2113L11.2055 4.36364L11.3988 4.43591C11.8555 4.57981 12.3518 4.55574 12.7953 4.36364L13.1058 4.2113C13.2919 4.11829 13.4522 4.03756 13.6146 3.96716L13.9027 3.85095C15.3521 3.31011 16.9594 3.34887 18.3861 3.96716L18.6312 4.08044C18.7149 4.12109 18.8019 4.16477 18.8949 4.2113L20.8949 5.2113L21.0726 5.31189C21.9289 5.8545 22.2526 6.96867 21.7894 7.89489C21.3263 8.82089 20.2411 9.23064 19.2934 8.87146L19.1059 8.78943L17.1058 7.78943L16.7953 7.63708C16.3517 7.44496 15.8555 7.42084 15.3988 7.56482L15.2055 7.63708C15.167 7.65373 15.1208 7.67647 14.8949 7.78943C14.8018 7.836 14.715 7.87959 14.6312 7.92028L14.3861 8.03357C12.9594 8.65182 11.352 8.69053 9.90272 8.14978L9.61464 8.03357C9.53368 7.99848 9.45281 7.96077 9.36952 7.92028L9.10585 7.78943L8.7953 7.63708C8.35171 7.44496 7.85551 7.42084 7.39882 7.56482L7.20546 7.63708L6.89491 7.78943L4.89491 8.78943C3.9071 9.28333 2.70543 8.88254 2.21132 7.89489C1.71734 6.90694 2.11789 5.70528 3.10585 5.2113L5.10585 4.2113L5.36952 4.08044C5.45291 4.03991 5.53359 4.00228 5.61464 3.96716L5.90272 3.85095Z" fill="#111111"/>
</svg>
