<svg width="24" height="24" viewBox="0 0 24 24" fill="none" xmlns="http://www.w3.org/2000/svg">
<path d="M7 20C8.10457 20 9 20.8954 9 22C9 23.1046 8.10457 24 7 24C5.89543 24 5 23.1046 5 22C5 20.8954 5.89543 20 7 20ZM12 20C13.1046 20 14 20.8954 14 22C14 23.1046 13.1046 24 12 24C10.8954 24 10 23.1046 10 22C10 20.8954 10.8954 20 12 20ZM17 20C18.1046 20 19 20.8954 19 22C19 23.1046 18.1046 24 17 24C15.8954 24 15 23.1046 15 22C15 20.8954 15.8954 20 17 20ZM7 15C8.10457 15 9 15.8954 9 17C9 18.1046 8.10457 19 7 19C5.89543 19 5 18.1046 5 17C5 15.8954 5.89543 15 7 15ZM12 15C13.1046 15 14 15.8954 14 17C14 18.1046 13.1046 19 12 19C10.8954 19 10 18.1046 10 17C10 15.8954 10.8954 15 12 15ZM17 15C18.1046 15 19 15.8954 19 17C19 18.1046 18.1046 19 17 19C15.8954 19 15 18.1046 15 17C15 15.8954 15.8954 15 17 15ZM12 0C13.1046 0 14 0.89543 14 2V3.22559C18.0077 4.13525 21 7.71702 21 12C21 13.1046 20.1046 14 19 14H5C3.89543 14 3 13.1046 3 12C3 7.71702 5.9923 4.13525 10 3.22559V2C10 0.89543 10.8954 0 12 0ZM12 7C9.94982 7 8.18863 8.23428 7.41699 10H16.583C15.8114 8.23428 14.0502 7 12 7Z" fill="#111111"/>
</svg>
