<svg width="24" height="24" viewBox="0 0 24 24" fill="none" xmlns="http://www.w3.org/2000/svg">
<g clip-path="url(#clip0_2997_50)">
<path d="M17.1999 0.999904C17.8665 0.999903 18.4328 0.994112 18.9382 1.07412L19.1775 1.11612C21.63 1.60633 23.5315 3.57437 23.9255 6.06143L23.9519 6.25381C24.0043 6.70994 23.9997 7.21639 23.9997 7.79971C23.9997 7.88179 24.0035 8.06448 23.987 8.26553L23.9626 8.46963C23.7881 9.57059 23.0221 10.4658 21.9978 10.8271C21.9978 10.8862 21.9997 10.9439 21.9997 10.9999V12.9999C21.9997 14.8288 22.0041 16.4017 21.8357 17.6552C21.6704 18.8842 21.3107 20.066 20.4265 21.0487L20.2419 21.2421C19.2226 22.2613 17.966 22.6596 16.655 22.8358C15.4016 23.0043 13.8285 22.9999 11.9997 22.9999C10.1709 22.9999 8.59784 23.0043 7.34446 22.8358C6.1155 22.6706 4.93358 22.3108 3.95091 21.4267L3.75755 21.2421C2.73836 20.2228 2.34005 18.9661 2.1638 17.6552C1.99533 16.4018 1.99974 14.8288 1.99974 12.9999V10.9999C1.99974 10.9436 2.00069 10.8855 2.00071 10.8261C1.05165 10.4909 0.323602 9.69801 0.0837206 8.70694L0.0368456 8.46963C-0.00627312 8.19728 -0.00026379 7.90907 -0.00026379 7.79971C-0.000265552 7.13309 -0.00609813 6.56692 0.073955 6.06143C0.480589 3.49418 2.49404 1.48084 5.06126 1.07412C5.56671 0.994077 6.133 0.999901 6.79954 0.999904H17.1999ZM5.99974 12.9999C5.99974 14.942 6.00429 16.198 6.12864 17.123C6.24523 17.9897 6.43349 18.2617 6.58567 18.414L6.64915 18.4726C6.81498 18.6122 7.11811 18.7689 7.87669 18.871C8.80166 18.9954 10.0577 18.9999 11.9997 18.9999C13.9417 18.9999 15.1978 18.9953 16.1228 18.871C16.9897 18.7544 17.2616 18.5662 17.4138 18.414L17.4724 18.3505C17.612 18.1846 17.7688 17.8817 17.8708 17.123C17.9952 16.1979 17.9997 14.942 17.9997 12.9999V10.9999H5.99974V12.9999ZM14.2038 12.0106C15.2125 12.1129 15.9997 12.9643 15.9997 13.9999C15.9997 15.0356 15.2125 15.8869 14.2038 15.9892L13.9997 15.9999H9.99974C8.8953 15.9997 7.99974 15.1044 7.99974 13.9999C7.99979 12.8955 8.89533 12.0001 9.99974 11.9999H13.9997L14.2038 12.0106ZM6.79954 4.9999C5.98123 4.99991 5.8035 5.00595 5.68724 5.02432C4.83159 5.15995 4.1597 5.83173 4.02415 6.6874C4.0146 6.74784 4.0094 6.82495 4.0056 6.9999H19.9939C19.9919 6.9089 19.9905 6.84427 19.987 6.79483L19.9753 6.6874C19.8482 5.88508 19.2499 5.24501 18.4704 5.05654L18.3122 5.02432C18.196 5.00599 18.0178 4.99991 17.1999 4.9999H6.79954Z" fill="#111111"/>
</g>
<defs>
<clipPath id="clip0_2997_50">
<rect width="24" height="24" fill="white"/>
</clipPath>
</defs>
</svg>
