<svg width="24" height="24" viewBox="0 0 24 24" fill="none" xmlns="http://www.w3.org/2000/svg">
<g clip-path="url(#clip0_2997_21)">
<path d="M14.0001 1.09891e-05C15.829 1.09795e-05 17.4019 -0.00440941 18.6553 0.164073C19.9664 0.340338 21.2229 0.738501 22.2422 1.75782L22.4268 1.95118C23.311 2.93393 23.6707 4.11567 23.836 5.34474C24.0045 6.59818 24.0001 8.17109 24.0001 10V20C24.0001 20.4147 24.004 20.9268 23.9454 21.3633C23.8831 21.8265 23.7234 22.4569 23.2256 23.0117L23.1211 23.1211C22.5412 23.7011 21.8574 23.8789 21.3633 23.9453C20.9269 24.004 20.4148 24 20.0001 24H11.0001C10.5853 24 10.0732 24.004 9.63677 23.9453C9.17354 23.883 8.54315 23.7233 7.98834 23.2256L7.87896 23.1211C7.29898 22.5411 7.12117 21.8574 7.05474 21.3633C6.99611 20.9268 7.00006 20.4147 7.00006 20V16H4.00006C3.58533 16 3.07323 16.004 2.63677 15.9453C2.17354 15.883 1.54315 15.7233 0.988337 15.2256L0.878962 15.1211C0.298977 14.5411 0.121172 13.8574 0.0547429 13.3633C-0.00388789 12.9268 5.54329e-05 12.4147 5.54345e-05 12V5.50001C5.54345e-05 2.46244 2.46249 1.09891e-05 5.50006 1.09891e-05H14.0001ZM10.792 4.00001C10.927 4.47692 11.0001 4.97991 11.0001 5.50001V20H20.0001V10C20.0001 8.05785 19.9955 6.80198 19.8711 5.87696C19.7691 5.11818 19.6123 4.81527 19.4727 4.64943L19.4141 4.58595C19.2619 4.43373 18.9902 4.24555 18.1231 4.12892C17.1981 4.00455 15.9422 4.00001 14.0001 4.00001H10.792ZM5.50006 4.00001C4.67163 4.00001 4.00006 4.67158 4.00006 5.50001V12H7.00006V5.50001C7.00006 4.67159 6.32848 4.00001 5.50006 4.00001Z" fill="#111111"/>
</g>
<defs>
<clipPath id="clip0_2997_21">
<rect width="24" height="24" fill="white"/>
</clipPath>
</defs>
</svg>
