<svg width="24" height="24" viewBox="0 0 24 24" fill="none" xmlns="http://www.w3.org/2000/svg">
<g clip-path="url(#clip0_2997_28)">
<path d="M21.2042 20.0108C22.2128 20.113 23.0001 20.9644 23.0001 22C23.0001 23.0357 22.2128 23.887 21.2042 23.9893L21.0001 24H10.0001C8.89549 24 8.00006 23.1046 8.00006 22C8.00006 20.8954 8.89549 20 10.0001 20H21.0001L21.2042 20.0108ZM14.0001 1.09891e-05C15.829 1.09795e-05 17.4019 -0.00440941 18.6553 0.164073C19.9664 0.340338 21.2229 0.738501 22.2422 1.75782L22.4268 1.95118C23.311 2.93393 23.6707 4.11567 23.836 5.34474C24.0045 6.59818 24.0001 8.17109 24.0001 10V14C24.0001 14.4147 24.004 14.9268 23.9454 15.3633C23.8831 15.8265 23.7234 16.4569 23.2256 17.0117L23.1211 17.1211C22.5412 17.7011 21.8574 17.8789 21.3633 17.9453C20.9269 18.004 20.4148 18 20.0001 18H11.0001C10.5853 18 10.0732 18.004 9.63677 17.9453C9.17354 17.883 8.54315 17.7233 7.98834 17.2256L7.87896 17.1211C7.29898 16.5411 7.12117 15.8574 7.05474 15.3633C6.99611 14.9268 7.00006 14.4147 7.00006 14H4.00006C3.58533 14 3.07323 14.004 2.63677 13.9453C2.17354 13.883 1.54315 13.7233 0.988337 13.2256L0.878962 13.1211C0.298977 12.5411 0.121172 11.8574 0.0547429 11.3633C-0.00388789 10.9268 5.54341e-05 10.4147 5.54341e-05 10V5.50001C5.54341e-05 2.46244 2.46249 1.09891e-05 5.50006 1.09891e-05H14.0001ZM10.792 4.00001C10.927 4.47692 11.0001 4.97991 11.0001 5.50001V14H20.0001V10C20.0001 8.05785 19.9955 6.80198 19.8711 5.87696C19.7691 5.11818 19.6123 4.81527 19.4727 4.64943L19.4141 4.58595C19.2619 4.43373 18.9902 4.24555 18.1231 4.12892C17.1981 4.00455 15.9422 4.00001 14.0001 4.00001H10.792ZM5.50006 4.00001C4.67163 4.00001 4.00006 4.67158 4.00006 5.50001V10H7.00006V5.50001C7.00006 4.67159 6.32848 4.00001 5.50006 4.00001Z" fill="#111111"/>
</g>
<defs>
<clipPath id="clip0_2997_28">
<rect width="24" height="24" fill="white"/>
</clipPath>
</defs>
</svg>
