<svg width="24" height="24" viewBox="0 0 24 24" fill="none" xmlns="http://www.w3.org/2000/svg">
<g clip-path="url(#clip0_2997_66)">
<path d="M15 4.14003e-06C16.3627 4.13946e-06 17.5353 -0.00219388 18.4883 0.0947307C19.4746 0.195064 20.4453 0.417757 21.333 1.01075L21.5742 1.18067C22.127 1.59062 22.6061 2.09357 22.9893 2.667L23.0957 2.83399C23.6094 3.6758 23.8112 4.58688 23.9053 5.51172C24.0022 6.46473 24 7.63729 24 9C24 10.3627 24.0022 11.5353 23.9053 12.4883C23.8112 13.4131 23.6094 14.3242 23.0957 15.166L22.9893 15.333C22.6061 15.9064 22.127 16.4094 21.5742 16.8193L21.333 16.9893C20.4453 17.5823 19.4746 17.8049 18.4883 17.9053C17.5353 18.0022 16.3627 18 15 18H14V20H17C18.1046 20 19 20.8954 19 22C19 23.1046 18.1046 24 17 24H7C5.89543 24 5 23.1046 5 22C5 20.8954 5.89543 20 7 20H10V18H9C7.63729 18 6.46473 18.0022 5.51172 17.9053C4.58688 17.8112 3.6758 17.6094 2.83399 17.0957L2.667 16.9893C2.09357 16.6061 1.59062 16.127 1.18067 15.5742L1.01075 15.333C0.417757 14.4453 0.195064 13.4746 0.0947307 12.4883C-0.00219385 11.5353 4.14009e-06 10.3627 4.14009e-06 9C4.13581e-06 7.63729 -0.00219423 6.46473 0.0947307 5.51172C0.195065 4.52542 0.417756 3.5547 1.01075 2.667L1.18067 2.42579C1.59062 1.87302 2.09357 1.3939 2.667 1.01075L2.83399 0.904301C3.6758 0.390597 4.58688 0.188813 5.51172 0.0947307C6.46473 -0.00219422 7.63729 4.13592e-06 9 4.14003e-06H15ZM9 4C7.55392 4 6.61965 4.00264 5.91602 4.07422C5.24602 4.1424 5.00971 4.25604 4.88868 4.33692C4.67034 4.48282 4.48282 4.67034 4.33692 4.88868C4.25604 5.00971 4.1424 5.24602 4.07422 5.91602C4.00264 6.61965 4 7.55392 4 9C4 10.4461 4.00264 11.3804 4.07422 12.084C4.1424 12.754 4.25604 12.9903 4.33692 13.1113L4.45411 13.2686C4.57867 13.4204 4.72482 13.5536 4.88868 13.6631L5.00586 13.7285C5.15469 13.7979 5.41319 13.8746 5.91602 13.9258C6.61965 13.9974 7.55392 14 9 14H15C16.4461 14 17.3804 13.9974 18.084 13.9258C18.754 13.8576 18.9903 13.744 19.1113 13.6631L19.2686 13.5459C19.4204 13.4213 19.5536 13.2752 19.6631 13.1113L19.7285 12.9941C19.7979 12.8453 19.8746 12.5868 19.9258 12.084C19.9974 11.3804 20 10.4461 20 9C20 7.55392 19.9974 6.61965 19.9258 5.91602C19.8746 5.41319 19.7979 5.15469 19.7285 5.00586L19.6631 4.88868C19.5536 4.72482 19.4204 4.57867 19.2686 4.45411L19.1113 4.33692C18.9903 4.25604 18.754 4.1424 18.084 4.07422C17.3804 4.00264 16.4461 4 15 4H9Z" fill="#111111"/>
</g>
<defs>
<clipPath id="clip0_2997_66">
<rect width="24" height="24" fill="white"/>
</clipPath>
</defs>
</svg>
