<svg width="24" height="24" viewBox="0 0 24 24" fill="none" xmlns="http://www.w3.org/2000/svg">
<path d="M15.7236 1.00001C16.6087 1.00001 17.3752 0.987661 18.1035 1.15822C19.2215 1.42007 20.2413 1.99737 21.041 2.8213L21.2305 3.02834C21.659 3.52518 22.002 4.11636 22.4004 4.78029L22.6455 5.1924C22.7255 5.32995 22.8018 5.46553 22.8662 5.59181C22.9739 5.80296 23.1413 6.15664 23.2061 6.59865L23.2266 6.79298L23.2334 7.01759C23.2276 8.05831 22.6815 9.02313 21.792 9.56349L21.5957 9.67287C21.1201 9.91517 20.6511 9.96287 20.3809 9.98146C20.0978 10.0009 19.759 10 19.4453 10H15L9.94434 16.7393C9.58704 19.1502 7.51025 21 5 21C2.23858 21 0 18.7614 0 16C0.000107201 13.2387 2.23864 11 5 11C6.26933 11 7.42783 11.4736 8.30957 12.2529L10 10H2C0.89543 10 0 9.10458 0 8.00001C0.000115365 6.89554 0.895502 6.00001 2 6.00001H18.457C18.3742 5.87045 18.3169 5.78483 18.2695 5.72267L18.1699 5.60744C17.9034 5.33287 17.564 5.14003 17.1914 5.05275C17.0198 5.01256 16.8031 5.00001 15.7236 5.00001H15C13.8954 5.00001 13 4.10458 13 3.00001C13.0001 1.89554 13.8955 1.00001 15 1.00001H15.7236ZM19 11C21.7614 11 23.9999 13.2387 24 16C24 18.7614 21.7614 21 19 21C16.2386 21 14 18.7614 14 16C14.0001 13.2387 16.2386 11 19 11Z" fill="#111111"/>
</svg>
