<svg width="24" height="24" viewBox="0 0 24 24" fill="none" xmlns="http://www.w3.org/2000/svg">
<g clip-path="url(#clip0_2997_46)">
<path d="M22.2041 18.0107C23.2128 18.113 24 18.9644 24 20C24 21.0357 23.2128 21.887 22.2041 21.9893L22 22H2C0.89543 22 0 21.1046 0 20C2.98928e-05 18.8955 0.895449 18 2 18H22L22.2041 18.0107ZM7 3C8.10455 3 8.99997 3.89546 9 5V11.5C9 13.9853 6.98528 16 4.5 16C2.01472 16 0 13.9853 0 11.5V5C2.99582e-05 3.89546 0.895449 3 2 3C3.10455 3 3.99997 3.89546 4 5V11.5C4 11.7761 4.22386 12 4.5 12C4.77614 12 5 11.7761 5 11.5V5C5.00003 3.89546 5.89545 3 7 3ZM22 3C23.1046 3 24 3.89546 24 5V14C24 15.1046 23.1046 16 22 16C20.8954 16 20 15.1046 20 14V5C20 3.89546 20.8954 3 22 3ZM15 3C15.4147 3 15.9268 2.99606 16.3633 3.05469C16.8265 3.11697 17.4569 3.27671 18.0117 3.77442L18.1211 3.87891L18.2256 3.98828C18.7233 4.54307 18.883 5.17349 18.9453 5.63672C19.0039 6.07316 19 6.58529 19 7V8C19 8.41471 19.0039 8.92684 18.9453 9.36328C18.883 9.82651 18.7233 10.4569 18.2256 11.0117L18.1211 11.1211C17.5411 11.7011 16.8574 11.8789 16.3633 11.9453C15.9268 12.0039 15.4147 12 15 12H14V13.5C14 14.6046 13.1046 15.5 12 15.5C10.8954 15.5 10 14.6046 10 13.5V7C10 6.58529 9.99606 6.07316 10.0547 5.63672C10.1211 5.14263 10.2989 4.45887 10.8789 3.87891L10.9883 3.77442C11.5431 3.27671 12.1735 3.11697 12.6367 3.05469C13.0732 2.99606 13.5853 3 14 3H15ZM14 8H15V7H14V8Z" fill="#111111"/>
</g>
<defs>
<clipPath id="clip0_2997_46">
<rect width="24" height="24" fill="white"/>
</clipPath>
</defs>
</svg>
