<svg width="24" height="24" viewBox="0 0 24 24" fill="none" xmlns="http://www.w3.org/2000/svg">
<path d="M13.0696 7.12891C14.719 3.99467 19.4705 4.42142 20.4505 7.94824L23.5755 19.1973L23.6194 19.376C24.016 21.2247 22.6066 22.9997 20.6849 23H3.47685C1.35471 22.9997 -0.0964867 20.8562 0.691692 18.8857L3.15849 12.7188L3.26005 12.4893C4.33684 10.2458 7.34899 9.76789 9.06669 11.5684L9.23368 11.7568L9.34404 11.8721C9.91962 12.4007 10.8744 12.2179 11.1946 11.4707L12.9202 7.44336L13.0696 7.12891ZM14.8704 13.0459C13.4434 16.3756 9.18454 17.1842 6.62919 14.8105L4.95439 19H19.3685L16.597 9.01953L14.8704 13.0459ZM6.00029 2C7.65702 2.00014 9.00029 3.34323 9.00029 5C9.00029 6.65677 7.65702 7.99986 6.00029 8C4.34343 8 3.00029 6.65685 3.00029 5C3.00029 3.34315 4.34343 2 6.00029 2Z" fill="#111111"/>
</svg>
