<svg width="24" height="24" viewBox="0 0 24 24" fill="none" xmlns="http://www.w3.org/2000/svg">
<path d="M16 13.7998C15.9999 11.993 14.8464 9.74099 13.3779 7.70605C12.902 7.04656 12.4234 6.45252 12 5.95508C11.5766 6.45252 11.098 7.04656 10.6221 7.70605C9.15364 9.74099 8.00008 11.993 8 13.7998C8 15.9818 8.53608 17.2378 9.15527 17.9297C9.74651 18.5901 10.6492 19 12 19C13.3508 19 14.2535 18.5901 14.8447 17.9297C15.4639 17.2378 16 15.9818 16 13.7998ZM20 13.7998C20 16.5879 19.3153 18.9321 17.8242 20.5977C16.305 22.2946 14.2074 23 12 23C9.79255 23 7.69498 22.2946 6.17578 20.5977C4.68473 18.9321 4 16.5879 4 13.7998C4.00008 10.6362 5.84645 7.48754 7.37793 5.36523C8.18082 4.25262 8.98023 3.31178 9.57715 2.64941C9.87653 2.31721 10.1276 2.05176 10.3066 1.86719C10.3959 1.77514 10.4677 1.70313 10.5186 1.65234L10.5967 1.57422C10.5988 1.57217 10.6011 1.57077 10.6025 1.56933L10.6055 1.5664C10.6058 1.5661 10.6062 1.56569 11.6592 2.64941L10.6064 1.56543C11.3825 0.811524 12.6175 0.811524 13.3936 1.56543L12 3C13.3937 1.56554 13.3942 1.56607 13.3945 1.5664L13.3975 1.56933C13.3989 1.57077 13.4012 1.57217 13.4033 1.57422L13.4814 1.65234C13.5323 1.70313 13.6041 1.77514 13.6934 1.86719C13.8724 2.05176 14.1235 2.31721 14.4229 2.64941C15.0198 3.31178 15.8192 4.25262 16.6221 5.36523C18.1536 7.48754 19.9999 10.6362 20 13.7998Z" fill="#111111"/>
</svg>
